<svg width="350" height="699" viewBox="0 0 350 699" fill="none" xmlns="http://www.w3.org/2000/svg">
<path d="M348.266 115.403C332.293 108.84 313.215 116.477 301.769 129.412C290.326 142.354 285.004 159.484 280.909 176.265C275.818 197.149 272.147 218.375 269.921 239.758L283.523 261.565C308.57 251.581 328.255 231.617 345.167 210.614C356.795 196.178 367.805 180.233 370.557 161.906C373.308 143.578 365.397 122.452 348.254 115.4L348.266 115.403Z" fill="#B2DEE7"/>
<path d="M287.207 247.897C289.426 226.519 293.099 205.281 298.196 184.404C302.291 167.623 307.608 150.485 319.055 137.55C328.684 126.662 343.723 119.567 357.765 121.496C355.006 118.961 351.848 116.878 348.284 115.412C332.312 108.849 313.233 116.487 301.787 129.421C290.344 142.363 285.022 159.494 280.927 176.275C275.836 197.159 272.165 218.385 269.939 239.768L283.541 261.574C286.785 260.278 289.943 258.814 293.011 257.207L287.211 247.904L287.207 247.897Z" fill="#BEEDF4"/>
<path d="M313.203 266.902L304.539 249.705C316.849 229.325 334.046 209.861 357.189 204.279C362.677 202.958 368.5 202.471 373.951 203.966C386.148 207.307 394.058 220.668 393.066 233.277C392.074 245.886 383.455 257.103 372.444 263.334C353.398 274.106 311.564 267.059 313.203 266.902Z" fill="#B2DEE7"/>
<path d="M362.001 217.971C367.49 216.65 373.312 216.163 378.763 217.658C384.725 219.294 389.653 223.328 393.029 228.489C391.997 217.454 384.616 206.884 373.951 203.967C368.504 202.479 362.685 202.954 357.189 204.28C334.041 209.855 316.845 229.319 304.539 249.706L310.493 261.524C322.715 241.833 339.563 223.381 362.001 217.971Z" fill="#BEEDF4"/>
<path d="M87.5241 312.383C84.7337 295.341 96.4716 278.475 111.651 270.246C126.837 262.012 144.735 260.693 162.008 260.491C183.499 260.237 205.015 261.445 226.348 264.104L244.524 282.272C229.158 304.423 205.256 319.102 180.981 330.841C164.296 338.912 146.276 346.044 127.801 344.592C109.326 343.139 90.5244 330.67 87.5241 312.383Z" fill="#B2DEE7"/>
<path d="M104.026 325.937C101.235 308.895 112.973 292.029 128.153 283.8C143.339 275.566 161.237 274.247 178.505 274.037C198.889 273.797 219.278 274.89 239.517 277.263L226.34 264.09C205.007 261.431 183.503 260.225 162 260.476C144.727 260.679 126.834 262.004 111.643 270.231C96.4563 278.465 84.7185 295.33 87.5161 312.368C89.5132 324.555 98.5241 334.139 109.777 339.621C106.877 335.567 104.847 330.966 104.017 325.923L104.026 325.937Z" fill="#BEEDF4"/>
<path d="M252.346 311.804L239.667 297.313C216.157 301.066 191.649 309.686 177.79 329.041C174.499 333.632 171.868 338.843 171.206 344.453C169.713 357.016 179.132 369.358 191.189 373.178C203.247 376.999 216.887 373.224 226.79 365.359C243.927 351.759 253.112 310.337 252.353 311.799L252.346 311.804Z" fill="#B2DEE7"/>
<path d="M191.994 347.334C192.656 341.723 195.293 336.508 198.578 331.921C209.385 316.836 226.66 308.264 244.887 303.443L239.998 297.857C216.488 301.61 191.98 310.23 178.12 329.585C174.829 334.177 172.199 339.387 171.537 344.997C170.044 357.56 179.462 369.902 191.52 373.723C196.955 375.449 202.715 375.614 208.307 374.569C198.082 369.636 190.661 358.57 191.997 347.322L191.994 347.334Z" fill="#BEEDF4"/>
<path d="M219.528 294.605C207.2 305.452 196.552 318.618 189.952 333.749C183.594 348.337 180.977 364.178 181.661 380.043C182.067 389.684 183.633 399.298 185.87 408.672C186.615 411.79 190.502 413.816 193.491 412.77C196.775 411.619 198.379 408.481 197.59 405.149C196.698 401.4 195.919 397.62 195.294 393.814C195.379 394.333 195.469 394.859 195.547 395.383C193.89 385.223 193.285 374.883 194.259 364.626C194.215 365.146 194.158 365.664 194.114 366.184C194.887 358.244 196.605 350.432 199.349 342.94C199.168 343.435 198.99 343.919 198.805 344.407C201.615 336.783 205.448 329.57 210.092 322.912C209.791 323.343 209.482 323.778 209.185 324.216C214.716 316.318 221.325 309.238 228.567 302.876C229.647 301.925 230.207 299.925 230.164 298.546C230.115 297.03 229.36 295.223 228.181 294.227C226.99 293.228 225.452 292.507 223.851 292.63C222.114 292.758 220.835 293.472 219.532 294.612L219.528 294.605Z" fill="#333333"/>
<path d="M327.014 483.372C333.162 503.949 342.422 523.563 353.533 541.903C364.696 560.342 377.769 577.519 391.593 594.022C399.224 603.138 407.135 612.027 415.174 620.786C416.158 621.855 418.094 622.426 419.504 622.383C421.02 622.334 422.827 621.58 423.823 620.4C424.823 619.21 425.543 617.671 425.421 616.071C425.29 614.345 424.598 613.021 423.438 611.752C415.073 602.635 406.863 593.381 398.937 583.878C399.292 584.298 399.635 584.715 399.989 585.135C392.183 575.758 384.657 566.154 377.601 556.195C370.633 546.361 364.11 536.196 358.261 525.649C354.947 519.676 351.858 513.581 349.017 507.37C349.242 507.872 349.47 508.362 349.695 508.863C345.408 499.442 341.707 489.754 338.743 479.833C337.831 476.77 334.233 474.642 331.122 475.735C327.985 476.833 326.044 480.073 327.023 483.355L327.014 483.372Z" fill="#231F20"/>
<path d="M239.414 300.314C228.07 317.214 210.152 372.164 232.855 417.293C255.565 462.417 308.786 535.402 400.816 485.787C497.965 433.415 476.995 345.765 424.644 292.024C374.939 240.99 322.205 252.461 322.205 252.461L239.419 300.322L239.414 300.314Z" fill="#333333"/>
<path d="M232.037 415.576C232.179 415.577 232.329 415.593 232.471 415.595C239.621 415.75 246.825 415.208 253.978 414.105C264.085 412.301 274.011 409.344 283.577 405.338C289.065 402.881 294.353 400.058 299.617 397.15C317.72 387.132 335.34 376.122 351.813 363.623C355.242 360.975 358.615 358.271 361.917 355.471C372.257 346.718 381.947 337.189 390.385 326.739C395.186 320.585 399.555 314.13 403.268 307.365C404.674 304.793 405.978 302.185 407.205 299.535C407.283 299.355 407.361 299.175 407.439 298.996C407.688 298.417 407.932 297.831 408.177 297.246C408.691 295.988 409.19 294.72 409.665 293.446C411.119 289.528 412.342 285.544 413.39 281.54C402.866 272.666 392.389 266.324 382.497 261.825C379.871 271.805 375.236 281.561 369.339 290.364C360.49 303.564 349.017 315.098 336.352 325.042C317.722 339.671 296.898 352.183 275.186 361.688C258.224 369.11 240.126 374.312 222.114 374.858C222.814 388.433 225.753 402.388 232.056 415.574L232.037 415.576Z" fill="#FFD60A"/>
<path d="M449.201 384.34C436.397 400.038 420.993 413.532 404.599 425.71C394.19 433.441 383.298 440.532 372.117 447.131C358.718 455.045 344.921 462.565 330.644 468.731C317.735 474.307 304.31 478.569 290.736 481.811C288.851 482.263 286.959 482.689 285.062 483.108C295.751 490.904 307.838 496.976 321.413 500.094C333.685 496.667 345.752 492.404 357.526 487.371C362.194 485.319 366.813 483.158 371.381 480.868C388.033 472.506 403.902 462.577 418.737 451.34C422.645 448.32 426.491 445.218 430.243 442.014C443.856 430.399 456.354 417.587 467.545 403.829C469.825 389.786 468.851 375.52 465.324 361.603C460.517 369.488 455.129 377.056 449.189 384.338L449.201 384.34Z" fill="#FFD60A"/>
<path d="M235.5 354.978C246.247 353.072 256.755 349.699 266.896 345.392C277.381 340.737 287.579 335.259 297.459 329.417C305.941 324.405 314.179 318.973 322.02 313.038C331.545 305.611 340.448 297.37 348.004 288.088C351.542 283.522 354.756 278.728 357.469 273.696C358.032 272.659 358.568 271.609 359.08 270.554C359.287 270.132 359.482 269.708 359.682 269.291C360.477 267.455 361.208 265.599 361.864 263.719C362.84 260.925 363.609 258.091 364.259 255.241C339.794 248.624 322.181 252.456 322.181 252.456L239.394 300.317C233.038 309.78 224.624 331.195 222.444 356.135C226.791 356.034 231.151 355.633 235.489 354.975L235.5 354.978Z" fill="#FFD60A"/>
<path d="M270.061 467.175C288.758 463.997 307.42 458.782 325.07 451.269C330.906 448.664 336.6 445.736 342.255 442.763C361.654 432.553 380.505 421.12 397.971 407.867C401.366 405.23 404.717 402.539 407.984 399.762C418.346 390.934 427.971 381.285 436.434 370.779C440.275 365.863 443.858 360.776 447.145 355.524C450.714 349.824 453.886 343.941 456.82 337.967C449.847 323.043 440.18 308.948 428.811 296.477C425.314 306.221 420.616 315.685 414.873 324.51C404.237 340.874 390.435 355.4 375.333 368.162C352.615 387.361 326.988 403.819 300.535 417.51C282.36 426.92 262.205 432.843 242.151 434.152C248.929 445.361 257.312 457.078 267.395 467.585C268.281 467.46 269.169 467.324 270.058 467.187L270.061 467.175Z" fill="#FFD60A"/>
<path d="M213.549 267.01C213.549 267.01 207.499 291.37 220.297 309.373C233.09 327.368 263.346 330.956 291.679 310.397C320.011 289.837 331.456 256.961 314.385 237.084C290.286 209.019 274.066 221.409 274.066 221.409L213.552 266.998L213.549 267.01Z" fill="#333333"/>
<path d="M146.794 138.187C120.594 161.163 102.87 210.063 126.856 246.448C147.565 277.862 193.11 303.462 250.361 259.201C297.708 222.596 297.557 176.105 270.32 144.758C239.886 109.735 191.817 98.7018 146.801 138.182L146.794 138.187Z" fill="#FFD60A"/>
<path d="M272.145 146.815C271.527 146.088 270.916 145.357 270.265 144.641C239.189 110.193 191.763 98.5851 146.747 138.066C120.547 161.042 102.823 209.942 126.809 246.327C134.373 257.796 145.246 268.489 158.796 275.29L158.915 275.175C141.21 263.141 130.037 242.69 142.4 219.996C157.095 193.023 195.486 190.25 195.486 190.25C195.486 190.25 191.138 152.788 219.91 136.171C249.962 118.81 272.163 146.844 272.163 146.844L272.149 146.822L272.145 146.815Z" fill="#333333"/>
<path d="M204.407 59.1477C200.908 64.3023 199.016 70.3845 197.761 76.4885C194.959 90.0855 195.081 104.275 198.12 117.815L200.932 122.015C204.851 124.061 210.231 122.567 212.54 118.794C213.001 118.042 213.347 117.201 213.368 116.324C213.397 115.06 212.751 113.889 212.16 112.774C203.735 96.964 202.386 77.5485 208.533 60.723C208.909 59.6924 209.269 58.4113 208.536 57.5965C207.392 56.3367 205.374 57.7459 204.419 59.1504L204.407 59.1477Z" fill="#333333"/>
<path d="M214.285 52.6955C217.415 56.6346 216.762 62.3699 212.823 65.5C208.884 68.6301 203.149 67.9771 200.019 64.038C196.888 60.099 197.542 54.3636 201.481 51.2335C205.42 48.1034 211.155 48.7565 214.285 52.6955Z" fill="#333333"/>
<path d="M72.4296 211.292C75.5596 215.231 74.9066 220.967 70.9675 224.097C67.0285 227.227 61.2931 226.574 58.1631 222.635C55.033 218.696 55.686 212.96 59.6251 209.83C63.5641 206.7 69.2995 207.353 72.4296 211.292Z" fill="#333333"/>
<path d="M64.9256 214.043C69.583 209.898 75.3642 207.237 81.2562 205.2C94.3696 200.651 108.455 198.926 122.275 200.181L126.798 202.421C129.335 206.04 128.555 211.573 125.116 214.349C124.429 214.901 123.641 215.357 122.771 215.492C121.518 215.687 120.278 215.201 119.091 214.752C102.319 208.451 82.8912 209.637 67.0071 217.928C66.0331 218.44 64.8112 218.957 63.9052 218.331C62.5106 217.36 63.6378 215.174 64.9139 214.04L64.9256 214.043Z" fill="#333333"/>
<path d="M148.489 222.345C149.16 221.783 149.933 221.286 150.802 221.182C151.671 221.078 152.647 221.448 153.03 222.233C153.585 223.371 152.746 224.672 151.948 225.656C151.372 226.37 150.796 227.083 150.22 227.797C149.654 228.495 149.075 229.22 148.828 230.089C148.472 231.328 149.219 234.545 147.452 234.994C145.893 235.391 145.103 233.175 144.899 232.068C144.27 228.575 145.803 224.607 148.489 222.345Z" fill="#231F20"/>
<path d="M217.674 144.419C217.204 145.157 216.811 145.986 216.821 146.864C216.83 147.743 217.325 148.657 218.151 148.932C219.348 149.334 220.526 148.332 221.4 147.421C222.031 146.763 222.665 146.093 223.303 145.43C223.927 144.777 224.572 144.11 225.394 143.754C226.578 143.241 229.865 143.564 230.086 141.758C230.277 140.161 227.98 139.656 226.856 139.609C223.312 139.437 219.579 141.473 217.679 144.426L217.674 144.419Z" fill="#231F20"/>
<path d="M231.375 244.075C215.219 254.235 202.975 248.984 202.344 248.698C201.728 248.422 201.455 247.7 201.726 247.077C202.002 246.461 202.731 246.183 203.347 246.459C203.519 246.542 221.008 254.03 241.51 232.427C261.032 211.852 250.35 194.337 250.241 194.164C249.884 193.596 250.05 192.838 250.626 192.476C251.195 192.118 251.952 192.284 252.315 192.86C252.432 193.048 264.11 212.177 243.285 234.114C239.17 238.45 235.164 241.682 231.377 244.063L231.375 244.075Z" fill="#231F20"/>
<path d="M247.571 191.625C248.626 189.836 250.81 188.755 252.883 189.048C253.29 189.104 253.701 188.895 253.797 188.473C253.883 188.098 253.629 187.614 253.222 187.559C250.444 187.166 247.636 188.5 246.214 190.921C245.713 191.769 247.074 192.48 247.571 191.625Z" fill="#231F20"/>
<path d="M199.299 251.205C199.263 251.148 199.222 251.083 199.193 251.021C199.18 250.999 199.082 250.78 199.113 250.861C199.148 250.949 199.071 250.746 199.062 250.732C199.04 250.665 199.011 250.603 198.989 250.537C198.941 250.396 198.896 250.244 198.866 250.101C198.852 250.03 198.83 249.964 198.82 249.9C198.809 249.866 198.786 249.67 198.808 249.817C198.773 249.537 198.749 249.261 198.752 248.978C198.754 248.836 198.755 248.694 198.768 248.556C198.752 248.706 198.774 248.502 198.782 248.466C198.794 248.389 198.808 248.299 198.82 248.222C199.024 247.109 199.486 246.246 200.382 245.482C200.695 245.214 200.614 244.652 200.333 244.397C199.996 244.086 199.569 244.174 199.248 244.446C197.107 246.265 196.621 249.615 197.996 252.025C198.195 252.372 198.722 252.493 199.052 252.265C199.403 252.025 199.504 251.579 199.292 251.21L199.299 251.205Z" fill="#231F20"/>
<path d="M225.9 291.764C225.461 297.184 227.887 302.751 232.15 306.128C234.956 308.352 238.647 309.638 242.17 309.009C245.693 308.381 248.897 305.583 249.432 302.042C250.069 297.814 247.061 293.878 246.663 289.617C246.446 287.323 247.003 285.013 246.918 282.706C246.675 276.057 239.926 275.74 234.993 277.978C229.958 280.26 226.34 286.393 225.9 291.764Z" fill="#594F59"/>
<path d="M121.685 207.424C122.123 210.021 122.881 212.76 124.91 214.437C127.646 216.695 131.977 216.122 134.704 213.844C137.431 211.567 138.772 208.011 139.307 204.5C139.842 200.989 139.682 197.412 139.993 193.881C140.543 187.678 142.581 181.605 145.877 176.317C147.168 174.249 148.66 172.276 149.507 169.996C150.353 167.715 150.464 164.983 149.061 162.992C142.794 154.114 127.998 166.211 125.757 173.256C122.33 184.022 119.774 196.157 121.676 207.409L121.685 207.424Z" fill="#594F59"/>
<path d="M62.3883 222.229C64.1708 222.635 66.2851 221.748 66.8996 220.025C67.1036 219.455 67.1389 218.84 67.0795 218.234C66.7426 214.759 62.1463 211.652 58.9325 213.954C55.6467 216.302 59.5269 221.577 62.3883 222.229Z" fill="#594F59"/>
<path d="M206.763 60.178C208.546 60.5841 210.66 59.6966 211.275 57.9739C211.479 57.4036 211.514 56.7887 211.455 56.1831C211.118 52.7078 206.521 49.6004 203.307 51.9027C200.022 54.2503 203.902 59.526 206.763 60.178Z" fill="#594F59"/>
<path d="M162.924 223.506C162.015 223.515 161.106 223.635 160.255 223.959C159.154 224.381 158.202 225.12 157.311 225.891C155.041 227.841 152.957 230.136 151.929 232.942C150.901 235.749 151.117 239.159 153.077 241.413C153.96 242.435 155.144 243.167 156.377 243.738C161.153 245.949 166.968 245.738 171.585 243.207L167.667 242.375C167.21 241.809 168.065 241.14 168.72 240.839C172.573 239.059 174.369 234.022 172.905 230.049C171.438 226.069 167.161 223.454 162.924 223.506Z" fill="#FCAE12"/>
<path d="M238.429 146.608C237.626 146.178 236.771 145.841 235.88 145.719C234.71 145.55 233.525 145.743 232.372 145.986C229.443 146.602 226.507 147.604 224.253 149.564C222 151.524 220.544 154.609 221.167 157.533C221.45 158.862 222.131 160.071 222.932 161.155C226.05 165.393 231.242 168.026 236.501 168.034L233.477 165.414C233.35 164.7 234.426 164.526 235.142 164.578C239.372 164.882 243.381 161.336 244.014 157.151C244.654 152.96 242.174 148.602 238.436 146.603L238.429 146.608Z" fill="#FCAE12"/>
<path d="M169.731 229.634C173.801 230.691 176.248 234.839 175.196 238.916C174.139 242.987 169.992 245.434 165.914 244.382C161.843 243.325 159.396 239.177 160.449 235.1C161.506 231.029 165.653 228.582 169.731 229.634Z" fill="#231F20"/>
<path d="M165.434 236.395C166.807 236.918 167.505 238.458 166.982 239.832C166.46 241.206 164.919 241.903 163.545 241.38C162.172 240.858 161.474 239.317 161.997 237.944C162.52 236.57 164.06 235.873 165.434 236.395Z" fill="white"/>
<path d="M238.043 154.476C241.874 156.206 243.577 160.721 241.847 164.552C240.117 168.382 235.602 170.086 231.771 168.356C227.941 166.626 226.237 162.111 227.967 158.28C229.697 154.45 234.212 152.746 238.043 154.476Z" fill="#231F20"/>
<path d="M232.658 160.404C233.924 161.156 234.348 162.788 233.597 164.054C232.846 165.32 231.213 165.744 229.947 164.992C228.681 164.241 228.258 162.609 229.009 161.343C229.76 160.077 231.392 159.653 232.658 160.404Z" fill="white"/>
<path d="M305.828 240.205C316.062 227.531 323.585 212.974 328.278 197.384C332.816 182.313 334.541 166.22 333.236 150.533C332.487 141.53 330.794 132.559 328.076 123.94C327.112 120.889 323.599 118.738 320.455 119.841C317.359 120.924 315.33 124.2 316.361 127.469C317.993 132.652 319.249 137.94 320.134 143.311C320.049 142.792 319.959 142.265 319.881 141.742C321.536 151.914 321.837 162.283 320.863 172.54C320.908 172.02 320.964 171.502 321.009 170.982C319.989 181.438 317.655 191.737 314.044 201.603C314.224 201.108 314.402 200.624 314.588 200.136C311.085 209.632 306.418 218.666 300.628 226.968C300.93 226.537 301.239 226.102 301.536 225.664C300.035 227.814 298.447 229.907 296.798 231.949C295.793 233.194 295.147 234.644 295.201 236.279C295.25 237.795 296.004 239.601 297.183 240.598C299.598 242.616 303.678 242.873 305.828 240.205Z" fill="#333333"/>
<path d="M306.399 97.5359C304.137 101.48 304.987 108.742 306.355 113.075C305.014 112.844 303.621 112.625 302.314 112.975C300.995 113.322 299.774 114.401 299.693 115.758C299.631 116.761 300.185 117.689 300.776 118.502C304.042 123.009 308.913 126.025 313.222 129.554C317.531 133.083 321.571 137.655 322.027 143.205L327.699 148.118C331.379 138.218 333.268 127.657 333.245 117.093C333.237 112.175 330.619 102.709 328.47 98.2844C326.313 93.864 315.093 82.3639 306.406 97.5314L306.399 97.5359Z" fill="#333333"/>
<path d="M216.917 434.076C218.343 429.763 216.084 422.815 213.875 418.839C215.24 418.805 216.643 418.736 217.865 418.139C219.082 417.534 220.068 416.241 219.882 414.891C219.738 413.896 219.014 413.096 218.275 412.416C214.175 408.644 208.813 406.652 203.884 404.054C198.963 401.453 194.096 397.772 192.547 392.417L186.006 388.724C184.357 399.155 184.607 409.888 186.728 420.228C187.716 425.042 192.152 433.806 195.142 437.713C198.131 441.62 211.411 450.659 216.917 434.076Z" fill="#231F20"/>
<g opacity="0.46">
<path opacity="0.46" d="M241.989 389.003C246.345 404.318 252.389 420.128 264.853 430.042C269.495 433.734 275.11 436.512 281.032 436.615C286.954 436.719 293.153 433.715 295.693 428.36C298.548 422.356 296.371 415.235 293.692 409.154C286.92 393.801 276.88 379.208 275.827 362.469C275.252 353.327 275.249 345.653 266.211 340.818C260.311 337.667 253.501 337.127 247.894 341.135C233.291 351.574 237.907 374.652 241.989 389.003Z" fill="white"/>
</g>
<path d="M225.865 217.562C226.558 215.549 226.826 212.939 225.126 211.658C223.884 210.721 221.943 210.846 221.011 209.604C220.026 208.294 220.973 206.252 222.481 205.615C223.989 204.978 225.727 205.392 227.231 206.044C228.344 206.519 229.441 207.145 230.12 208.145C231.024 209.455 231.055 211.214 230.581 212.728C230.106 214.242 229.191 215.581 228.278 216.878C227.111 218.537 225.781 220.448 223.771 221.039C224.677 220.067 225.42 218.867 225.865 217.562Z" fill="#FCAE12"/>
<g opacity="0.46">
<path opacity="0.46" d="M97.3004 308.837C98.0449 317.914 104.754 326.665 113.74 328.127C118.681 328.938 124.312 327.236 126.936 322.973C129.323 319.101 128.816 314.205 128.699 309.658C128.573 304.744 128.999 299.814 129.979 294.998C130.86 290.647 132.063 285.691 129.431 282.112C124.603 275.553 111.813 279.849 106.876 284.38C100.617 290.115 96.6083 300.452 97.2932 308.842L97.3004 308.837Z" fill="white"/>
</g>
</svg>
