<svg width="314" height="496" viewBox="0 0 314 496" fill="none" xmlns="http://www.w3.org/2000/svg">
<path d="M272.114 96.9895C263.799 85.3238 247.032 82.2626 233.284 86.2959C219.536 90.3293 208.235 100.009 197.949 109.986C185.152 122.403 173.197 135.682 162.2 149.72L162.124 171.038C184.118 175.085 206.76 169.756 227.906 162.482C242.44 157.476 257.215 151.147 267.24 139.488C277.265 127.836 281.043 109.51 272.114 96.9895Z" fill="#B2DEE7"/>
<path d="M170.735 163.054C181.732 149.023 193.688 135.737 206.484 123.32C216.764 113.344 228.071 103.664 241.819 99.6302C253.388 96.238 267.074 97.8927 276.086 105.449C275.272 102.45 273.969 99.5957 272.114 96.9895C263.799 85.3238 247.032 82.2626 233.284 86.2959C219.536 90.3293 208.235 100.009 197.949 109.986C185.152 122.403 173.197 135.682 162.2 149.72L162.124 171.038C164.972 171.562 167.84 171.921 170.701 172.148L170.735 163.054Z" fill="#BEEDF4"/>
<path d="M180.596 187.883L182.106 171.984C199.749 163.11 220.419 157.036 239.131 163.338C243.571 164.834 247.867 167.068 251.038 170.515C258.133 178.244 257.781 191.116 251.521 199.535C245.261 207.953 234.25 212.021 223.77 211.531C205.644 210.69 179.375 187.262 180.596 187.883Z" fill="#B2DEE7"/>
<path d="M236.468 175.071C240.908 176.567 245.203 178.801 248.375 182.248C251.843 186.027 253.518 191.039 253.608 196.148C257.752 187.943 257.241 177.263 251.043 170.507C247.878 167.052 243.576 164.825 239.136 163.329C220.417 157.028 199.754 163.102 182.11 171.975L181.069 182.903C198.347 174.478 218.321 168.955 236.468 175.064V175.071Z" fill="#BEEDF4"/>
<path d="M2.06267 120.17C7.62665 106.967 23.312 100.314 37.6115 101.238C51.904 102.161 65.059 109.139 77.2763 116.62C92.479 125.934 107.047 136.276 120.85 147.563L125.594 168.343C105.02 177.106 81.7647 176.865 59.5364 174.39C44.2579 172.687 28.4554 169.743 16.1208 160.566C3.78633 151.389 -3.90809 134.332 2.06267 120.17Z" fill="#B2DEE7"/>
<path d="M7.66296 136.972C13.2269 123.769 28.9122 117.116 43.2117 118.04C57.5043 118.964 70.6593 125.941 82.8766 133.422C97.2933 142.254 111.131 152.017 124.293 162.627L120.852 147.563C107.049 136.276 92.4809 125.934 77.2782 116.619C65.0609 109.139 51.9128 102.161 37.6133 101.238C23.3207 100.314 7.62848 106.967 2.0645 120.17C-1.9137 129.609 0.182268 140.323 5.66351 149.135C5.4153 145.012 6.02203 140.882 7.66985 136.972H7.66296Z" fill="#BEEDF4"/>
<path d="M118.045 192.543L115.536 176.768C97.3684 169.019 76.3604 164.255 58.0758 171.728C53.7391 173.5 49.5885 175.996 46.6445 179.643C40.0532 187.807 41.2115 200.631 47.989 208.635C54.7664 216.64 66.0116 220.011 76.4363 218.867C94.4727 216.881 119.218 191.854 118.039 192.55L118.045 192.543Z" fill="#B2DEE7"/>
<path d="M59.9856 190.84C62.9297 187.2 67.0802 184.697 71.417 182.925C85.6682 177.106 101.574 178.712 116.501 183.38L115.536 177.299C97.3684 169.549 76.3604 164.785 58.0758 172.259C53.7391 174.031 49.5885 176.527 46.6445 180.174C40.0532 188.337 41.2115 201.161 47.989 209.166C51.0433 212.779 55.0146 215.433 59.4065 217.171C54.4079 209.194 54.0769 198.148 59.9788 190.84H59.9856Z" fill="#BEEDF4"/>
<path d="M102.265 154.518C93.6807 155.373 85.352 157.607 77.4025 160.937C68.7773 164.55 60.7657 169.135 53.3884 174.892C46.873 179.973 40.9574 186.075 36.7034 193.197C32.8079 199.733 30.2914 207.517 30.9877 215.191C31.3876 219.59 32.5597 223.678 34.5385 227.629C36.5379 231.642 39.3992 235.275 42.5569 238.44C43.3843 239.274 44.2461 240.074 45.1355 240.846C46.1559 241.742 47.3349 242.335 48.7207 242.335C49.9687 242.335 51.451 241.784 52.3128 240.846C54.071 238.929 54.4433 235.537 52.3128 233.669C50.0307 231.662 47.9141 229.484 46.0525 227.084C46.3145 227.429 46.5834 227.767 46.8454 228.112C45.1011 225.836 43.6118 223.375 42.488 220.727C42.6603 221.134 42.8258 221.534 42.9982 221.941C42.0674 219.707 41.4124 217.37 41.0884 214.97C41.1504 215.419 41.2125 215.867 41.2676 216.322C40.9505 213.909 40.9643 211.468 41.2814 209.055C41.2194 209.503 41.1573 209.951 41.1022 210.406C41.4952 207.566 42.2949 204.815 43.405 202.174C43.2326 202.581 43.0671 202.981 42.8948 203.387C44.4116 199.816 46.4593 196.493 48.8173 193.418C48.5553 193.762 48.2864 194.1 48.0244 194.445C51.6923 189.702 56.0704 185.551 60.807 181.883L59.7797 182.676C66.3434 177.622 73.5897 173.472 81.2221 170.252C80.8153 170.424 80.4154 170.59 80.0086 170.762C86.855 167.887 94.0461 165.736 101.416 164.743C100.968 164.805 100.52 164.86 100.065 164.922C100.796 164.826 101.534 164.743 102.265 164.667C103.643 164.529 104.843 164.191 105.857 163.178C106.739 162.295 107.401 160.854 107.346 159.586C107.236 157.062 105.098 154.229 102.271 154.511L102.265 154.518Z" fill="#231F20"/>
<path d="M94.7141 348.665C96.0862 358.379 97.8236 368.032 99.8713 377.629C101.781 386.599 103.96 395.514 106.283 404.38C108.503 412.861 110.854 421.313 113.199 429.759C115.488 438.019 117.763 446.286 119.866 454.601C121.976 462.929 123.913 471.3 125.54 479.732C125.747 480.793 125.947 481.855 126.14 482.917C126.361 484.103 127.464 485.358 128.47 485.951C129.56 486.585 131.159 486.854 132.38 486.461C133.607 486.061 134.793 485.303 135.413 484.13C136.082 482.862 136.185 481.628 135.923 480.221C134.372 471.755 132.49 463.35 130.421 454.994C128.36 446.686 126.112 438.419 123.837 430.166C121.514 421.748 119.156 413.336 116.915 404.897C114.578 396.093 112.364 387.254 110.399 378.36C108.303 368.873 106.497 359.324 105.049 349.719C104.863 348.471 104.677 347.217 104.505 345.969C104.339 344.804 103.139 343.5 102.174 342.935C101.085 342.301 99.4852 342.032 98.2649 342.425C97.0376 342.825 95.8517 343.583 95.2312 344.755C95.0589 345.162 94.8934 345.562 94.721 345.969C94.4797 346.865 94.4797 347.768 94.721 348.665H94.7141Z" fill="#231F20"/>
<path d="M215.45 345.935C216.429 355.67 217.788 365.378 219.656 374.989C221.4 383.98 223.593 392.881 226.261 401.637C229.053 410.807 232.397 419.791 236.141 428.616C239.906 437.503 244.16 446.183 248.8 454.65C253.75 463.675 259.135 472.452 264.844 481.008C265.595 482.132 266.353 483.256 267.119 484.38C267.87 485.483 268.836 486.351 270.152 486.71C271.366 487.048 272.986 486.896 274.062 486.2C276.24 484.793 277.481 481.601 275.882 479.257C266.326 465.219 257.597 450.596 250.234 435.283C248.29 431.236 246.442 427.147 244.697 423.01C244.87 423.417 245.035 423.817 245.208 424.224C241.609 415.681 238.451 406.96 235.783 398.086C233.135 389.275 230.963 380.319 229.24 371.28C228.254 366.088 227.413 360.869 226.702 355.636C226.764 356.084 226.827 356.532 226.882 356.987C226.385 353.312 225.958 349.631 225.585 345.935C225.448 344.556 225.11 343.357 224.096 342.343C223.214 341.461 221.773 340.799 220.511 340.854C217.988 340.964 215.154 343.101 215.437 345.928L215.45 345.935Z" fill="#231F20"/>
<path d="M114.041 178.76C98.611 185.613 61.7729 216.287 57.7878 258C53.8096 299.706 58.953 374.45 145.474 380.256C236.814 386.378 260.787 315.584 247.756 254.725C235.387 196.948 193.295 181.711 193.295 181.711L114.034 178.76H114.041Z" fill="#231F20"/>
<path d="M57.9659 256.427C58.0624 256.496 58.1589 256.565 58.2624 256.634C63.2127 259.902 68.5078 262.701 74.0235 265.08C81.9179 268.279 90.1914 270.582 98.6718 271.989C103.608 272.685 108.573 273.043 113.55 273.319C130.684 274.278 147.92 274.333 165.005 272.83C168.577 272.478 172.148 272.071 175.699 271.568C186.827 269.989 197.831 267.576 208.372 263.963C214.46 261.764 220.376 259.158 225.975 256.048C228.098 254.869 230.166 253.607 232.193 252.291C232.324 252.201 232.462 252.111 232.593 252.015C233.028 251.718 233.455 251.415 233.883 251.112C234.807 250.457 235.71 249.788 236.606 249.098C239.357 246.989 241.97 244.734 244.473 242.383C241.005 231.503 236.447 222.43 231.483 214.901C225.23 220.748 217.673 225.553 209.641 229.125C197.603 234.482 184.455 237.515 171.169 238.908C151.63 240.949 131.483 240.542 112.041 237.633C96.8517 235.357 81.8489 231.021 68.9559 223.45C63.454 233.289 59.3517 244.382 57.959 256.427H57.9659Z" fill="#FDD615"/>
<path d="M224.23 330.386C208.304 335.757 191.536 338.432 174.651 339.742C163.93 340.576 153.147 340.742 142.391 340.438C129.491 340.073 116.481 339.266 103.74 337.294C92.2187 335.509 80.9046 332.571 69.9421 328.855C68.4184 328.338 66.9016 327.807 65.3848 327.256C69.4457 337.446 75.2579 347.05 83.4074 355.234C93.5356 358.247 103.891 360.578 114.385 362.246C118.57 362.867 122.769 363.391 126.982 363.797C142.363 365.28 157.89 365.314 173.272 363.977C177.347 363.577 181.415 363.101 185.469 362.508C200.154 360.364 214.585 356.889 228.519 352.166C236.324 343.313 241.936 332.868 245.604 321.54C238.744 324.96 231.622 327.89 224.237 330.379L224.23 330.386Z" fill="#FDD615"/>
<path d="M211.504 210.544C211.504 210.544 211.454 210.58 211.44 210.587C211.461 210.572 211.483 210.558 211.504 210.544Z" fill="#FDD615"/>
<path d="M87.1488 215.412C95.5396 218.818 104.406 221.093 113.424 222.548C122.842 223.906 132.426 224.568 141.94 224.83C150.111 225.058 158.288 224.878 166.423 224.175C176.393 223.169 186.28 221.314 195.684 218.129C200.186 216.488 204.558 214.543 208.681 212.206C209.529 211.723 210.37 211.227 211.197 210.71C211.528 210.503 211.852 210.296 212.176 210.089C213.548 209.152 214.879 208.173 216.168 207.145C218.085 205.615 219.878 203.967 221.594 202.25C207.343 186.806 193.285 181.718 193.285 181.718L114.024 178.767C105.378 182.607 90.0169 193.928 77.4756 210.476C80.5713 212.323 83.8118 213.964 87.1488 215.426V215.412Z" fill="#FDD615"/>
<path d="M145.236 380.117C144.485 380.103 143.726 380.069 142.975 380.048C143.802 380.117 144.622 380.193 145.464 380.248C157.97 381.089 169.209 380.476 179.268 378.648C167.975 379.869 156.578 380.358 145.236 380.117Z" fill="#FDD615"/>
<path d="M61.8823 309.448C76.4162 315.474 91.8189 320.052 107.532 322.568C112.779 323.313 118.067 323.775 123.355 324.182C141.488 325.581 159.772 325.878 177.878 324.278C181.429 323.926 184.965 323.52 188.489 323.003C199.665 321.382 210.676 318.859 221.259 315.212C226.127 313.454 230.891 311.468 235.517 309.234C240.536 306.807 245.363 304.077 250.065 301.174C251.754 287.612 251.189 273.451 248.72 259.675C241.964 264.97 234.483 269.542 226.561 273.203C211.868 279.994 195.763 284.103 179.519 286.392C155.091 289.839 129.829 290.088 105.208 288.019C88.2957 286.599 71.5279 281.862 56.8699 273.927C56.6838 284.786 57.3939 296.713 59.8346 308.545C60.5172 308.848 61.1929 309.144 61.8754 309.441L61.8823 309.448Z" fill="#FDD615"/>
<path d="M110.583 143.957C110.583 143.957 95.5804 158.394 96.6146 176.679C97.6488 194.964 117.305 210.842 146.277 208.918C175.248 206.995 197.793 188.965 194.587 167.468C190.058 137.124 173.2 138.662 173.2 138.662L110.583 143.957Z" fill="#231F20"/>
<path d="M143.623 21.8929C114.728 21.0311 76.3314 40.6946 70.3262 76.3399C65.1414 107.111 78.3171 148.403 138.08 153.891C187.508 158.434 213.693 130.125 214.879 95.7069C216.203 57.2486 193.265 23.3821 143.623 21.8929Z" fill="#FDD615"/>
<path d="M214.83 97.9893C214.864 97.1965 214.906 96.4105 214.919 95.6107C215.533 57.1317 193.305 23.2859 143.656 21.7966C114.761 20.9279 76.3646 40.5983 70.3594 76.2436C68.4634 87.4819 69.0218 100.113 73.3999 111.903H73.5378C69.5941 94.5834 74.3721 75.8575 94.7044 69.0732C118.87 61.0065 143.739 81.0216 143.739 81.0216C143.739 81.0216 162.272 55.8217 189.133 61.9993C217.188 68.4527 214.816 98.01 214.816 98.01V97.9893H214.83Z" fill="#231F20"/>
<path d="M223.261 6.48419C218.221 7.63559 213.636 10.2624 209.43 13.2547C200.047 19.9218 192.104 28.6022 186.285 38.5374L185.616 42.6742C186.837 46.1284 190.953 48.2657 194.483 47.2798C195.186 47.0867 195.875 46.7696 196.386 46.2456C197.116 45.4941 197.385 44.4185 197.654 43.405C201.481 29.0435 211.63 16.4952 224.874 9.75914C225.688 9.34546 226.632 8.77321 226.639 7.86311C226.653 6.44971 224.633 6.16703 223.261 6.47729V6.48419Z" fill="#231F20"/>
<path d="M232.919 8.15293C232.595 12.3173 228.955 15.4268 224.79 15.0958C220.626 14.7718 217.516 11.1314 217.847 6.96705C218.171 2.80269 221.812 -0.306795 225.976 0.0241479C230.141 0.348196 233.25 3.98857 232.919 8.15293Z" fill="#231F20"/>
<path d="M57.1574 24.2374C56.8333 28.4018 53.1929 31.5113 49.0286 31.1803C44.8642 30.8563 41.7547 27.2159 42.0857 23.0515C42.4097 18.8872 46.0501 15.7777 50.2145 16.1086C54.3788 16.4327 57.4883 20.073 57.1574 24.2374Z" fill="#231F20"/>
<path d="M51.0486 21.6663C56.2127 21.7835 61.232 23.4383 65.9549 25.5273C76.483 30.1812 86.0045 37.0965 93.692 45.6666L95.1744 49.5827C94.671 53.2162 91.072 56.1327 87.411 55.8707C86.6802 55.8224 85.9424 55.65 85.3426 55.2432C84.4739 54.6572 83.9981 53.6575 83.5293 52.7129C76.9104 39.4131 64.4449 29.147 50.1179 25.2033C49.2422 24.962 48.2012 24.5897 48.0081 23.7002C47.7116 22.3213 49.6352 21.6388 51.0417 21.6663H51.0486Z" fill="#231F20"/>
<path d="M97.0753 73.9348C97.7993 73.9692 98.5508 74.1071 99.1368 74.5346C99.7229 74.9621 100.102 75.7343 99.8952 76.4306C99.5919 77.4372 98.3439 77.7475 97.3029 77.8923C96.5513 78.0026 95.7998 78.106 95.0414 78.2163C94.3037 78.3198 93.5384 78.437 92.8972 78.8162C91.9802 79.3677 90.615 81.7464 89.2913 81.0156C88.1192 80.3744 88.8914 78.5817 89.3947 77.7958C90.9874 75.3206 94.1589 73.7831 97.0684 73.9279L97.0753 73.9348Z" fill="#231F20"/>
<path d="M183.123 65.7507C182.42 65.93 181.717 66.2195 181.22 66.7504C180.731 67.2882 180.51 68.1224 180.855 68.7568C181.358 69.6806 182.634 69.7358 183.682 69.6737C184.44 69.6255 185.198 69.5841 185.957 69.5358C186.701 69.4876 187.474 69.4531 188.177 69.7013C189.183 70.0598 190.997 72.1144 192.148 71.1354C193.169 70.2736 192.052 68.674 191.404 68.0052C189.349 65.8955 185.936 65.0199 183.109 65.7438L183.123 65.7507Z" fill="#231F20"/>
<path d="M135.11 133.979C119.562 131.014 115.094 120.907 114.874 120.376C114.653 119.859 114.894 119.266 115.412 119.045C115.929 118.824 116.522 119.066 116.742 119.583C116.804 119.728 123.189 134.158 147.837 132.641C171.313 131.193 174.733 114.515 174.768 114.35C174.871 113.798 175.402 113.44 175.953 113.543C176.505 113.647 176.863 114.177 176.76 114.729C176.726 114.915 172.996 133.124 147.961 134.668C143.011 134.972 138.75 134.668 135.11 133.979Z" fill="#231F20"/>
<path d="M174.54 111.31C176.27 110.793 178.187 111.4 179.345 112.827C179.559 113.096 180.021 113.055 180.242 112.827C180.504 112.565 180.455 112.2 180.242 111.931C178.835 110.186 176.346 109.449 174.202 110.09C173.423 110.324 173.754 111.552 174.54 111.31Z" fill="#231F20"/>
<path d="M111.6 120.232C111.627 120.108 111.662 119.983 111.703 119.866C111.724 119.804 111.745 119.749 111.765 119.687C111.772 119.666 111.779 119.646 111.786 119.632C111.765 119.68 111.765 119.68 111.786 119.632C111.889 119.411 112 119.204 112.138 118.998C112.165 118.956 112.2 118.915 112.227 118.867C112.248 118.839 112.262 118.818 112.282 118.791C112.255 118.825 112.255 118.832 112.282 118.791C112.358 118.701 112.434 118.611 112.51 118.529C112.6 118.439 112.689 118.349 112.786 118.267C112.827 118.232 112.869 118.198 112.903 118.163C112.931 118.143 112.951 118.122 112.979 118.101C112.944 118.129 112.937 118.129 112.979 118.101C113.165 117.963 113.358 117.839 113.565 117.729C113.668 117.674 113.772 117.625 113.875 117.577C113.772 117.619 113.937 117.55 113.958 117.543C114.02 117.522 114.075 117.501 114.137 117.481C114.358 117.412 114.578 117.357 114.813 117.322C114.689 117.343 114.889 117.315 114.896 117.315C114.958 117.315 115.02 117.308 115.082 117.301C115.206 117.301 115.337 117.301 115.461 117.301C115.806 117.315 116.095 116.998 116.095 116.667C116.095 116.309 115.806 116.047 115.461 116.033C113.151 115.929 110.91 117.625 110.38 119.873C110.304 120.204 110.483 120.563 110.821 120.652C111.145 120.742 111.524 120.542 111.6 120.211V120.232Z" fill="#231F20"/>
<path d="M109.648 160.931C106.945 164.544 106.187 169.522 107.69 173.776C108.683 176.575 110.696 179.112 113.454 180.229C116.205 181.346 119.694 180.795 121.631 178.54C123.948 175.851 123.575 171.763 125.175 168.598C126.037 166.888 127.443 165.516 128.402 163.855C131.166 159.077 126.568 155.877 122.114 155.264C117.57 154.643 112.323 157.346 109.641 160.924L109.648 160.931Z" fill="#594F59"/>
<path d="M89.2379 49.7334C88.0382 51.5536 86.942 53.6495 87.2315 55.8145C87.6176 58.7309 90.5685 60.8338 93.5126 60.9923C96.4497 61.1509 99.2765 59.7513 101.586 57.9242C103.896 56.0971 105.819 53.8357 108.005 51.8707C111.845 48.4165 116.513 45.8793 121.505 44.5348C123.456 44.0108 125.476 43.6592 127.283 42.756C129.089 41.8528 130.695 40.2533 130.971 38.2538C132.185 29.3252 116.361 28.3048 111.025 31.3109C102.862 35.9096 94.4502 41.8252 89.2448 49.7403L89.2379 49.7334Z" fill="#594F59"/>
<path d="M44.8834 25.1965C45.7383 26.4513 47.5171 27.1063 48.8685 26.41C49.3166 26.1824 49.6889 25.8239 49.9923 25.424C51.7573 23.1281 50.7162 18.6466 47.462 18.2191C44.1388 17.7848 43.5113 23.1764 44.8834 25.1965Z" fill="#594F59"/>
<path d="M224.118 8.44211C224.973 9.69693 226.752 10.3519 228.103 9.65557C228.551 9.42804 228.923 9.06952 229.227 8.66963C230.992 6.37371 229.951 1.8922 226.696 1.46473C223.373 1.03037 222.746 6.42198 224.118 8.44211Z" fill="#594F59"/>
<path d="M105.184 82.8C104.625 82.2967 104.005 81.8485 103.308 81.5658C102.405 81.1935 101.412 81.1108 100.433 81.0763C97.9582 80.9798 95.3934 81.1935 93.1802 82.3174C90.9671 83.4412 89.1745 85.6337 89.0848 88.1089C89.0435 89.2327 89.3468 90.3427 89.7743 91.3838C91.429 95.4241 95.0763 98.5887 99.3027 99.6574L97.3929 96.9409C97.4342 96.3411 98.3305 96.4169 98.9028 96.6031C102.247 97.6993 106.184 95.6585 107.542 92.418C108.9 89.1706 107.783 85.1717 105.177 82.8069L105.184 82.8Z" fill="#FCAE12"/>
<path d="M194.485 78.8085C194.244 78.0984 193.913 77.4089 193.437 76.8229C192.823 76.0645 191.996 75.506 191.155 75.0027C189.031 73.7203 186.68 72.6723 184.205 72.5827C181.73 72.4999 179.096 73.5479 177.821 75.6784C177.242 76.6436 176.973 77.7605 176.842 78.8775C176.338 83.2142 178 87.744 181.192 90.7225L180.834 87.4199C181.165 86.9166 181.909 87.4199 182.316 87.8543C184.715 90.426 189.149 90.5432 191.9 88.3645C194.657 86.1789 195.609 82.1318 194.471 78.8085H194.485Z" fill="#FCAE12"/>
<path d="M105.852 90.3708C107.728 93.3148 106.866 97.2171 103.929 99.0925C100.992 100.968 97.0823 100.106 95.2069 97.1689C93.3316 94.2317 94.1934 90.3225 97.1305 88.4471C100.075 86.5718 103.977 87.4336 105.852 90.3708Z" fill="#231F20"/>
<path d="M99.4213 92.0465C99.9591 93.1428 99.5109 94.4665 98.4147 95.0043C97.3184 95.5421 95.9947 95.0939 95.4569 93.9977C94.9191 92.9014 95.3673 91.5777 96.4635 91.0399C97.5597 90.5021 98.8835 90.9503 99.4213 92.0465Z" fill="white"/>
<path d="M189.804 83.3665C191.155 86.5863 189.639 90.2819 186.419 91.6332C183.199 92.9846 179.504 91.4677 178.152 88.2479C176.801 85.0281 178.318 81.3326 181.537 79.9813C184.757 78.6299 188.453 80.1467 189.804 83.3665Z" fill="#231F20"/>
<path d="M183.178 83.9178C183.523 85.0899 182.854 86.3172 181.682 86.6619C180.51 87.0066 179.283 86.3378 178.938 85.1657C178.594 83.9937 179.262 82.7664 180.434 82.4217C181.607 82.077 182.834 82.7457 183.178 83.9178Z" fill="white"/>
<path d="M125.198 470.177C123.358 471.245 95.3033 489.758 97.4337 494.025C99.5642 498.293 137.581 492.936 138.65 489.378C139.719 485.821 132.252 468.75 132.252 468.75L125.198 470.17V470.177Z" fill="#231F20"/>
<path d="M268.051 469.789C269.995 470.658 299.621 487.095 297.939 491.563C296.264 496.03 258.109 493.721 256.675 490.294C255.241 486.867 260.887 469.114 260.887 469.114L268.051 469.789Z" fill="#231F20"/>
<path d="M179.681 166.219C191.071 176.326 203.399 185.469 217.519 191.377C224.441 194.273 231.646 196.121 239.106 196.941C247.035 197.817 255.109 197.19 262.872 195.411C273.062 193.08 282.756 188.62 291.623 183.138C293.877 181.746 294.953 178.54 293.443 176.195C291.981 173.934 288.913 172.879 286.5 174.375C281.977 177.174 277.275 179.67 272.38 181.752C272.787 181.58 273.187 181.408 273.593 181.242C267.305 183.89 260.735 185.827 253.964 186.758C254.412 186.696 254.861 186.634 255.316 186.579C249.428 187.372 243.464 187.385 237.576 186.606C238.024 186.668 238.472 186.723 238.927 186.786C232.487 185.91 226.22 184.097 220.229 181.587C220.636 181.759 221.035 181.925 221.442 182.097C214.41 179.126 207.805 175.244 201.579 170.852C199.772 169.577 198 168.26 196.256 166.915L197.283 167.708C193.712 164.943 190.258 162.034 186.879 159.041C185.866 158.145 184.673 157.552 183.287 157.552C182.039 157.552 180.557 158.104 179.702 159.041C177.93 160.965 177.578 164.337 179.702 166.219H179.681Z" fill="#231F20"/>
<g opacity="0.46">
<path opacity="0.46" d="M76.6797 242.169C72.9773 254.849 70.2401 268.617 74.6113 281.076C76.2385 285.716 78.955 290.149 83.0711 292.838C87.1872 295.527 92.8615 296.148 97.012 293.514C101.666 290.556 103.279 284.599 104.086 279.145C106.106 265.377 105.506 250.698 112.16 238.474C115.786 231.8 119.178 226.408 114.966 219.031C112.215 214.212 107.671 210.826 101.962 211.171C87.0975 212.054 80.1477 230.29 76.6797 242.176V242.169Z" fill="white"/>
</g>
<path d="M146.755 114.772C148.313 113.938 149.954 112.503 149.644 110.766C149.416 109.497 148.168 108.477 148.306 107.195C148.444 105.843 150.182 105.133 151.457 105.602C152.733 106.071 153.553 107.305 154.105 108.546C154.512 109.463 154.822 110.463 154.67 111.455C154.477 112.759 153.505 113.841 152.354 114.496C151.209 115.151 149.899 115.441 148.61 115.709C146.969 116.054 145.073 116.468 143.521 115.689C144.625 115.606 145.748 115.303 146.755 114.765V114.772Z" fill="#FCAE12"/>
<g opacity="0.46">
<path opacity="0.46" d="M10.485 121.997C7.00319 128.698 7.85123 137.799 13.5048 142.805C16.6212 145.556 21.3165 146.845 25.0465 145.011C28.4317 143.349 30.2381 139.682 32.1686 136.441C34.2508 132.932 36.726 129.664 39.539 126.713C42.0762 124.044 45.1099 121.1 44.841 117.426C44.3515 110.69 33.4717 108.063 28.0043 109.056C21.0752 110.317 13.6979 115.805 10.4781 122.004L10.485 121.997Z" fill="white"/>
</g>
<path d="M313.872 172.623C313.603 169.914 312.845 167.094 310.893 165.198C308.942 163.302 305.529 162.716 303.502 164.529C303.02 162.226 303.413 159.827 303.061 157.503C302.709 155.18 301.227 152.705 298.883 152.47C296.628 152.25 294.712 154.249 293.891 156.359C293.071 158.476 292.96 160.806 292.154 162.929C290.74 166.673 287.403 169.279 284.432 171.961C281.46 174.643 278.544 177.994 278.489 182L269.622 190.563C278.427 194.142 288.051 195.707 297.538 195.1C300.917 194.886 304.44 194.335 307.163 192.321C309.259 190.777 310.693 188.488 311.741 186.102C313.582 181.89 314.32 177.201 313.872 172.623Z" fill="#231F20"/>
<path d="M74.2415 240.571C73.4417 236.889 68.8913 232.883 65.637 230.974C66.5953 230.374 67.5675 229.733 68.188 228.788C68.8016 227.843 68.9602 226.499 68.257 225.623C67.733 224.975 66.878 224.706 66.0645 224.534C61.5485 223.569 56.8739 224.417 52.2614 224.637C47.6489 224.858 42.6158 224.286 39.2581 221.114L33.0322 221.238C36.2658 229.381 40.968 236.937 46.8491 243.425C49.5863 246.445 56.4533 250.83 60.2385 252.361C64.0236 253.884 77.3234 254.733 74.2484 240.571H74.2415Z" fill="#231F20"/>
</svg>
