<svg width="227" height="354" viewBox="0 0 227 354" fill="none" xmlns="http://www.w3.org/2000/svg">
<g filter="url(#filter0_d_5_859)">
<path d="M33.2136 67.6458C39.0129 59.5095 50.7076 57.3745 60.2961 60.1875C69.8846 63.0006 77.766 69.752 84.9406 76.7102C93.8655 85.3706 102.204 94.6321 109.874 104.423L109.927 119.291C94.5868 122.114 78.7951 118.397 64.0469 113.323C53.9102 109.832 43.6052 105.418 36.6133 97.2865C29.6215 89.1598 26.9863 76.3784 33.2136 67.6458Z" fill="#B2DEE7"/>
<path d="M103.92 113.723C96.2506 103.937 87.9124 94.6706 78.9874 86.0102C71.8177 79.052 63.9315 72.3006 54.3429 69.4875C46.274 67.1217 36.7287 68.2757 30.4438 73.5461C31.0112 71.4543 31.9201 69.4635 33.2136 67.6458C39.0129 59.5095 50.7076 57.3745 60.2961 60.1875C69.8846 63.0006 77.766 69.752 84.9406 76.7102C93.8655 85.3706 102.204 94.6321 109.874 104.423L109.927 119.291C107.941 119.657 105.94 119.907 103.945 120.065L103.92 113.723Z" fill="#BEEDF4"/>
<path d="M97.0429 131.039L95.9898 119.95C83.6844 113.761 69.268 109.525 56.2172 113.92C53.1204 114.964 50.1246 116.522 47.9126 118.926C42.9645 124.316 43.2097 133.294 47.576 139.166C51.9423 145.037 59.6217 147.874 66.9309 147.533C79.573 146.946 97.8941 130.606 97.0429 131.039Z" fill="#B2DEE7"/>
<path d="M58.0749 122.103C54.9781 123.147 51.9823 124.705 49.7703 127.109C47.3515 129.744 46.183 133.24 46.1205 136.804C43.2305 131.081 43.5863 123.633 47.9093 118.92C50.1165 116.511 53.1171 114.958 56.2139 113.914C69.2695 109.519 83.6811 113.755 95.9865 119.944L96.7126 127.566C84.6621 121.69 70.7313 117.838 58.0749 122.099V122.103Z" fill="#BEEDF4"/>
<path d="M221.561 83.813C217.681 74.6044 206.741 69.964 196.768 70.6084C186.799 71.2528 177.624 76.1192 169.103 81.3366C158.5 87.8331 148.34 95.0461 138.713 102.918L135.404 117.411C149.753 123.523 165.973 123.355 181.476 121.629C192.132 120.441 203.154 118.387 211.756 111.987C220.359 105.587 225.726 93.6901 221.561 83.813Z" fill="#B2DEE7"/>
<path d="M217.655 95.5318C213.775 86.3232 202.835 81.6828 192.862 82.3272C182.893 82.9715 173.718 87.8379 165.197 93.0553C155.142 99.2153 145.491 106.024 136.312 113.425L138.711 102.918C148.338 95.0461 158.499 87.8331 169.102 81.3366C177.623 76.1192 186.793 71.2528 196.766 70.6084C206.735 69.964 217.679 74.6044 221.56 83.813C224.335 90.3961 222.873 97.8688 219.05 104.014C219.223 101.139 218.8 98.2583 217.65 95.5318H217.655Z" fill="#BEEDF4"/>
<path d="M140.669 134.29L142.419 123.288C155.09 117.883 169.742 114.56 182.495 119.772C185.52 121.008 188.414 122.749 190.468 125.293C195.065 130.986 194.257 139.93 189.53 145.513C184.803 151.096 176.96 153.448 169.689 152.649C157.11 151.264 139.852 133.809 140.674 134.295L140.669 134.29Z" fill="#B2DEE7"/>
<path d="M181.163 133.102C179.11 130.563 176.215 128.817 173.19 127.582C163.251 123.523 152.157 124.643 141.746 127.899L142.419 123.658C155.09 118.253 169.742 114.93 182.495 120.143C185.52 121.378 188.414 123.119 190.468 125.663C195.065 131.356 194.257 140.301 189.53 145.883C187.4 148.403 184.63 150.255 181.567 151.466C185.053 145.903 185.284 138.199 181.168 133.102H181.163Z" fill="#BEEDF4"/>
<path d="M151.675 107.769C157.662 108.365 163.471 109.923 169.016 112.246C175.031 114.766 180.619 117.963 185.764 121.979C190.308 125.523 194.434 129.778 197.401 134.746C200.118 139.304 201.873 144.733 201.388 150.085C201.109 153.153 200.291 156.005 198.911 158.76C197.517 161.559 195.521 164.093 193.319 166.3C192.742 166.882 192.141 167.44 191.52 167.978C190.809 168.604 189.986 169.017 189.02 169.017C188.149 169.017 187.115 168.632 186.514 167.978C185.288 166.642 185.028 164.276 186.514 162.973C188.106 161.573 189.582 160.054 190.881 158.38C190.698 158.621 190.51 158.856 190.328 159.097C191.544 157.51 192.583 155.793 193.367 153.947C193.247 154.23 193.131 154.509 193.011 154.793C193.66 153.235 194.117 151.605 194.343 149.931C194.3 150.244 194.256 150.557 194.218 150.874C194.439 149.191 194.429 147.489 194.208 145.806C194.252 146.118 194.295 146.431 194.333 146.748C194.059 144.767 193.501 142.848 192.727 141.007C192.847 141.29 192.963 141.569 193.083 141.853C192.025 139.362 190.597 137.044 188.952 134.9C189.135 135.14 189.323 135.376 189.505 135.616C186.947 132.308 183.894 129.413 180.59 126.855L181.307 127.408C176.729 123.883 171.675 120.988 166.352 118.742C166.635 118.863 166.914 118.978 167.198 119.098C162.423 117.093 157.407 115.593 152.267 114.9C152.579 114.943 152.892 114.982 153.209 115.025C152.7 114.958 152.185 114.9 151.675 114.847C150.714 114.751 149.877 114.516 149.17 113.809C148.555 113.193 148.093 112.188 148.131 111.303C148.208 109.543 149.699 107.567 151.671 107.764L151.675 107.769Z" fill="#231F20"/>
<path d="M156.942 243.177C155.985 249.952 154.773 256.684 153.345 263.378C152.013 269.634 150.493 275.852 148.873 282.036C147.324 287.95 145.684 293.846 144.049 299.736C142.453 305.497 140.866 311.263 139.399 317.062C137.928 322.871 136.577 328.709 135.442 334.59C135.298 335.33 135.158 336.071 135.024 336.811C134.87 337.638 134.1 338.514 133.398 338.927C132.638 339.37 131.523 339.557 130.672 339.283C129.816 339.004 128.989 338.475 128.556 337.658C128.089 336.773 128.017 335.912 128.2 334.931C129.282 329.026 130.595 323.164 132.037 317.336C133.475 311.542 135.043 305.776 136.63 300.02C138.25 294.149 139.895 288.282 141.458 282.396C143.088 276.256 144.631 270.091 146.002 263.888C147.464 257.271 148.724 250.611 149.733 243.912C149.863 243.042 149.993 242.167 150.113 241.297C150.229 240.484 151.065 239.575 151.739 239.181C152.498 238.738 153.614 238.551 154.465 238.825C155.321 239.104 156.148 239.633 156.581 240.45C156.701 240.734 156.817 241.013 156.937 241.297C157.105 241.922 157.105 242.552 156.937 243.177H156.942Z" fill="#231F20"/>
<path d="M72.7336 241.273C72.0507 248.063 71.1034 254.834 69.8003 261.537C68.5837 267.808 67.0545 274.016 65.1936 280.123C63.246 286.518 60.9138 292.784 58.3027 298.939C55.6772 305.137 52.7102 311.192 49.474 317.097C46.0213 323.391 42.2658 329.513 38.2842 335.48C37.76 336.264 37.2311 337.048 36.6973 337.832C36.1732 338.601 35.5 339.207 34.5815 339.457C33.7352 339.693 32.6051 339.587 31.855 339.101C30.3354 338.12 29.4698 335.894 30.5855 334.259C37.2503 324.468 43.3381 314.269 48.4738 303.589C49.8298 300.766 51.1185 297.915 52.3351 295.03C52.2149 295.313 52.0995 295.592 51.9793 295.876C54.4894 289.918 56.6918 283.835 58.5528 277.646C60.3993 271.501 61.914 265.254 63.1162 258.95C63.8039 255.329 64.3905 251.689 64.8858 248.039C64.8425 248.352 64.7992 248.664 64.7608 248.982C65.107 246.419 65.4051 243.851 65.6648 241.273C65.761 240.312 65.9966 239.475 66.7035 238.768C67.319 238.152 68.324 237.691 69.204 237.729C70.964 237.806 72.9403 239.297 72.7432 241.268L72.7336 241.273Z" fill="#231F20"/>
<path d="M143.462 124.676C154.224 129.456 179.916 150.85 182.696 179.942C185.471 209.03 181.883 261.161 121.539 265.21C57.8337 269.48 41.1139 220.105 50.2023 177.658C58.8291 137.362 88.1861 126.734 88.1861 126.734L143.467 124.676H143.462Z" fill="#231F20"/>
<path d="M182.571 178.846C182.504 178.894 182.437 178.942 182.365 178.99C178.912 181.27 175.219 183.222 171.372 184.881C165.866 187.112 160.096 188.718 154.181 189.699C150.738 190.185 147.276 190.435 143.804 190.627C131.854 191.296 119.832 191.334 107.917 190.286C105.426 190.041 102.935 189.757 100.458 189.406C92.6971 188.305 85.0224 186.622 77.67 184.102C73.4239 182.568 69.298 180.75 65.3934 178.582C63.9123 177.759 62.4697 176.879 61.056 175.961C60.9646 175.898 60.8684 175.836 60.777 175.768C60.4741 175.562 60.176 175.35 59.8778 175.138C59.2335 174.682 58.6035 174.215 57.9784 173.734C56.0597 172.263 54.2372 170.69 52.4917 169.051C54.9105 161.463 58.089 155.134 61.5513 149.883C65.9127 153.961 71.183 157.313 76.7852 159.804C85.1811 163.54 94.3513 165.656 103.618 166.627C117.245 168.051 131.296 167.767 144.857 165.738C155.45 164.151 165.914 161.126 174.906 155.846C178.744 162.708 181.605 170.445 182.576 178.846H182.571Z" fill="#FDD615"/>
<path d="M66.61 230.428C77.718 234.174 89.4128 236.04 101.189 236.954C108.667 237.536 116.187 237.651 123.689 237.439C132.686 237.185 141.76 236.622 150.647 235.247C158.682 234.001 166.573 231.953 174.219 229.361C175.281 229 176.339 228.63 177.397 228.245C174.565 235.352 170.511 242.051 164.827 247.759C157.763 249.86 150.541 251.486 143.222 252.649C140.303 253.082 137.375 253.448 134.436 253.731C123.708 254.765 112.879 254.789 102.151 253.856C99.309 253.577 96.4719 253.246 93.6444 252.832C83.4019 251.337 73.3373 248.913 63.619 245.619C58.1755 239.445 54.2613 232.159 51.703 224.259C56.4877 226.644 61.4551 228.688 66.6052 230.424L66.61 230.428Z" fill="#FDD615"/>
<path d="M75.4865 146.845C75.4865 146.845 75.5207 146.869 75.5305 146.874C75.5158 146.864 75.5012 146.855 75.4865 146.845Z" fill="#FDD615"/>
<path d="M162.218 150.24C156.366 152.615 150.182 154.202 143.892 155.217C137.323 156.164 130.639 156.626 124.003 156.808C118.305 156.967 112.602 156.842 106.928 156.352C99.9742 155.65 93.0785 154.356 86.5195 152.134C83.3794 150.99 80.3307 149.634 77.4551 148.004C76.8636 147.667 76.277 147.321 75.6999 146.96C75.4691 146.816 75.2431 146.672 75.0171 146.527C74.0602 145.874 73.1321 145.191 72.2329 144.474C70.8961 143.407 69.6458 142.257 68.4485 141.06C78.388 130.289 88.1929 126.74 88.1929 126.74L143.474 124.682C149.504 127.36 160.217 135.256 168.964 146.797C166.805 148.085 164.545 149.23 162.218 150.249V150.24Z" fill="#FDD615"/>
<path d="M121.705 265.114C122.229 265.104 122.758 265.08 123.282 265.066C122.705 265.114 122.133 265.167 121.546 265.205C112.823 265.792 104.985 265.364 97.9693 264.089C105.846 264.94 113.795 265.282 121.705 265.114Z" fill="#FDD615"/>
<path d="M179.84 215.825C169.703 220.028 158.961 223.221 148.002 224.976C144.342 225.495 140.654 225.818 136.966 226.101C124.319 227.078 111.566 227.284 98.9387 226.169C96.4622 225.923 93.9953 225.64 91.5381 225.279C83.7432 224.149 76.0638 222.389 68.6824 219.845C65.2875 218.619 61.9647 217.234 58.7381 215.676C55.2374 213.983 51.8713 212.079 48.5918 210.055C47.4136 200.596 47.808 190.719 49.5295 181.111C54.242 184.804 59.4594 187.993 64.9846 190.546C75.2319 195.283 86.465 198.148 97.7942 199.745C114.831 202.149 132.45 202.322 149.622 200.88C161.418 199.889 173.113 196.586 183.336 191.051C183.466 198.625 182.97 206.944 181.268 215.195C180.792 215.407 180.321 215.614 179.845 215.82L179.84 215.825Z" fill="#FDD615"/>
<path d="M145.873 100.403C145.873 100.403 156.337 110.473 155.616 123.225C154.894 135.978 141.185 147.052 120.979 145.711C100.773 144.369 85.0483 131.794 87.2843 116.801C90.4436 95.6379 102.201 96.7103 102.201 96.7103L145.873 100.403Z" fill="#231F20"/>
<path d="M122.83 15.2694C142.983 14.6684 169.763 28.3827 173.951 53.2436C177.567 74.7048 168.378 103.504 126.696 107.332C92.2227 110.501 73.9593 90.7561 73.1322 66.7512C72.2089 39.9284 88.2074 16.3081 122.83 15.2694Z" fill="#FDD615"/>
<path d="M73.1663 68.3431C73.1422 67.7901 73.1134 67.2419 73.1037 66.6841C72.6758 39.8469 88.179 16.241 122.806 15.2024C142.959 14.5965 169.739 28.3156 173.927 53.1765C175.25 61.0147 174.86 69.8242 171.807 78.047H171.711C174.461 65.9676 171.129 52.9072 156.948 48.1755C140.094 42.5493 122.749 56.5089 122.749 56.5089C122.749 56.5089 109.823 38.9332 91.0882 43.2418C71.5217 47.7427 73.1759 68.3575 73.1759 68.3575V68.3431H73.1663Z" fill="#231F20"/>
<path d="M67.2861 4.52246C70.8012 5.32551 73.999 7.15762 76.9323 9.24459C83.4769 13.8946 89.0165 19.9487 93.0751 26.878L93.5415 29.7632C92.6904 32.1724 89.8196 33.6631 87.3575 32.9754C86.8671 32.8408 86.3862 32.6196 86.0303 32.2541C85.5206 31.73 85.3331 30.9798 85.1455 30.273C82.4767 20.2565 75.3983 11.5047 66.1609 6.80659C65.5934 6.51806 64.9346 6.11894 64.9298 5.4842C64.9202 4.49842 66.3292 4.30126 67.2861 4.51765V4.52246Z" fill="#231F20"/>
<path d="M60.55 5.68628C60.776 8.59072 63.315 10.7594 66.2194 10.5286C69.1239 10.3026 71.2926 7.76363 71.0618 4.85919C70.8358 1.95474 68.2968 -0.213975 65.3923 0.016842C62.4879 0.24285 60.3192 2.78183 60.55 5.68628Z" fill="#231F20"/>
<path d="M183.136 16.9045C183.362 19.809 185.901 21.9777 188.805 21.7469C191.71 21.5209 193.878 18.9819 193.647 16.0774C193.421 13.173 190.882 11.0043 187.978 11.2351C185.074 11.4611 182.905 14.0001 183.136 16.9045Z" fill="#231F20"/>
<path d="M187.396 15.1114C183.794 15.1931 180.293 16.3472 177 17.8043C169.657 21.0501 163.016 25.8732 157.654 31.8504L156.62 34.5818C156.971 37.1159 159.481 39.15 162.035 38.9673C162.545 38.9336 163.059 38.8134 163.478 38.5297C164.083 38.121 164.415 37.4237 164.742 36.7649C169.359 27.4889 178.053 20.3288 188.045 17.5783C188.656 17.41 189.382 17.1503 189.517 16.53C189.723 15.5682 188.382 15.0922 187.401 15.1114H187.396Z" fill="#231F20"/>
<path d="M155.295 51.5656C154.79 51.5896 154.265 51.6858 153.857 51.9839C153.448 52.2821 153.184 52.8206 153.328 53.3063C153.539 54.0084 154.41 54.2248 155.136 54.3258C155.66 54.4027 156.184 54.4748 156.713 54.5518C157.228 54.6239 157.761 54.7056 158.209 54.9701C158.848 55.3548 159.8 57.0138 160.724 56.5041C161.541 56.0569 161.002 54.8066 160.651 54.2584C159.541 52.5321 157.329 51.4598 155.299 51.5608L155.295 51.5656Z" fill="#231F20"/>
<path d="M95.2805 45.858C95.771 45.983 96.2615 46.185 96.6077 46.5552C96.9491 46.9303 97.103 47.5122 96.8626 47.9546C96.5116 48.5989 95.6219 48.6374 94.891 48.5941C94.3621 48.5605 93.8331 48.5316 93.3042 48.4979C92.7848 48.4643 92.2463 48.4402 91.7558 48.6134C91.0537 48.8634 89.789 50.2964 88.986 49.6136C88.2743 49.0125 89.0533 47.8969 89.5053 47.4304C90.9383 45.959 93.3186 45.3483 95.2902 45.8532L95.2805 45.858Z" fill="#231F20"/>
<path d="M128.768 93.444C139.611 91.3763 142.727 84.3268 142.881 83.9565C143.035 83.5959 142.867 83.1823 142.506 83.0284C142.145 82.8746 141.732 83.0429 141.578 83.4035C141.535 83.5045 137.082 93.5691 119.891 92.5112C103.517 91.5013 101.132 79.8691 101.108 79.7537C101.036 79.369 100.666 79.119 100.281 79.1911C99.8964 79.2632 99.6463 79.6335 99.7185 80.0182C99.7425 80.148 102.344 92.8478 119.804 93.9249C123.257 94.1365 126.229 93.9249 128.768 93.444Z" fill="#231F20"/>
<path d="M101.267 77.6336C100.06 77.2729 98.7234 77.6961 97.9155 78.6915C97.7665 78.879 97.4443 78.8502 97.2904 78.6915C97.1077 78.5088 97.1413 78.2539 97.2904 78.0664C98.2714 76.8498 100.007 76.3352 101.503 76.7824C102.046 76.9459 101.815 77.8019 101.267 77.6336Z" fill="#231F20"/>
<path d="M145.164 83.8559C145.145 83.7694 145.121 83.6828 145.092 83.6011C145.078 83.5578 145.063 83.5193 145.049 83.476C145.044 83.4616 145.039 83.4472 145.035 83.4376C145.049 83.4712 145.049 83.4712 145.035 83.4376C144.962 83.2837 144.886 83.1394 144.789 82.9952C144.77 82.9663 144.746 82.9375 144.727 82.9038C144.712 82.8846 144.703 82.8702 144.688 82.8509C144.708 82.875 144.708 82.8798 144.688 82.8509C144.635 82.7884 144.583 82.7259 144.53 82.6682C144.467 82.6057 144.405 82.5432 144.337 82.4855C144.308 82.4614 144.28 82.4374 144.256 82.4133C144.236 82.3989 144.222 82.3845 144.203 82.3701C144.227 82.3893 144.232 82.3893 144.203 82.3701C144.073 82.2739 143.938 82.1873 143.794 82.1104C143.722 82.0719 143.65 82.0383 143.578 82.0046C143.65 82.0334 143.534 81.9854 143.52 81.9805C143.477 81.9661 143.438 81.9517 143.395 81.9373C143.241 81.8892 143.087 81.8507 142.924 81.8267C143.01 81.8411 142.871 81.8219 142.866 81.8219C142.823 81.8219 142.779 81.8171 142.736 81.8122C142.649 81.8122 142.558 81.8122 142.472 81.8122C142.231 81.8219 142.029 81.6007 142.029 81.3699C142.029 81.1198 142.231 80.9371 142.472 80.9274C144.082 80.8553 145.645 82.0383 146.016 83.6059C146.068 83.8367 145.943 84.0868 145.708 84.1493C145.482 84.2118 145.217 84.0723 145.164 83.8415V83.8559Z" fill="#231F20"/>
<path d="M146.526 112.241C148.411 114.761 148.94 118.233 147.891 121.2C147.199 123.152 145.795 124.922 143.871 125.701C141.953 126.48 139.519 126.095 138.168 124.523C136.553 122.647 136.812 119.796 135.697 117.589C135.095 116.396 134.115 115.439 133.446 114.28C131.518 110.948 134.725 108.717 137.832 108.289C141.001 107.856 144.66 109.741 146.531 112.237L146.526 112.241Z" fill="#594F59"/>
<path d="M160.761 34.6866C161.597 35.9561 162.362 37.4179 162.16 38.9278C161.891 40.9619 159.832 42.4286 157.779 42.5392C155.731 42.6498 153.759 41.6736 152.148 40.3993C150.537 39.125 149.196 37.5477 147.671 36.1773C144.993 33.7681 141.737 31.9985 138.256 31.0608C136.895 30.6954 135.486 30.4501 134.226 29.8202C132.966 29.1903 131.846 28.0746 131.654 26.6801C130.807 20.4529 141.843 19.7412 145.565 21.8378C151.259 25.0452 157.125 29.171 160.756 34.6914L160.761 34.6866Z" fill="#594F59"/>
<path d="M191.696 17.5736C191.099 18.4488 189.859 18.9056 188.916 18.4199C188.604 18.2613 188.344 18.0112 188.132 17.7323C186.901 16.131 187.628 13.0054 189.897 12.7072C192.215 12.4043 192.653 16.1647 191.696 17.5736Z" fill="#594F59"/>
<path d="M66.6889 5.88807C66.0926 6.76325 64.852 7.22008 63.9095 6.7344C63.5969 6.57571 63.3372 6.32566 63.1256 6.04676C61.8946 4.44546 62.6207 1.31982 64.8904 1.02168C67.2082 0.718735 67.6458 4.47913 66.6889 5.88807Z" fill="#594F59"/>
<path d="M149.639 57.7493C150.029 57.3983 150.462 57.0857 150.947 56.8885C151.577 56.6289 152.27 56.5712 152.952 56.5471C154.679 56.4798 156.468 56.6289 158.011 57.4127C159.555 58.1965 160.805 59.7257 160.867 61.452C160.896 62.2358 160.685 63.01 160.387 63.7361C159.233 66.554 156.689 68.7612 153.741 69.5065L155.073 67.6119C155.044 67.1936 154.419 67.2464 154.02 67.3763C151.688 68.1409 148.942 66.7175 147.995 64.4574C147.047 62.1925 147.826 59.4035 149.644 57.7541L149.639 57.7493Z" fill="#FCAE12"/>
<path d="M87.3563 54.9655C87.5246 54.4702 87.7554 53.9894 88.0872 53.5806C88.5152 53.0517 89.0922 52.6622 89.6789 52.3111C91.16 51.4167 92.7997 50.6858 94.526 50.6233C96.2523 50.5656 98.0893 51.2965 98.9789 52.7824C99.3828 53.4556 99.5703 54.2346 99.6617 55.0136C100.013 58.0383 98.8539 61.1976 96.6274 63.2749L96.8775 60.9716C96.6467 60.6205 96.1273 60.9716 95.8436 61.2745C94.1702 63.0682 91.0782 63.1499 89.1596 61.6304C87.2361 60.106 86.5725 57.2833 87.3659 54.9655H87.3563Z" fill="#FCAE12"/>
<path d="M149.173 63.0291C147.865 65.0825 148.466 67.8042 150.515 69.1121C152.563 70.4201 155.29 69.819 156.598 67.7705C157.906 65.722 157.305 62.9955 155.256 61.6875C153.203 60.3796 150.481 60.9807 149.173 63.0291Z" fill="#231F20"/>
<path d="M153.659 64.1981C153.284 64.9626 153.596 65.8859 154.361 66.261C155.125 66.6361 156.049 66.3235 156.424 65.5589C156.799 64.7943 156.486 63.8711 155.722 63.496C154.957 63.1209 154.034 63.4335 153.659 64.1981Z" fill="white"/>
<path d="M90.6204 58.1441C89.6779 60.3897 90.7358 62.9672 92.9814 63.9097C95.2271 64.8522 97.8045 63.7943 98.747 61.5486C99.6895 59.3029 98.6316 56.7255 96.386 55.783C94.1403 54.8405 91.5629 55.8984 90.6204 58.1441Z" fill="#231F20"/>
<path d="M95.2419 58.5286C95.0015 59.346 95.4679 60.202 96.2854 60.4424C97.1029 60.6829 97.9588 60.2164 98.1992 59.3989C98.4397 58.5815 97.9732 57.7255 97.1558 57.4851C96.3383 57.2446 95.4823 57.7111 95.2419 58.5286Z" fill="white"/>
<path d="M135.68 327.926C136.964 328.671 156.53 341.582 155.044 344.559C153.558 347.535 127.043 343.799 126.298 341.318C125.553 338.836 130.76 326.93 130.76 326.93L135.68 327.921V327.926Z" fill="#231F20"/>
<path d="M36.0477 327.656C34.6917 328.262 14.0288 339.726 15.2021 342.842C16.3706 345.958 42.9819 344.347 43.9821 341.957C44.9823 339.567 41.044 327.185 41.044 327.185L36.0477 327.656Z" fill="#231F20"/>
<path d="M97.6808 115.93C89.7368 122.979 81.1389 129.356 71.2907 133.477C66.4628 135.496 61.4377 136.785 56.2347 137.357C50.7048 137.968 45.0738 137.53 39.6592 136.29C32.552 134.664 25.791 131.553 19.607 127.73C18.0346 126.759 17.2844 124.523 18.3375 122.888C19.357 121.311 21.4968 120.575 23.1799 121.618C26.3344 123.571 29.6139 125.312 33.028 126.764C32.7443 126.644 32.4654 126.523 32.1817 126.408C36.5672 128.254 41.1499 129.606 45.872 130.255C45.5595 130.212 45.2469 130.168 44.9295 130.13C49.0361 130.683 53.1957 130.692 57.3023 130.149C56.9897 130.192 56.6771 130.231 56.3598 130.274C60.8511 129.663 65.2222 128.399 69.4009 126.648C69.1172 126.769 68.8383 126.884 68.5546 127.004C73.4594 124.932 78.0662 122.224 82.4084 119.161C83.6683 118.272 84.9041 117.353 86.1207 116.415L85.4042 116.968C87.8951 115.04 90.3043 113.011 92.6605 110.924C93.3674 110.299 94.1993 109.885 95.1658 109.885C96.0362 109.885 97.0701 110.27 97.6663 110.924C98.9022 112.266 99.1474 114.617 97.6663 115.93H97.6808Z" fill="#231F20"/>
<g opacity="0.46">
<path opacity="0.46" d="M169.52 168.902C172.102 177.745 174.011 187.348 170.962 196.037C169.827 199.273 167.933 202.365 165.062 204.241C162.191 206.116 158.234 206.549 155.339 204.712C152.093 202.649 150.968 198.494 150.405 194.691C148.996 185.088 149.414 174.85 144.774 166.324C142.245 161.67 139.879 157.909 142.817 152.764C144.736 149.403 147.905 147.042 151.886 147.282C162.254 147.897 167.101 160.616 169.52 168.907V168.902Z" fill="white"/>
</g>
<path d="M120.645 80.048C119.559 79.4661 118.414 78.4659 118.631 77.2541C118.789 76.3694 119.66 75.6577 119.563 74.7633C119.467 73.8208 118.255 73.3255 117.366 73.6525C116.476 73.9794 115.904 74.8402 115.519 75.7058C115.236 76.3453 115.019 77.0426 115.125 77.735C115.26 78.6439 115.938 79.3988 116.741 79.8556C117.539 80.3125 118.453 80.5144 119.352 80.702C120.496 80.9424 121.819 81.2309 122.901 80.6875C122.131 80.6298 121.347 80.4183 120.645 80.0432V80.048Z" fill="#FCAE12"/>
<g opacity="0.46">
<path opacity="0.46" d="M215.688 85.0869C218.116 89.761 217.525 96.1084 213.581 99.5995C211.408 101.518 208.133 102.417 205.532 101.138C203.171 99.9794 201.911 97.4212 200.564 95.1611C199.112 92.7135 197.386 90.4342 195.424 88.376C193.654 86.5151 191.538 84.4618 191.726 81.8988C192.067 77.2007 199.656 75.3686 203.469 76.061C208.302 76.941 213.447 80.7687 215.692 85.0917L215.688 85.0869Z" fill="white"/>
</g>
<path d="M4.08929 120.397C4.27683 118.507 4.80578 116.54 6.16663 115.218C7.52749 113.895 9.90779 113.486 11.3215 114.751C11.6581 113.145 11.3841 111.472 11.6293 109.851C11.8745 108.231 12.9084 106.504 14.5434 106.341C16.1158 106.187 17.4526 107.581 18.0248 109.053C18.5971 110.529 18.674 112.154 19.2366 113.636C20.2224 116.247 22.5498 118.064 24.6224 119.935C26.6949 121.805 28.729 124.142 28.7674 126.936L34.9514 132.909C28.8107 135.404 22.0978 136.496 15.4811 136.073C13.1248 135.924 10.6676 135.539 8.76813 134.135C7.30629 133.058 6.3061 131.461 5.57517 129.798C4.29126 126.859 3.77673 123.59 4.08929 120.397Z" fill="#231F20"/>
<path d="M171.22 167.787C171.778 165.219 174.952 162.425 177.221 161.093C176.553 160.675 175.875 160.228 175.442 159.569C175.014 158.91 174.904 157.972 175.394 157.362C175.76 156.91 176.356 156.722 176.923 156.602C180.073 155.929 183.333 156.52 186.55 156.674C189.767 156.828 193.278 156.429 195.619 154.217L199.962 154.303C197.706 159.982 194.427 165.253 190.325 169.778C188.416 171.884 183.627 174.942 180.987 176.01C178.347 177.072 169.071 177.664 171.215 167.787H171.22Z" fill="#231F20"/>
</g>
<defs>
<filter id="filter0_d_5_859" x="0.000244141" y="0" width="227" height="353.659" filterUnits="userSpaceOnUse" color-interpolation-filters="sRGB">
<feFlood flood-opacity="0" result="BackgroundImageFix"/>
<feColorMatrix in="SourceAlpha" type="matrix" values="0 0 0 0 0 0 0 0 0 0 0 0 0 0 0 0 0 0 127 0" result="hardAlpha"/>
<feOffset dy="4"/>
<feGaussianBlur stdDeviation="2"/>
<feComposite in2="hardAlpha" operator="out"/>
<feColorMatrix type="matrix" values="0 0 0 0 0 0 0 0 0 0 0 0 0 0 0 0 0 0 0.25 0"/>
<feBlend mode="normal" in2="BackgroundImageFix" result="effect1_dropShadow_5_859"/>
<feBlend mode="normal" in="SourceGraphic" in2="effect1_dropShadow_5_859" result="shape"/>
</filter>
</defs>
</svg>
