<svg width="389" height="318" viewBox="0 0 389 318" fill="none" xmlns="http://www.w3.org/2000/svg">
<g filter="url(#filter0_d_4_255)">
<path d="M351.333 129.471C337.972 118.532 317.495 120.268 302.772 129.299C288.05 138.338 277.96 153.169 269.145 168.024C258.18 186.513 248.474 205.743 240.103 225.545L246.749 250.373C273.619 248.134 298.274 234.785 320.58 219.632C335.915 209.219 351.1 197.181 359.08 180.455C367.061 163.729 365.661 141.214 351.322 129.465L351.333 129.471Z" fill="#B2DEE7"/>
<path d="M254.261 238.375C262.623 218.575 272.336 199.334 283.303 180.854C292.118 165.999 302.206 151.159 316.93 142.129C329.318 134.526 345.772 132.128 358.64 138.072C356.741 134.842 354.328 131.928 351.347 129.486C337.986 118.547 317.51 120.283 302.786 129.314C288.065 138.353 277.974 153.184 269.16 168.039C258.194 186.528 248.488 205.758 240.118 225.56L246.763 250.387C250.244 250.094 253.692 249.616 257.096 248.974L254.264 238.383L254.261 238.375Z" fill="#BEEDF4"/>
<path d="M273.578 264.141L270.311 245.164C288.034 229.265 310.162 215.667 333.927 217.083C339.562 217.421 345.273 218.655 350.05 221.676C360.742 228.431 364.407 243.519 359.778 255.29C355.149 267.06 343.632 275.273 331.282 278.019C309.921 282.763 271.965 263.812 273.578 264.141Z" fill="#B2DEE7"/>
<path d="M334.534 231.583C340.169 231.921 345.88 233.155 350.657 236.176C355.882 239.481 359.418 244.777 361.14 250.699C363.374 239.843 359.4 227.58 350.051 221.676C345.275 218.663 339.571 217.419 333.927 217.083C310.16 215.659 288.032 229.257 270.311 245.164L272.557 258.205C289.993 242.939 311.494 230.208 334.534 231.583Z" fill="#BEEDF4"/>
<path d="M44.4518 241.772C46.7572 224.657 62.9064 211.952 79.8267 208.512C96.7552 205.069 114.258 209.031 130.839 213.879C151.468 219.909 171.694 227.345 191.323 236.115L203.404 258.796C182.242 275.497 155.096 282.561 128.452 286.704C110.137 289.554 90.8209 291.116 73.5744 284.334C56.3279 277.552 41.984 260.138 44.4518 241.772Z" fill="#B2DEE7"/>
<path d="M56.2786 259.552C58.5839 242.437 74.7332 229.732 91.6535 226.292C108.582 222.849 126.085 226.811 142.663 231.651C162.23 237.37 181.412 244.367 200.077 252.543L191.319 236.098C171.691 227.328 151.475 219.899 130.835 213.862C114.255 209.015 96.7537 205.06 79.823 208.495C62.8945 211.938 46.7452 224.643 44.4481 241.755C42.8014 253.994 48.6225 265.791 57.7859 274.318C56.1947 269.595 55.5966 264.602 56.2741 259.536L56.2786 259.552Z" fill="#BEEDF4"/>
<path d="M202.266 289.324L194.369 271.764C170.787 268.491 144.83 269.583 125.925 284.05C121.437 287.481 117.4 291.697 115.13 296.87C110.035 308.45 115.441 323.003 125.859 330.177C136.276 337.35 150.424 337.72 162.191 333.088C182.551 325.082 203.427 288.145 202.275 289.322L202.266 289.324Z" fill="#B2DEE7"/>
<path d="M134.172 305.692C136.442 300.519 140.487 296.301 144.967 292.872C159.707 281.599 178.731 278.442 197.572 279.15L194.526 272.381C170.944 269.109 144.988 270.2 126.083 284.667C121.594 288.098 117.558 292.314 115.287 297.487C110.192 309.067 115.599 323.62 126.016 330.794C130.711 334.031 136.172 335.87 141.825 336.503C133.485 328.8 129.617 316.05 134.178 305.682L134.172 305.692Z" fill="#BEEDF4"/>
<path d="M175.897 263.296C160.94 270.072 146.912 279.557 136.184 292.103C125.844 304.2 118.718 318.588 114.741 333.962C112.316 343.301 111.007 352.954 110.411 362.572C110.214 365.772 113.34 368.844 116.504 368.717C119.982 368.574 122.431 366.041 122.649 362.624C122.891 358.777 123.249 354.935 123.761 351.112C123.691 351.633 123.624 352.163 123.546 352.686C124.926 342.485 127.366 332.419 131.291 322.893C131.097 323.378 130.892 323.856 130.697 324.341C133.754 316.972 137.678 310.001 142.488 303.637C142.171 304.058 141.86 304.468 141.54 304.881C146.453 298.409 152.225 292.629 158.61 287.617C158.196 287.941 157.773 288.267 157.361 288.599C164.957 282.659 173.345 277.816 182.128 273.845C183.438 273.251 184.558 271.501 184.919 270.17C185.315 268.705 185.121 266.757 184.284 265.46C183.436 264.157 182.175 263.019 180.608 262.669C178.909 262.284 177.477 262.594 175.899 263.304L175.897 263.296Z" fill="#333333"/>
<path d="M193.251 274.561C177.468 287.413 144.291 334.741 152.834 384.531C161.385 434.319 190.986 519.66 293.491 499.067C401.695 477.331 407.221 387.376 372.835 320.696C340.19 257.376 286.404 252.956 286.404 252.956L193.253 274.569L193.251 274.561Z" fill="#333333"/>
<path d="M152.553 382.651C152.688 382.694 152.828 382.753 152.962 382.795C159.756 385.031 166.805 386.615 173.968 387.648C184.162 388.872 194.518 388.941 204.838 387.902C210.803 387.154 216.685 385.997 222.568 384.752C242.807 380.454 262.874 375.066 282.278 367.92C286.33 366.387 290.345 364.786 294.321 363.071C306.765 357.718 318.814 351.432 329.935 343.899C336.323 339.415 342.386 334.516 347.912 329.129C350.008 327.08 352.016 324.966 353.963 322.789C354.09 322.64 354.217 322.491 354.344 322.342C354.751 321.861 355.156 321.372 355.56 320.883C356.42 319.83 357.267 318.763 358.093 317.684C360.628 314.36 362.959 310.907 365.131 307.383C357.656 295.823 349.485 286.7 341.337 279.51C335.913 288.289 328.632 296.267 320.422 302.965C308.106 313.008 293.766 320.692 278.751 326.506C256.662 335.06 233.093 340.95 209.552 343.703C191.162 345.851 172.334 345.544 154.947 340.81C151.654 353.998 150.392 368.203 152.572 382.655L152.553 382.651Z" fill="#FFD60A"/>
<path d="M316.699 280.746C316.699 280.746 316.651 280.804 316.637 280.817C316.657 280.793 316.678 280.77 316.699 280.746Z" fill="#FFD60A"/>
<path d="M173.552 325.702C184.388 327.016 195.422 326.857 206.379 325.697C217.766 324.306 229.119 322.042 240.273 319.339C249.849 317.021 259.313 314.23 268.546 310.841C279.824 306.518 290.745 301.235 300.68 294.562C305.397 291.228 309.87 287.58 313.934 283.56C314.775 282.732 315.594 281.884 316.391 281.024C316.713 280.681 317.023 280.333 317.336 279.992C318.632 278.468 319.873 276.906 321.05 275.3C322.799 272.912 324.362 270.426 325.815 267.89C304.346 254.42 286.381 252.945 286.381 252.945L193.231 274.558C184.389 281.754 170.091 299.781 160.727 322.999C164.914 324.171 169.201 325.06 173.542 325.697L173.552 325.702Z" fill="#FFD60A"/>
<path d="M178.232 235.157C178.232 235.157 165.335 256.69 172.321 277.644C179.305 298.59 207.197 310.853 240.296 299.458C273.396 288.064 293.938 259.959 283.412 235.965C268.554 202.088 249.424 209.204 249.424 209.204L178.238 235.146L178.232 235.157Z" fill="#333333"/>
<path d="M151.984 92.4594C120.218 106.788 88.9938 148.386 101.315 190.188C111.954 226.278 148.044 264.057 215.721 238.433C271.69 217.241 285.115 172.73 268.213 134.798C249.327 92.4177 206.572 67.8349 151.992 92.4572L151.984 92.4594Z" fill="#FFD60A"/>
<path d="M269.358 137.299C268.98 136.423 268.609 135.546 268.195 134.671C248.526 92.6528 206.554 67.7076 151.974 92.3299C120.209 106.658 88.9843 148.257 101.306 190.058C105.193 203.235 112.472 216.637 123.447 227.096L123.594 227.021C110.172 210.343 105.455 187.521 123.903 169.424C145.831 147.915 183.361 156.467 183.361 156.467C183.361 156.467 190.135 119.368 222.505 111.872C256.316 104.039 269.367 137.332 269.367 137.332L269.36 137.307L269.358 137.299Z" fill="#333333"/>
<path d="M230.158 33.6778C225.306 37.5864 221.722 42.8517 218.74 48.3235C212.091 60.5106 208.066 74.1178 207.021 87.9556L208.485 92.7929C211.636 95.8941 217.217 96.0351 220.527 93.1005C221.188 92.5157 221.764 91.8129 222.04 90.98C222.437 89.7795 222.161 88.4709 221.921 87.2316C218.477 69.6512 222.854 50.6873 233.644 36.3885C234.305 35.5127 235.023 34.3924 234.559 33.3991C233.833 31.8602 231.492 32.6193 230.169 33.6838L230.158 33.6778Z" fill="#333333"/>
<path d="M241.489 30.3893C243.333 35.0704 241.034 40.3655 236.353 42.2096C231.672 44.0537 226.377 41.755 224.533 37.0739C222.689 32.3928 224.987 27.0978 229.668 25.2537C234.349 23.4096 239.644 25.7082 241.489 30.3893Z" fill="#333333"/>
<path d="M59.5201 140.676C61.3642 145.358 59.0656 150.653 54.3845 152.497C49.7034 154.341 44.4084 152.042 42.5643 147.361C40.7202 142.68 43.0188 137.385 47.6999 135.541C52.381 133.697 57.676 135.995 59.5201 140.676Z" fill="#333333"/>
<path d="M51.5399 141.117C57.2042 138.512 63.5103 137.655 69.7405 137.426C83.6106 136.902 97.5864 139.364 110.438 144.598L114.11 148.06C115.48 152.262 113.119 157.327 109.02 158.978C108.202 159.306 107.315 159.511 106.443 159.387C105.188 159.208 104.143 158.381 103.14 157.605C88.9371 146.683 70.0091 142.147 52.3968 145.441C51.3157 145.646 49.9961 145.784 49.3122 144.921C48.2619 143.585 49.9779 141.823 51.5295 141.111L51.5399 141.117Z" fill="#333333"/>
<path d="M129.042 173.448C129.848 173.106 130.732 172.857 131.593 173.011C132.455 173.165 133.281 173.804 133.418 174.666C133.616 175.916 132.434 176.916 131.383 177.624C130.624 178.139 129.865 178.654 129.106 179.168C128.361 179.67 127.596 180.195 127.106 180.954C126.403 182.035 126.179 185.33 124.358 185.243C122.751 185.168 122.642 182.818 122.77 181.7C123.187 178.176 125.812 174.828 129.042 173.448Z" fill="#231F20"/>
<path d="M217.959 119.108C217.293 119.677 216.676 120.355 216.429 121.198C216.182 122.041 216.388 123.06 217.097 123.563C218.125 124.298 219.545 123.683 220.646 123.067C221.442 122.621 222.244 122.166 223.047 121.718C223.835 121.275 224.647 120.826 225.536 120.725C226.818 120.58 229.869 121.849 230.607 120.185C231.256 118.714 229.206 117.56 228.145 117.188C224.805 115.989 220.64 116.846 217.961 119.116L217.959 119.108Z" fill="#231F20"/>
<path d="M201.976 218.424C183.558 223.426 173.38 214.83 172.86 214.372C172.351 213.928 172.301 213.158 172.742 212.641C173.186 212.133 173.964 212.08 174.473 212.524C174.614 212.653 189.155 224.92 215.07 210.241C239.747 196.26 234.642 176.39 234.588 176.193C234.412 175.545 234.793 174.869 235.449 174.69C236.098 174.514 236.774 174.895 236.952 175.551C237.01 175.765 242.596 197.469 216.275 212.373C211.073 215.319 206.299 217.241 201.982 218.413L201.976 218.424Z" fill="#231F20"/>
<path d="M232.776 172.985C234.307 171.582 236.711 171.185 238.608 172.071C238.981 172.243 239.435 172.163 239.651 171.787C239.842 171.454 239.74 170.917 239.367 170.745C236.824 169.559 233.749 170.015 231.683 171.915C230.956 172.58 232.051 173.658 232.776 172.985Z" fill="#231F20"/>
<path d="M169.216 215.882C169.198 215.816 169.178 215.743 169.169 215.675C169.162 215.65 169.132 215.411 169.138 215.498C169.146 215.593 169.132 215.376 169.127 215.36C169.126 215.29 169.116 215.222 169.115 215.152C169.11 215.003 169.111 214.844 169.124 214.7C169.131 214.627 169.13 214.557 169.139 214.493C169.138 214.458 169.173 214.263 169.151 214.41C169.199 214.133 169.258 213.861 169.343 213.592C169.386 213.457 169.429 213.322 169.482 213.193C169.423 213.332 169.503 213.143 169.521 213.111C169.555 213.041 169.594 212.959 169.628 212.888C170.148 211.884 170.842 211.193 171.922 210.723C172.3 210.559 172.386 209.998 172.192 209.672C171.961 209.276 171.527 209.236 171.14 209.402C168.561 210.517 167.119 213.579 167.731 216.286C167.819 216.676 168.289 216.945 168.67 216.824C169.076 216.696 169.303 216.299 169.208 215.884L169.216 215.882Z" fill="#231F20"/>
<path d="M182.82 262.437C180.818 267.493 181.514 273.526 184.606 278.001C186.64 280.947 189.796 283.254 193.349 283.681C196.902 284.109 200.782 282.367 202.328 279.136C204.171 275.278 202.443 270.636 203.306 266.445C203.768 264.187 204.974 262.14 205.567 259.909C207.275 253.478 200.912 251.205 195.541 251.906C190.06 252.619 184.809 257.429 182.82 262.437Z" fill="#594F59"/>
<path d="M107.76 151.353C107.421 153.965 107.346 156.806 108.798 159.003C110.755 161.961 115.065 162.676 118.338 161.294C121.611 159.911 123.931 156.902 125.468 153.7C127.004 150.498 127.895 147.03 129.224 143.744C131.56 137.971 135.282 132.757 139.977 128.662C141.816 127.061 143.819 125.609 145.294 123.675C146.77 121.741 147.673 119.16 146.912 116.846C143.51 106.525 125.827 113.777 121.627 119.862C115.207 129.158 109.221 140.019 107.756 151.336L107.76 151.353Z" fill="#594F59"/>
<path d="M46.7237 148.206C48.3101 149.115 50.5913 148.883 51.6819 147.415C52.0435 146.929 52.2567 146.351 52.3767 145.755C53.0688 142.332 49.5796 138.019 45.8337 139.283C42.0058 140.569 44.1772 146.748 46.7237 148.206Z" fill="#594F59"/>
<path d="M232.111 35.351C233.697 36.2597 235.978 36.028 237.069 34.5597C237.43 34.0737 237.644 33.4959 237.764 32.8993C238.456 29.477 234.966 25.1634 231.221 26.4274C227.393 27.7137 229.564 33.8922 232.111 35.351Z" fill="#594F59"/>
<path d="M142.509 178.772C141.637 178.515 140.732 178.364 139.824 178.426C138.648 178.507 137.521 178.937 136.444 179.414C133.704 180.617 131.041 182.203 129.239 184.588C127.436 186.972 126.647 190.297 127.864 193.025C128.411 194.26 129.329 195.306 130.342 196.212C134.265 199.72 139.888 201.216 145.043 200.142L141.538 198.203C141.266 197.528 142.28 197.138 142.993 197.041C147.199 196.463 150.386 192.169 150.146 187.943C149.904 183.708 146.577 179.958 142.509 178.772Z" fill="#FCAE12"/>
<path d="M237.171 127.259C236.529 126.614 235.81 126.042 234.993 125.665C233.923 125.163 232.733 125.001 231.559 124.897C228.579 124.631 225.478 124.733 222.75 125.949C220.023 127.166 217.73 129.692 217.472 132.67C217.355 134.024 217.653 135.38 218.104 136.65C219.848 141.614 224.046 145.647 229.074 147.189L226.946 143.801C227.033 143.082 228.113 143.229 228.782 143.488C232.739 145.013 237.609 142.792 239.436 138.973C241.271 135.152 240.172 130.26 237.179 127.257L237.171 127.259Z" fill="#FCAE12"/>
<path d="M147.231 186.62C150.815 188.819 151.946 193.5 149.749 197.093C147.55 200.678 142.869 201.808 139.276 199.611C135.691 197.412 134.561 192.731 136.758 189.138C138.957 185.553 143.638 184.423 147.231 186.62Z" fill="#231F20"/>
<path d="M141.148 191.833C142.309 192.733 142.526 194.41 141.626 195.572C140.725 196.733 139.048 196.95 137.887 196.049C136.725 195.149 136.508 193.472 137.409 192.31C138.31 191.149 139.987 190.932 141.148 191.833Z" fill="white"/>
<path d="M234.505 134.673C237.664 137.446 237.976 142.261 235.203 145.42C232.43 148.579 227.615 148.891 224.456 146.118C221.297 143.345 220.985 138.53 223.758 135.371C226.531 132.212 231.346 131.9 234.505 134.673Z" fill="#231F20"/>
<path d="M227.625 138.771C228.616 139.859 228.545 141.544 227.457 142.535C226.37 143.527 224.685 143.456 223.693 142.368C222.701 141.28 222.772 139.595 223.86 138.603C224.948 137.612 226.633 137.683 227.625 138.771Z" fill="white"/>
<path d="M274.316 236.453C287.804 227.318 299.249 215.591 308.288 202.049C317.027 188.96 323.373 174.07 326.704 158.686C328.616 149.856 329.614 140.781 329.531 131.744C329.499 128.545 326.767 125.462 323.438 125.6C320.16 125.732 317.264 128.272 317.296 131.701C317.344 137.134 317.001 142.559 316.281 147.954C316.351 147.432 316.419 146.903 316.497 146.379C315.11 156.591 312.373 166.597 308.447 176.123C308.641 175.638 308.846 175.16 309.041 174.675C305.014 184.379 299.775 193.548 293.441 201.93C293.759 201.509 294.07 201.099 294.39 200.686C288.269 208.746 281.168 216.024 273.207 222.275C273.621 221.951 274.044 221.625 274.456 221.293C272.392 222.911 270.263 224.449 268.09 225.921C266.765 226.818 265.724 228.017 265.298 229.596C264.903 231.061 265.097 233.008 265.934 234.306C267.654 236.941 271.481 238.378 274.316 236.453Z" fill="#333333"/>
<path d="M316.504 100.163C313.189 103.275 311.882 110.469 311.927 115.013C310.711 114.4 309.443 113.784 308.09 113.737C306.728 113.684 305.245 114.36 304.772 115.634C304.42 116.576 304.678 117.625 305.007 118.576C306.815 123.839 310.593 128.145 313.684 132.778C316.776 137.412 319.306 142.964 318.122 148.405L322.113 154.76C328.522 146.365 333.411 136.815 336.473 126.704C337.9 121.998 338.16 112.181 337.395 107.321C336.622 102.464 329.247 88.1893 316.512 100.161L316.504 100.163Z" fill="#333333"/>
<g opacity="0.46">
<path opacity="0.46" d="M169.827 360.139C169.524 376.058 170.69 392.944 179.717 406.065C183.08 410.951 187.64 415.247 193.274 417.074C198.908 418.902 205.713 417.838 209.706 413.458C214.189 408.548 214.185 401.102 213.397 394.504C211.402 377.843 206.058 360.955 209.937 344.638C212.055 335.725 214.292 328.385 207.058 321.123C202.335 316.386 195.98 313.882 189.447 316.079C172.432 321.801 170.112 345.221 169.827 360.139Z" fill="white"/>
</g>
<path d="M204.444 191.458C205.695 189.734 206.712 187.317 205.46 185.594C204.546 184.336 202.653 183.889 202.124 182.429C201.565 180.889 203.066 179.212 204.695 179.043C206.323 178.874 207.864 179.777 209.113 180.839C210.039 181.619 210.905 182.538 211.263 183.693C211.745 185.21 211.262 186.901 210.366 188.21C209.47 189.52 208.203 190.534 206.952 191.508C205.351 192.754 203.522 194.193 201.427 194.172C202.577 193.507 203.637 192.576 204.444 191.458Z" fill="#FCAE12"/>
<g opacity="0.46">
<path opacity="0.46" d="M54.8369 241.233C52.8999 250.132 56.7624 260.46 64.9311 264.481C69.4198 266.699 75.3021 266.714 79.0561 263.403C82.4697 260.397 83.414 255.566 84.6293 251.182C85.9427 246.446 87.7893 241.855 90.1324 237.535C92.2445 233.63 94.842 229.241 93.3689 225.05C90.6657 217.368 77.1784 217.743 71.1341 220.636C63.4734 224.294 56.6225 233.011 54.8287 241.236L54.8369 241.233Z" fill="white"/>
</g>
</g>
<defs>
<filter id="filter0_d_4_255" x="37.9276" y="24.6172" width="408.731" height="639.33" filterUnits="userSpaceOnUse" color-interpolation-filters="sRGB">
<feFlood flood-opacity="0" result="BackgroundImageFix"/>
<feColorMatrix in="SourceAlpha" type="matrix" values="0 0 0 0 0 0 0 0 0 0 0 0 0 0 0 0 0 0 127 0" result="hardAlpha"/>
<feOffset dy="4"/>
<feGaussianBlur stdDeviation="2"/>
<feComposite in2="hardAlpha" operator="out"/>
<feColorMatrix type="matrix" values="0 0 0 0 0 0 0 0 0 0 0 0 0 0 0 0 0 0 0.25 0"/>
<feBlend mode="normal" in2="BackgroundImageFix" result="effect1_dropShadow_4_255"/>
<feBlend mode="normal" in="SourceGraphic" in2="effect1_dropShadow_4_255" result="shape"/>
</filter>
</defs>
</svg>
