<svg width="1265" height="1024" viewBox="0 0 1265 1024" fill="none" xmlns="http://www.w3.org/2000/svg">
<g opacity="0.3">
<path d="M405.559 653.974C414.686 648.704 425.932 648.704 435.059 653.974L578.748 736.933C587.876 742.203 593.498 751.942 593.498 762.481V928.4C593.498 938.939 587.876 948.678 578.748 953.947L435.059 1036.91C425.932 1042.18 414.686 1042.18 405.559 1036.91L261.869 953.947C252.742 948.678 247.119 938.939 247.119 928.4V762.481C247.119 751.942 252.742 742.203 261.869 736.933L405.559 653.974Z" stroke="#E0C586"/>
<path d="M834.123 653.974C843.25 648.704 854.495 648.704 863.623 653.974L1007.31 736.933C1016.44 742.203 1022.06 751.942 1022.06 762.481V928.4C1022.06 938.939 1016.44 948.678 1007.31 953.947L863.623 1036.91C854.495 1042.18 843.25 1042.18 834.123 1036.91L690.433 953.947C681.306 948.678 675.683 938.939 675.683 928.4V762.481C675.683 751.942 681.306 742.203 690.433 736.933L834.123 653.974Z" stroke="#E0C586"/>
<path d="M1048.76 299.301C1057.88 294.032 1069.13 294.032 1078.26 299.301L1221.95 382.26C1231.07 387.53 1236.7 397.269 1236.7 407.808V573.727C1236.7 584.266 1231.07 594.005 1221.95 599.274L1078.26 682.234C1069.13 687.503 1057.88 687.503 1048.76 682.234L905.067 599.274C895.94 594.005 890.317 584.266 890.317 573.727V407.808C890.317 397.269 895.94 387.53 905.067 382.26L1048.76 299.301Z" stroke="#E0C586"/>
<path d="M405.559 -64.521C414.686 -69.7907 425.932 -69.7907 435.059 -64.521L578.748 18.4382C587.876 23.7079 593.498 33.4466 593.498 43.986V209.904C593.498 220.444 587.876 230.183 578.748 235.452L435.059 318.411C425.932 323.681 414.686 323.681 405.559 318.411L261.869 235.452C252.742 230.183 247.119 220.444 247.119 209.904V43.986C247.119 33.4466 252.742 23.7079 261.869 18.4382L405.559 -64.521Z" stroke="#E0C586"/>
<path d="M185.999 299.301C195.126 294.032 206.372 294.032 215.499 299.301L359.189 382.26C368.316 387.53 373.939 397.269 373.939 407.808V573.727C373.939 584.266 368.316 594.005 359.189 599.274L215.499 682.234C206.372 687.503 195.126 687.503 185.999 682.234L42.3094 599.274C33.1821 594.005 27.5594 584.266 27.5594 573.727V407.808C27.5594 397.269 33.1821 387.53 42.3094 382.26L185.999 299.301Z" stroke="#E0C586"/>
<path d="M632.809 299.093C641.937 293.824 653.182 293.824 662.309 299.093L805.999 382.052C815.126 387.322 820.749 397.061 820.749 407.6V573.519C820.749 584.058 815.126 593.797 805.999 599.066L662.309 682.026C653.182 687.295 641.937 687.295 632.809 682.026L489.12 599.066C479.993 593.797 474.37 584.058 474.37 573.519V407.6C474.37 397.061 479.993 387.322 489.12 382.052L632.809 299.093Z" stroke="#E0C586"/>
<path d="M834.123 -64.521C843.25 -69.7907 854.495 -69.7907 863.623 -64.521L1007.31 18.4382C1016.44 23.7079 1022.06 33.4466 1022.06 43.986V209.904C1022.06 220.444 1016.44 230.183 1007.31 235.452L863.623 318.411C854.495 323.681 843.25 323.681 834.123 318.411L690.433 235.452C681.306 230.183 675.683 220.444 675.683 209.904V43.986C675.683 33.4466 681.306 23.7079 690.433 18.4382L834.123 -64.521Z" stroke="#E0C586"/>
</g>
</svg>
