<svg width="199" height="199" viewBox="0 0 199 199" fill="none" xmlns="http://www.w3.org/2000/svg">
<g filter="url(#filter0_d_29_237)">
<path d="M167.47 95.285C167.47 133 136.918 163.57 99.235 163.57C61.5518 163.57 31 133 31 95.285C31 57.5703 61.5518 27 99.235 27C136.918 27 167.47 57.5703 167.47 95.285Z" fill="#D22D2B" stroke="white" stroke-width="6"/>
<path d="M130.988 64.5969C130.977 64.5505 130.961 64.5172 130.945 64.4918C130.931 64.4717 130.905 64.4359 130.849 64.3877C130.792 64.3389 130.687 64.2619 130.504 64.1764L130.497 64.1728C129.639 63.768 127.828 63.43 125.692 63.2241C123.708 63.0329 121.887 62.9908 121.264 62.9781C117.341 62.9267 115.145 63.2632 113.956 63.5848C112.965 63.8531 112.694 64.1003 112.629 64.1598C112.625 64.1638 112.621 64.167 112.619 64.1692L130.988 64.5969ZM130.988 64.5969L130.996 64.6724C131.007 64.7738 130.992 64.8456 130.969 64.9019C130.945 64.9594 130.894 65.042 130.784 65.1333C120.674 73.4249 112.739 82.3365 104.569 94.5728L103.444 96.258L104.587 97.9312C113.174 110.499 121.368 119.996 128.387 125.231C128.525 125.333 128.6 125.421 128.642 125.48C128.685 125.54 128.711 125.596 128.729 125.648C128.769 125.765 128.769 125.873 128.767 125.904L128.767 125.904C128.763 125.963 128.745 126.058 128.691 126.155C128.653 126.223 128.535 126.409 128.144 126.616L128.139 126.618C127.665 126.87 126.486 127.237 124.64 127.528C122.886 127.805 120.799 127.973 118.704 127.973C116.774 127.973 114.914 127.831 113.346 127.531C111.713 127.219 110.688 126.789 110.182 126.411L110.178 126.409C106.477 123.653 102.284 119.511 97.4021 113.689L94.6632 110.423L92.513 114.104C92.2101 114.622 91.9054 115.14 91.5977 115.663L91.5959 115.666C91.2906 116.184 90.9822 116.708 90.6749 117.234C90.4638 117.592 90.2519 117.952 90.0393 118.312C88.6549 120.661 87.2432 123.057 85.8401 125.405C85.7265 125.595 85.7121 125.609 85.6724 125.647C85.6272 125.69 85.4421 125.855 84.9462 126.06C83.8858 126.498 81.6243 127.028 77.0024 127.028H77.0019H77.0014H77.0009H77.0004H76.9999H76.9994H76.9989H76.9983H76.9978H76.9973H76.9968H76.9963H76.9958H76.9953H76.9947H76.9942H76.9937H76.9932H76.9927H76.9922H76.9917H76.9911H76.9906H76.9901H76.9896H76.9891H76.9886H76.9881H76.9875H76.987H76.9865H76.986H76.9855H76.985H76.9844H76.9839H76.9834H76.9829H76.9824H76.9819H76.9813H76.9808H76.9803H76.9798H76.9793H76.9788H76.9782H76.9777H76.9772H76.9767H76.9762H76.9756H76.9751H76.9746H76.9741H76.9736H76.973H76.9725H76.972H76.9715H76.971H76.9705H76.9699H76.9694H76.9689H76.9684H76.9679H76.9673H76.9668H76.9663H76.9658H76.9652H76.9647H76.9642H76.9637H76.9632H76.9626H76.9621H76.9616H76.9611H76.9606H76.96H76.9595H76.959H76.9585H76.9579H76.9574H76.9569H76.9564H76.9559H76.9553H76.9548H76.9543H76.9538H76.9532H76.9527H76.9522H76.9517H76.9511H76.9506H76.9501H76.9496H76.949H76.9485H76.948H76.9475H76.9469H76.9464H76.9459H76.9454H76.9448H76.9443H76.9438H76.9433H76.9427H76.9422H76.9417H76.9412H76.9406H76.9401H76.9396H76.9391H76.9385H76.938H76.9375H76.937H76.9364H76.9359H76.9354H76.9348H76.9343H76.9338H76.9333H76.9327H76.9322H76.9317H76.9312H76.9306H76.9301H76.9296H76.929H76.9285H76.928H76.9275H76.9269H76.9264H76.9259H76.9253H76.9248H76.9243H76.9238H76.9232H76.9227H76.9222H76.9216H76.9211H76.9206H76.92H76.9195H76.919H76.9185H76.9179H76.9174H76.9169H76.9163H76.9158H76.9153H76.9147H76.9142H76.9137H76.9132H76.9126H76.9121H76.9116H76.911H76.9105H76.91H76.9094H76.9089H76.9084H76.9078H76.9073H76.9068H76.9062H76.9057H76.9052H76.9046H76.9041H76.9036H76.903H76.9025H76.902H76.9014H76.9009H76.9004H76.8998H76.8993H76.8988H76.8983H76.8977H76.8972H76.8966H76.8961H76.8956H76.895H76.8945H76.894H76.8934H76.8929H76.8924H76.8918H76.8913H76.8908H76.8902H76.8897H76.8892H76.8886H76.8881H76.8876H76.887H76.8865H76.886H76.8854H76.8849H76.8844H76.8838H76.8833H76.8827H76.8822H76.8817H76.8811H76.8806H76.8801H76.8795H76.879H76.8785H76.8779H76.8774H76.8769H76.8763H76.8758H76.8752H76.8747H76.8742H76.8736H76.8731H76.8726H76.872H76.8715H76.8709H76.8704H76.8699H76.8693H76.8688H76.8683H76.8677H76.8672H76.8666H76.8661H76.8656H76.865H76.8645H76.864H76.8634H76.8629H76.8623H76.8618H76.8613H76.8607H76.8602H76.8596H76.8591H76.8586H76.858H76.8575H76.857H76.8564H76.8559H76.8553H76.8548H76.8543H76.8537H76.8532H76.8526H76.8521H76.8516H76.851H76.8505H76.8499H76.8494H76.8489H76.8483H76.8478H76.8472H76.8467H76.8462H76.8456H76.8451H76.8445H76.844H76.8435H76.8429H76.8424H76.8418H76.8413H76.8408H76.8402H76.8397H76.8391H76.8386H76.8381H76.8375H76.837H76.8364H76.8359H76.8354H76.8348H76.8343H76.8337H76.8332H76.8326H76.8321H76.8316H76.831H76.8305H76.8299H76.8294H76.8289H76.8283H76.8278H76.8272H76.8267H76.8261H76.8256H76.8251H76.8245H76.824H76.8234H76.8229H76.8223H76.8218H76.8213H76.8207H76.8202H76.8196H76.8191H76.8186H76.818H76.8175H76.8169H76.8164H76.8158H76.8153H76.8148H76.8142H76.8137H76.8131H76.8126H76.812H76.8115H76.811H76.8104H76.8099H76.8093H76.8088H76.8082H76.8077H76.8071H76.8066H76.8061H76.8055H76.805H76.8044H76.8039H76.8033H76.8028H76.8023H76.8017H76.8012H76.8006H76.8001H76.7995H76.799H76.7984H76.7979H76.7974H76.7968H76.7963H76.7957H76.7952H76.7946H76.7941H76.7935H76.793H76.7925H76.7919H76.7914H76.7908H76.7903H76.7897H76.7892H76.7886H76.7881H76.7876H76.787H76.7865H76.7859H76.7854H76.7848H76.7843H76.7837H76.7832H76.7827H76.7821H76.7816H76.781H76.7805H76.7799H76.7794H76.7788H76.7783H76.7778H76.7772H76.7767H76.7761H76.7756H76.775H76.7745H76.7739H76.7734H76.7728H76.7723H76.7718H76.7712H76.7707H76.7701H76.7696H76.769H76.7685H76.7679H76.7674H76.7668H76.7663H76.7658H76.7652H76.7647H76.7641H76.7636H76.763H76.7625H76.7619H76.7614H76.7608H76.7603H76.7598H76.7592H76.7587H76.7581H76.7576H76.757H76.7565H76.7559H76.7554H76.7548H76.7543H76.7537H76.7532H76.7527H76.7521H76.7516H76.751H76.7505H76.7499H76.7494H76.7488H76.7483H76.7477H76.7472H76.7467H76.7461H76.7456H76.745H76.7445H76.7439H76.7434H76.7428H76.7423H76.7417H76.7412H76.7406H76.7401H76.7396H76.739H76.7385H76.7384C75.729 127.022 73.5825 126.981 71.448 126.756C70.3753 126.643 69.369 126.491 68.5419 126.293C68.1306 126.194 67.7998 126.093 67.5475 125.995C67.4233 125.948 67.3303 125.905 67.264 125.872C67.208 125.843 67.1804 125.825 67.1745 125.821C67.0708 125.745 67.0243 125.656 67.0075 125.576C66.9907 125.496 66.9994 125.407 67.0574 125.31L67.0596 125.307C68.662 122.619 70.2809 119.869 71.8442 117.213L71.8917 117.133L71.8923 117.132L71.9423 117.047C75.6835 110.686 79.5002 104.197 83.5173 97.943L84.5627 96.3154L83.5116 94.6915C77.3147 85.118 71.7454 75.5005 69.6594 66.8727L130.988 64.5969ZM94.7825 82.0162L92.792 77.9841C91.0696 74.495 89.3763 70.5909 88.4537 66.7903L88.4529 66.7871C88.3852 66.5067 88.2168 66.2678 87.8277 66.0156C87.4021 65.7397 86.919 65.5857 86.5184 65.4676L86.5118 65.4656C84.5052 64.8691 80.9388 64.5469 76.9461 64.7435C73.4842 64.9141 71.6612 65.3538 70.7393 65.7001C70.0359 65.9643 69.8847 66.1548 69.8344 66.2182C69.8312 66.2222 69.8284 66.2257 69.826 66.2286L69.8261 66.2288C69.6634 66.4058 69.6031 66.6383 69.6591 66.8717L94.7825 82.0162ZM94.7825 82.0162L97.7412 78.63M94.7825 82.0162L97.7412 78.63M97.7412 78.63C102.372 73.3299 107.362 68.4791 112.618 64.1699L97.7412 78.63ZM129.546 129.268C131.346 128.317 131.707 126.88 131.76 126.108L129.546 129.268Z" fill="white" stroke="white" stroke-width="6"/>
<path d="M92.3256 82.9664L94.4299 86.9966L97.3075 83.4766C102.365 77.2903 107.899 71.6749 113.972 66.6489C114.013 66.6325 114.191 66.5538 114.586 66.4568C115.156 66.3168 115.933 66.1963 116.885 66.1109C118.783 65.9407 121.107 65.9327 123.305 66.0607C123.902 66.0955 124.475 66.1394 125.016 66.1909C115.184 74.9663 108.059 84.0524 101.214 94.6161L100.143 96.27L101.235 97.9102C106.877 106.382 114.91 117.37 123.14 124.694C122.673 124.752 122.173 124.804 121.644 124.847C119.512 125.019 117.185 125.022 115.199 124.812C114.206 124.707 113.355 124.554 112.684 124.367C111.977 124.17 111.648 123.984 111.556 123.914C106.533 120.136 101.413 114.284 97.1522 108.939L94.4348 105.53L92.2216 109.286C90.9593 111.428 89.7212 113.549 88.4872 115.664C86.999 118.214 85.517 120.753 84.0064 123.305C83.9948 123.309 83.9827 123.314 83.9701 123.318C83.5733 123.461 82.9361 123.611 82.0506 123.734C80.2996 123.978 78.0185 124.058 75.7428 123.995C74.1759 123.952 72.6854 123.843 71.4459 123.692C72.4631 121.959 73.4728 120.229 74.4802 118.502C78.5444 111.535 82.5722 104.631 86.9114 97.9363L87.9693 96.3041L86.9109 94.6723C81.4487 86.25 75.624 76.7337 73.0768 68.2124C74.5202 67.913 76.5793 67.7171 78.7741 67.6852C81.0573 67.6519 83.2873 67.7991 84.9163 68.1106C85.491 68.2205 85.9164 68.3373 86.2095 68.4404C87.572 73.5611 90.1029 78.7097 92.3256 82.9664ZM69.7984 126.486C74.856 127.333 85.111 127.327 86.3416 125.249L69.7984 126.486ZM84.2007 123.223C84.2242 123.207 84.2381 123.2 84.2392 123.201C84.2403 123.201 84.2285 123.209 84.2007 123.223ZM86.6463 68.6373C86.6443 68.6378 86.6239 68.6267 86.5912 68.6025C86.632 68.6247 86.6483 68.6368 86.6463 68.6373ZM86.0007 67.6174L86.0008 67.6176L86.0007 67.6174Z" fill="white" stroke="white" stroke-width="6"/>
</g>
<defs>
<filter id="filter0_d_29_237" x="0" y="0" width="198.471" height="198.57" filterUnits="userSpaceOnUse" color-interpolation-filters="sRGB">
<feFlood flood-opacity="0" result="BackgroundImageFix"/>
<feColorMatrix in="SourceAlpha" type="matrix" values="0 0 0 0 0 0 0 0 0 0 0 0 0 0 0 0 0 0 127 0" result="hardAlpha"/>
<feOffset dy="4"/>
<feGaussianBlur stdDeviation="14"/>
<feComposite in2="hardAlpha" operator="out"/>
<feColorMatrix type="matrix" values="0 0 0 0 0 0 0 0 0 0 0 0 0 0 0 0 0 0 0.1 0"/>
<feBlend mode="normal" in2="BackgroundImageFix" result="effect1_dropShadow_29_237"/>
<feBlend mode="normal" in="SourceGraphic" in2="effect1_dropShadow_29_237" result="shape"/>
</filter>
</defs>
</svg>
