<svg width="579" height="319" viewBox="0 0 579 319" fill="none" xmlns="http://www.w3.org/2000/svg">
<path d="M421.317 16.0211C412.823 8.60076 400.123 9.56729 391.129 15.4483C382.134 21.3345 376.113 31.1328 370.89 40.9516C364.39 53.174 357.434 82.303 352.574 95.4254L343.574 103.004C360.24 101.767 390.142 85.7294 403.747 75.8441C413.099 69.0477 422.334 61.162 427.011 50.0851C431.687 39.0083 430.43 23.9835 421.317 16.0211Z" fill="#B2DEE7"/>
<path d="M380.667 94.51L380.81 83.4332C392.493 76.2941 406.43 70.9244 419.718 74.2178C422.871 75.0003 425.968 76.2992 428.35 78.5033C433.69 83.4434 434.176 92.3621 430.328 98.5398C426.479 104.712 419.105 108.154 411.837 108.41C399.265 108.855 379.793 94.152 380.667 94.51Z" fill="#B2DEE7"/>
<path d="M418.537 82.4819C421.691 83.2643 424.788 84.5633 427.169 86.7674C429.781 89.1812 431.222 92.5513 431.575 96.0799C433.972 90.1733 433.011 82.8194 428.35 78.5032C425.968 76.2991 422.871 75.0002 419.718 74.2177C406.43 70.9244 385.64 72.5762 368.335 94.5201L380.713 91.0427C392.171 84.236 405.659 79.2857 418.542 82.4768L418.537 82.4819Z" fill="#BEEDF4"/>
<path d="M320.693 14.9876C330.01 11.5459 340.809 16.3377 347.115 24.0137C353.422 31.6898 356.12 41.6569 358.119 51.3887C360.608 63.5037 362.274 75.7823 363.102 88.1222L354.833 100.375C340.65 94.1107 329.755 82.2207 320.479 69.7887C314.101 61.2433 308.106 51.849 306.91 41.2529C305.714 30.6568 310.697 18.6748 320.693 14.9825V14.9876Z" fill="#B2DEE7"/>
<path d="M360.276 96.0798C365.136 82.9574 373.4 61.8521 379.901 49.6297C385.124 39.8109 391.144 30.0126 400.139 24.1265C407.708 19.1762 417.894 17.7289 425.999 21.8098C424.767 19.6415 423.214 17.6726 421.318 16.0157C412.824 8.59538 400.124 9.56192 391.129 15.443C382.134 21.3291 376.114 31.1275 370.891 40.9462C365.044 51.9412 359.617 76.7337 354.205 90.6334C353.147 93.354 349.104 93.7938 350.453 96.3866L355.712 106.471C357.874 106.313 360.276 96.0747 360.276 96.0747V96.0798Z" fill="#BEEDF4"/>
<path d="M397.349 200.041C397.078 201.422 396.848 202.813 396.659 204.209C396.7 203.897 396.741 203.585 396.786 203.273C395.923 209.732 395.953 216.288 396.817 222.747C396.776 222.435 396.735 222.124 396.689 221.812C397.584 228.388 399.342 234.832 401.912 240.948C401.795 240.667 401.677 240.385 401.56 240.109C403.982 245.842 407.105 251.258 410.897 256.193C410.713 255.957 410.529 255.717 410.345 255.482C414.035 260.263 418.338 264.539 423.106 268.236C422.871 268.052 422.631 267.868 422.396 267.684C427.486 271.611 433.072 274.869 438.99 277.38C438.709 277.262 438.428 277.145 438.152 277.027C444.234 279.594 450.632 281.364 457.174 282.253C456.862 282.212 456.551 282.172 456.239 282.126C459.908 282.616 463.613 282.826 467.319 282.739C469.159 282.698 470.922 284.386 470.835 286.258C470.748 288.201 469.291 289.735 467.319 289.776C458.579 289.975 449.748 288.59 441.474 285.787C432.883 282.877 424.931 278.53 417.796 272.941C410.871 267.515 404.969 260.8 400.405 253.283C395.795 245.699 392.494 237.23 390.735 228.536C388.911 219.531 388.671 210.367 390.035 201.284C390.194 200.241 390.373 199.198 390.577 198.16C390.93 196.349 393.189 195.147 394.906 195.7C396.832 196.324 397.742 198.088 397.364 200.031L397.349 200.041Z" fill="#231F20"/>
<path d="M311.193 124.748C304.314 131.243 295.891 135.805 286.922 138.689C282.624 140.07 278.204 141.052 273.742 141.696C268.933 142.386 264.073 142.806 259.212 142.765C253.136 142.714 247.075 141.814 241.581 139.108C239.925 138.295 239.342 135.81 240.318 134.291C241.412 132.593 243.359 132.153 245.132 133.028C245.598 133.258 246.068 133.473 246.543 133.677C246.262 133.56 245.981 133.442 245.705 133.325C248.27 134.398 250.974 135.053 253.723 135.432C253.412 135.391 253.1 135.35 252.788 135.304C259.1 136.137 265.636 135.743 271.928 134.905C271.616 134.946 271.304 134.987 270.992 135.033C277.805 134.112 284.52 132.424 290.863 129.75C290.582 129.868 290.3 129.985 290.024 130.103C294.66 128.129 299.065 125.628 303.057 122.544C302.822 122.728 302.581 122.913 302.346 123.097C303.69 122.048 304.988 120.939 306.225 119.767C307.564 118.504 309.89 118.341 311.198 119.767C312.455 121.138 312.629 123.398 311.198 124.748H311.193Z" fill="#231F20"/>
<path d="M321.011 135.54C317.27 146.637 315.639 179.847 335.055 201.464C354.47 223.075 395.028 255.534 438.581 214.08C484.557 170.315 459.673 124.836 422.508 102.923C387.224 82.1145 359.698 96.4591 359.698 96.4591L321.011 135.545V135.54Z" fill="#231F20"/>
<path d="M334.344 200.635C334.426 200.614 334.507 200.599 334.589 200.579C338.581 199.586 342.49 198.195 346.293 196.498C351.628 193.971 356.688 190.826 361.384 187.154C364.057 184.961 366.567 182.593 369.045 180.184C377.575 171.884 385.686 163.109 392.933 153.679C394.43 151.689 395.897 149.679 397.307 147.629C401.723 141.206 405.653 134.45 408.755 127.372C410.488 123.23 411.934 118.985 412.971 114.669C413.365 113.028 413.692 111.381 413.973 109.729C413.988 109.617 414.004 109.509 414.019 109.397C414.07 109.034 414.116 108.676 414.162 108.313C414.259 107.535 414.341 106.758 414.413 105.976C414.627 103.582 414.704 101.189 414.678 98.8058C407.498 95.4715 400.731 93.5385 394.563 92.5361C394.614 98.4734 393.52 104.59 391.578 110.368C388.665 119.032 384.045 127.168 378.52 134.604C370.4 145.537 360.735 155.637 350.131 164.198C341.846 170.882 332.591 176.507 322.681 179.54C325.119 186.965 328.86 194.273 334.349 200.635H334.344Z" fill="#FDD615"/>
<path d="M450.086 150.451C445.353 161.104 438.852 170.923 431.6 180.164C426.996 186.029 422.023 191.614 416.82 196.968C410.58 203.386 404.069 209.645 397.083 215.23C390.766 220.277 383.959 224.675 376.921 228.526C375.945 229.063 374.959 229.585 373.967 230.106C381.076 232.817 388.701 234.361 396.7 234.039C402.991 230.28 409.037 226.087 414.812 221.51C417.091 219.664 419.33 217.766 421.512 215.808C429.49 208.648 436.788 200.737 443.319 192.253C445.031 189.982 446.692 187.681 448.292 185.339C454.087 176.829 459.085 167.834 463.215 158.501C462.356 150.359 459.663 142.591 455.6 135.396C454.128 140.5 452.283 145.517 450.091 150.457L450.086 150.451Z" fill="#FDD615"/>
<path d="M382.957 100.693L382.946 100.745C382.946 100.745 382.951 100.709 382.957 100.693Z" fill="#FDD615"/>
<path d="M327.102 166.474C332.775 163.789 338.095 160.327 343.073 156.404C348.184 152.236 353.018 147.649 357.613 142.914C361.558 138.848 365.309 134.588 368.764 130.103C372.929 124.539 376.619 118.622 379.405 112.322C380.677 109.248 381.735 106.103 382.481 102.902C382.635 102.242 382.773 101.577 382.9 100.913C382.951 100.647 382.997 100.386 383.043 100.12C383.207 98.9796 383.335 97.8392 383.411 96.6988C383.529 95.001 383.529 93.3133 383.457 91.6309C368.887 91.6564 359.698 96.4482 359.698 96.4482L321.01 135.534C318.915 141.753 317.484 154.911 320.044 169.082C322.441 168.366 324.797 167.486 327.107 166.463L327.102 166.474Z" fill="#FDD615"/>
<path d="M438.407 214.135C438.044 214.514 437.676 214.882 437.308 215.255C437.733 214.867 438.152 214.483 438.576 214.079C444.872 208.086 449.829 202.061 453.622 196.068C448.945 202.409 443.85 208.459 438.407 214.135Z" fill="#FDD615"/>
<path d="M363.234 223.525C373.123 218.932 382.691 213.215 391.343 206.373C394.185 204.046 396.903 201.56 399.592 199.049C408.811 190.448 417.54 181.248 425.222 171.25C426.709 169.276 428.16 167.271 429.55 165.236C433.966 158.767 437.845 151.96 440.952 144.847C442.337 141.538 443.559 138.173 444.591 134.762C445.705 131.059 446.574 127.311 447.305 123.552C441.177 116.321 433.685 109.964 425.492 104.758C425.027 110.696 423.847 116.658 422.002 122.427C418.578 133.115 413.114 143.271 406.665 152.64C396.965 166.734 385.236 179.749 372.633 191.348C363.975 199.32 353.693 205.657 342.761 209.415C348.214 214.611 354.633 219.848 361.819 224.154C362.289 223.949 362.764 223.739 363.234 223.53V223.525Z" fill="#FDD615"/>
<path d="M299.602 111.376C299.602 111.376 294.241 128.487 309.062 142.044C318.435 150.615 340.298 149.004 352.911 133.304C365.519 117.605 366.899 97.6295 354.424 89.1761C336.813 77.2453 329.688 86.5731 329.688 86.5731L299.602 111.371V111.376Z" fill="#231F20"/>
<path d="M304.365 127.193C304.943 130.267 307.125 132.992 310.002 134.22C311.898 135.028 314.137 135.186 315.997 134.307C317.857 133.422 319.212 131.387 318.971 129.341C318.685 126.897 316.426 125.168 315.558 122.867C315.092 121.624 315.046 120.259 314.653 118.99C313.513 115.339 309.721 116.183 307.324 118.167C304.876 120.197 303.793 124.145 304.365 127.193Z" fill="#594F59"/>
<path d="M289.948 22.7763C270.021 24.8935 245.495 42.015 244.719 67.0785C244.044 88.7156 257.827 117.205 299.392 115.364C333.767 113.846 348.24 90.5771 345.823 66.8125C343.124 40.2558 324.189 19.1352 289.953 22.7763H289.948Z" fill="#FDD615"/>
<path d="M345.997 68.3824C345.945 67.8352 345.899 67.2931 345.833 66.7408C342.639 40.2403 324.2 19.0635 289.963 22.7046C270.037 24.8218 245.511 41.9433 244.734 67.0068C244.489 74.9078 246.058 83.5402 250.172 91.2264L250.264 91.2111C245.93 79.6843 247.361 66.1732 260.781 59.791C271.033 54.9123 286.514 67.7381 286.514 67.7381C286.514 67.7381 291.435 47.2925 313.472 46.5305C337.835 45.6867 345.991 68.4029 345.991 68.4029V68.3875L345.997 68.3824Z" fill="#231F20"/>
<path d="M343.206 4.70349C339.854 5.96663 336.951 8.20143 334.339 10.6561C328.518 16.1178 323.878 22.8324 320.817 30.2068L320.745 33.1115C321.91 35.3719 324.931 36.456 327.266 35.4486C327.731 35.2491 328.176 34.9679 328.478 34.5639C328.912 33.9809 328.994 33.2138 329.086 32.4927C330.363 22.2648 336.159 12.6864 344.622 6.81044C345.143 6.45246 345.736 5.96663 345.655 5.34273C345.532 4.37108 344.116 4.36597 343.201 4.7086L343.206 4.70349Z" fill="#231F20"/>
<path d="M349.988 4.94402C350.157 7.83341 347.949 10.3137 345.056 10.4824C342.169 10.6512 339.69 8.44197 339.527 5.54747C339.358 2.65809 341.566 0.17782 344.458 0.0090595C347.346 -0.159701 349.824 2.04953 349.993 4.94402H349.988Z" fill="#231F20"/>
<path d="M245.368 14.8039C244.417 18.261 244.514 21.9225 244.964 25.4767C245.955 33.3983 248.649 41.105 252.809 47.9168L255.114 49.6811C257.623 50.0697 260.281 48.2594 260.838 45.7791C260.95 45.2831 260.986 44.7614 260.833 44.2807C260.613 43.5852 260.045 43.0687 259.514 42.5727C252.001 35.5205 247.667 25.2006 247.897 14.896C247.913 14.2618 247.872 13.4999 247.32 13.193C246.466 12.7225 245.628 13.863 245.368 14.8039Z" fill="#231F20"/>
<path d="M258.783 64.2709C259.248 64.0817 259.76 63.9436 260.255 64.0407C260.751 64.1379 261.216 64.5112 261.288 65.0073C261.39 65.7284 260.705 66.2909 260.097 66.6898L258.773 67.5591C258.339 67.8455 257.894 68.137 257.608 68.5717C257.194 69.1905 257.041 71.0827 255.993 71.0162C255.068 70.9599 255.022 69.6047 255.109 68.9655C255.375 66.9404 256.913 65.038 258.778 64.2709H258.783Z" fill="#231F20"/>
<path d="M312.915 49.5529C312.42 49.6449 311.919 49.8086 311.556 50.1615C311.193 50.5092 311.004 51.0769 311.214 51.5371C311.52 52.1968 312.399 52.2991 313.13 52.3042C313.656 52.3042 314.183 52.3093 314.709 52.3144C315.225 52.3144 315.762 52.3247 316.237 52.5292C316.922 52.8258 318.077 54.3293 318.92 53.7054C319.667 53.1531 318.966 51.9974 318.547 51.5013C317.224 49.9467 314.898 49.1847 312.915 49.558V49.5529Z" fill="#231F20"/>
<path d="M294.175 104.784C283.795 105.198 279.426 99.0612 279.206 98.7391C278.991 98.422 279.052 97.9822 279.354 97.7572C279.65 97.5271 280.07 97.5987 280.284 97.9157C280.345 98.0078 286.586 106.768 302.107 101.899C316.887 97.2662 316.57 85.4632 316.565 85.3456C316.549 84.957 316.836 84.6297 317.204 84.6143C317.572 84.599 317.883 84.9007 317.899 85.2894C317.904 85.4172 318.256 98.3044 302.49 103.25C299.372 104.226 296.608 104.687 294.175 104.784Z" fill="#231F20"/>
<path d="M315.563 82.543C317.03 81.8782 318.798 82.1492 319.979 83.2538C320.393 83.6425 319.769 84.2664 319.355 83.8778C318.481 83.0544 317.101 82.8089 316.008 83.305C315.793 83.4021 315.532 83.3664 315.405 83.1465C315.292 82.9572 315.343 82.6453 315.563 82.543Z" fill="#231F20"/>
<path d="M276.906 98.6113C277.064 96.9442 278.434 95.5787 280.1 95.4304C280.33 95.41 280.549 95.6452 280.539 95.8702C280.529 96.1259 280.345 96.2896 280.1 96.31C280.074 96.31 280.049 96.31 280.023 96.3152C280.069 96.31 280.074 96.3049 280.043 96.3152C279.997 96.3203 279.951 96.3305 279.911 96.3407C279.834 96.3561 279.757 96.3765 279.686 96.397C279.609 96.4174 279.538 96.443 279.466 96.4686C279.44 96.4788 279.42 96.489 279.394 96.4993C279.435 96.4839 279.44 96.4788 279.41 96.4941C279.374 96.5095 279.338 96.5248 279.302 96.5453C279.159 96.6169 279.016 96.6987 278.883 96.7959C278.873 96.8061 278.766 96.8828 278.802 96.8521C278.837 96.8214 278.75 96.893 278.74 96.9033C278.674 96.9595 278.612 97.0158 278.551 97.0771C278.495 97.1334 278.444 97.1896 278.393 97.2459C278.367 97.2766 278.342 97.3073 278.316 97.3379C278.285 97.3789 278.285 97.3789 278.316 97.3379C278.306 97.3533 278.296 97.3686 278.28 97.384C278.183 97.5169 278.101 97.655 278.025 97.7982C278.009 97.834 277.989 97.8698 277.974 97.9005C277.963 97.9261 277.953 97.9465 277.943 97.9721C277.958 97.9312 277.963 97.9261 277.948 97.9567C277.923 98.0386 277.892 98.1153 277.866 98.1971C277.846 98.2738 277.825 98.3454 277.81 98.4221C277.8 98.4579 277.795 98.4988 277.79 98.5346C277.779 98.5857 277.779 98.5857 277.79 98.5346C277.79 98.5602 277.785 98.5858 277.779 98.6113C277.759 98.8415 277.59 99.0614 277.34 99.0511C277.12 99.0409 276.875 98.8568 276.9 98.6113H276.906Z" fill="#231F20"/>
<path d="M255.216 47.0163C254.561 48.3817 254.01 49.9262 254.408 51.3836C254.95 53.3525 257.173 54.5185 259.207 54.3548C261.241 54.1861 263.05 52.9587 264.461 51.4859C265.876 50.0131 266.985 48.2795 268.304 46.7197C270.619 43.9837 273.583 41.8052 276.885 40.4091C278.173 39.867 279.532 39.4323 280.687 38.6397C281.842 37.847 282.798 36.5992 282.798 35.198C282.798 28.9487 271.83 29.7312 268.447 32.3035C263.27 36.231 258.047 41.0892 255.216 47.0112V47.0163Z" fill="#594F59"/>
<path d="M343.973 5.97187C344.678 6.75431 345.961 7.04069 346.825 6.43213C347.111 6.23268 347.331 5.95142 347.504 5.64969C348.501 3.90583 347.366 0.919287 345.092 0.934629C342.772 0.949971 342.843 4.71384 343.973 5.97187Z" fill="#594F59"/>
<path d="M267.768 68.178C267.267 68.0297 266.746 67.9427 266.224 67.9734C265.55 68.0143 264.901 68.2598 264.282 68.5308C262.708 69.2161 261.17 70.1264 260.127 71.4918C259.085 72.8624 258.625 74.7699 259.32 76.345C259.632 77.0558 260.158 77.6592 260.735 78.1809C262.984 80.206 266.214 81.0805 269.178 80.4719L267.17 79.3468C267.016 78.9582 267.599 78.7383 268.008 78.682C270.425 78.3599 272.27 75.8949 272.137 73.4607C272.01 71.0264 270.103 68.8581 267.763 68.1678L267.768 68.178Z" fill="#FCAE12"/>
<g opacity="0.18">
<path opacity="0.18" d="M246.14 148.953C251.685 152.17 256.054 157.253 256.361 162.934C256.591 167.148 254.624 171.239 254.148 175.443C253.249 183.441 257.767 191.061 262.152 198.17C268.54 208.515 274.923 218.866 281.311 229.211C283.535 232.811 285.793 236.509 286.407 240.539C287.853 249.984 279.344 259.225 268.668 262.437C257.991 265.643 245.946 263.741 235.842 259.506C225.738 255.272 217.173 248.895 208.612 242.707C189.682 229.027 169.684 215.71 146.201 208.576C125.917 202.414 104.058 201.171 82.6397 198.885C54.25 195.858 24.4549 190.176 4.14001 173.275C2.31039 171.756 0.496063 170.022 0.0872192 167.885C-0.556732 164.515 2.47903 161.4 5.79074 159.401C16.2676 153.075 30.1226 153.054 42.9759 153.11C78.5358 153.269 114.111 152.108 149.574 149.638C167.471 148.39 185.338 146.81 203.159 144.892C219.064 143.184 232.07 140.796 246.145 148.953H246.14Z" fill="white"/>
</g>
<path d="M319.35 59.8218C319.094 59.3667 318.783 58.9371 318.389 58.5996C317.873 58.1598 317.239 57.8837 316.606 57.6433C314.996 57.0347 313.263 56.6103 311.566 56.8609C309.865 57.1115 308.204 58.1547 307.601 59.7656C307.325 60.4969 307.279 61.2947 307.33 62.072C307.529 65.0943 309.226 67.9786 311.771 69.6151L311.117 67.4058C311.28 67.0223 311.848 67.2678 312.185 67.5183C314.137 68.9758 317.178 68.5053 318.783 66.6694C320.393 64.8335 320.541 61.9544 319.35 59.827V59.8218Z" fill="#FCAE12"/>
<path d="M270.788 73.778C272.521 75.4656 272.562 78.2374 270.875 79.971C269.189 81.7046 266.419 81.7456 264.686 80.058C262.954 78.3704 262.913 75.5986 264.599 73.865C266.286 72.1313 269.056 72.0904 270.788 73.778Z" fill="#231F20"/>
<path d="M266.715 75.9363C267.251 76.5908 267.159 77.5574 266.505 78.0943C265.851 78.6313 264.885 78.5393 264.348 77.8847C263.812 77.2301 263.904 76.2636 264.558 75.7266C265.212 75.1896 266.178 75.2817 266.715 75.9363Z" fill="white"/>
<path d="M316.723 63.5143C318.041 65.5394 317.469 68.2549 315.445 69.5743C313.421 70.8937 310.707 70.3209 309.389 68.2958C308.07 66.2707 308.643 63.5552 310.667 62.2358C312.69 60.9164 315.404 61.4891 316.723 63.5143Z" fill="#231F20"/>
<path d="M312.277 64.721C312.66 65.4779 312.353 66.3984 311.597 66.7819C310.841 67.1655 309.921 66.8587 309.537 66.1018C309.154 65.3449 309.461 64.4244 310.217 64.0409C310.973 63.6573 311.893 63.9642 312.277 64.721Z" fill="white"/>
<path d="M295.795 88.2045C296.786 87.4886 297.778 86.3481 297.404 85.1822C297.134 84.3332 296.178 83.7451 296.147 82.8553C296.117 81.9144 297.241 81.2649 298.161 81.4643C299.081 81.6638 299.76 82.436 300.251 83.2389C300.614 83.8321 300.921 84.4918 300.915 85.1873C300.905 86.1027 300.338 86.9363 299.612 87.4937C298.887 88.0511 298.013 88.3733 297.154 88.6801C296.06 89.0739 294.798 89.5341 293.658 89.1455C294.404 88.9869 295.151 88.6699 295.795 88.2045Z" fill="#FCAE12"/>
<path d="M246.385 18.7366C249.211 19.3502 252.002 17.5501 252.615 14.7221C253.228 11.8941 251.429 9.10187 248.603 8.48819C245.772 7.87452 242.986 9.67463 242.373 12.5026C241.76 15.3307 243.559 18.1229 246.385 18.7366Z" fill="#231F20"/>
<path d="M249.472 10.7741C250.136 11.5923 250.218 12.9066 249.482 13.6635C249.242 13.9141 248.93 14.0879 248.603 14.2158C246.727 14.9266 243.957 13.3464 244.32 11.1014C244.693 8.81033 248.398 9.46492 249.467 10.7792L249.472 10.7741Z" fill="#594F59"/>
<path d="M348.465 115.927C346.625 115.927 344.862 114.306 344.949 112.409C345.036 110.501 346.492 108.89 348.465 108.89C350.305 108.89 352.068 110.511 351.981 112.409C351.894 114.316 350.438 115.927 348.465 115.927Z" fill="#231F20"/>
<path d="M352.221 112.398C352.421 118.208 351.348 124.079 349.431 129.551C347.366 135.447 344.443 141.026 340.958 146.202C337.298 151.633 333.082 156.701 328.488 161.359C323.862 166.049 318.839 170.329 313.534 174.231C308.781 177.729 303.762 180.89 298.478 183.528C297.875 183.83 297.267 184.127 296.653 184.413C295.779 184.822 294.905 185.032 293.945 184.766C293.127 184.541 292.243 183.912 291.844 183.15C291.021 181.59 291.328 179.171 293.107 178.333C298.35 175.868 303.333 172.871 308.065 169.537C309.496 168.529 310.902 167.486 312.287 166.417C312.052 166.601 311.812 166.785 311.576 166.969C317.474 162.398 322.968 157.294 327.89 151.684C329.29 150.088 330.644 148.447 331.942 146.764C331.758 146.999 331.574 147.24 331.39 147.475C335.494 142.157 339.082 136.403 341.699 130.205C341.581 130.486 341.464 130.768 341.346 131.044C343.089 126.891 344.382 122.55 344.98 118.085C344.939 118.397 344.898 118.709 344.852 119.021C345.138 116.827 345.256 114.613 345.179 112.398C345.118 110.557 346.845 108.793 348.695 108.88C350.658 108.967 352.145 110.424 352.211 112.398H352.221Z" fill="#231F20"/>
<g opacity="0.46">
<path opacity="0.46" d="M378.817 124.841C382.701 125.838 386.764 125.858 390.72 126.528C394.512 127.173 398.202 128.415 401.611 130.205C406.578 132.808 411.342 136.664 416.948 136.567C423.699 136.449 429.408 129.31 428.038 122.693C427.072 118.024 423.367 114.439 419.513 111.636C407.59 102.973 393.628 100.657 379.456 104.088C375.112 105.137 370.707 106.164 369.143 110.849C366.807 117.84 372.593 123.245 378.822 124.841H378.817Z" fill="white"/>
</g>
<path d="M449.932 167.562C453.275 169.46 456.724 171.163 460.261 172.661C459.98 172.543 459.699 172.426 459.423 172.308C466.036 175.095 472.935 177.177 479.983 178.537C481.986 178.926 484 179.248 486.019 179.524C485.707 179.483 485.395 179.442 485.083 179.396C492.468 180.378 499.955 180.603 507.386 180.051C509.507 179.892 511.628 179.667 513.734 179.386C513.422 179.427 513.11 179.468 512.799 179.514C519.882 178.552 526.868 176.895 533.609 174.517C535.5 173.847 537.376 173.126 539.226 172.344C538.945 172.462 538.664 172.579 538.388 172.697C541.924 171.198 545.379 169.506 548.721 167.608C550.321 166.698 552.641 167.174 553.536 168.872C554.415 170.539 553.985 172.717 552.273 173.689C545.977 177.258 539.277 180.158 532.377 182.347C525.453 184.541 518.313 185.962 511.097 186.75C504.131 187.512 497.093 187.594 490.112 186.99C482.886 186.366 475.7 185.093 468.734 183.063C461.82 181.053 455.079 178.322 448.721 174.926C447.939 174.507 447.162 174.078 446.391 173.643C444.791 172.733 444.106 170.411 445.128 168.826C446.171 167.21 448.23 166.591 449.943 167.562H449.932Z" fill="#231F20"/>
<path d="M539.813 172.047C539.813 172.047 540.81 160.873 544.147 160.551C547.484 160.229 580.959 164.832 578.91 167.644C576.855 170.457 546.549 175.586 546.549 175.586L539.818 172.047H539.813Z" fill="#231F20"/>
<path d="M460.077 283.143C460.077 283.143 469.751 277.523 471.637 280.468C473.523 283.414 475.828 319.938 473.911 318.981C472 318.025 457.746 288.63 457.746 288.63L460.077 283.143Z" fill="#231F20"/>
<g opacity="0.46">
<path opacity="0.46" d="M403.078 33.0605C404.636 33.8173 405.97 35.0345 406.865 36.5226C407.917 38.2665 408.352 40.3069 409.215 42.1531C410.079 43.9992 411.607 45.7635 413.631 45.963C416.222 46.2136 418.323 43.8253 419.329 41.4269C421.869 35.3515 420.152 27.7573 415.246 23.3695C410.294 18.9408 400.701 17.734 394.916 21.4416C392.437 23.032 391.359 25.231 392.851 28.0283C394.875 31.8127 399.679 31.4138 403.072 33.0656L403.078 33.0605Z" fill="white"/>
</g>
<path d="M299.362 176.169C294.19 176.87 288.747 175.177 284.889 171.664C284.434 171.25 283.907 170.784 283.299 170.861C282.206 171.004 282.134 172.554 282.369 173.633C282.87 175.944 283.371 178.256 283.867 180.567C284.107 181.687 284.337 182.904 283.831 183.927C283.253 185.103 281.904 185.64 280.708 186.167C277.248 187.686 273.799 190.427 273.523 194.196C273.196 198.758 278.071 202.419 282.64 202.215C287.209 202.01 291.19 199.013 294.246 195.612C300.093 189.087 303.793 180.588 310.779 175.3C310.192 175.489 309.604 175.683 309.016 175.873L299.367 176.164L299.362 176.169Z" fill="#231F20"/>
<path d="M254.863 126.211C257.689 125.495 260.925 125.014 263.316 126.687C266.081 128.62 266.429 132.869 264.742 135.795C263.056 138.72 259.872 140.474 256.647 141.456C252.497 142.714 246.032 141.614 245.133 136.454C244.121 130.681 250.315 127.367 254.868 126.211H254.863Z" fill="#231F20"/>
</svg>
