<svg width="200" height="200" viewBox="0 0 200 200" fill="none" xmlns="http://www.w3.org/2000/svg">
<g filter="url(#filter0_d_29_41)">
<path d="M163.039 70.0049C177.471 104.846 160.926 144.789 126.085 159.221C91.2437 173.652 51.3004 157.107 36.8688 122.266C22.4372 87.4254 38.9822 47.4821 73.8232 33.0505C108.664 18.6189 148.608 35.1639 163.039 70.0049Z" fill="#92C651" stroke="white" stroke-width="6"/>
<path d="M152.284 67.0495C151.152 65.1545 147.495 64.0285 141.405 63.7086C138.072 63.5302 131.938 63.5671 128.312 65.7513C111.764 75.7369 98.6895 90.6322 87.676 104.359L80.4049 92.9456C79.8974 92.1458 78.7049 90.2754 69.2385 90.0724C65.9057 90.0047 59.9189 90.14 57.2526 91.8566C55.3569 93.081 54.8249 95.2959 55.9868 97.1232L74.1735 125.683C74.9624 126.92 76.6074 128.114 83.2485 128.464C84.1719 128.514 85.4011 128.557 86.7709 128.557C91.0516 128.557 96.6898 128.114 98.4266 125.917C100.31 123.548 102.218 121.112 104.065 118.749C117.781 101.245 131.963 83.1384 150.92 71.7008C152.92 70.4949 153.115 68.4461 152.284 67.0433V67.0495Z" fill="white"/>
<path d="M129.591 68.3792C112.746 78.5201 99.7558 93.64 87.5252 109.028C84.425 104.171 81.3248 99.3207 78.2307 94.4637C76.8569 92.3099 56.3044 92.0292 58.5961 95.6292C64.6202 105.068 70.6504 114.508 76.6745 123.953C77.9815 125.997 94.6253 126.07 96.3091 123.953C111.962 104.294 127.342 82.7181 149.225 69.5446C152.812 67.3846 135.226 64.9866 129.591 68.3792Z" fill="white"/>
</g>
<defs>
<filter id="filter0_d_29_41" x="0.652344" y="0.833984" width="198.604" height="198.603" filterUnits="userSpaceOnUse" color-interpolation-filters="sRGB">
<feFlood flood-opacity="0" result="BackgroundImageFix"/>
<feColorMatrix in="SourceAlpha" type="matrix" values="0 0 0 0 0 0 0 0 0 0 0 0 0 0 0 0 0 0 127 0" result="hardAlpha"/>
<feOffset dy="4"/>
<feGaussianBlur stdDeviation="14"/>
<feComposite in2="hardAlpha" operator="out"/>
<feColorMatrix type="matrix" values="0 0 0 0 0 0 0 0 0 0 0 0 0 0 0 0 0 0 0.1 0"/>
<feBlend mode="normal" in2="BackgroundImageFix" result="effect1_dropShadow_29_41"/>
<feBlend mode="normal" in="SourceGraphic" in2="effect1_dropShadow_29_41" result="shape"/>
</filter>
</defs>
</svg>
