<svg width="304" height="168" viewBox="0 0 304 168" fill="none" xmlns="http://www.w3.org/2000/svg">
<path d="M82.6623 8.39294C87.1151 4.50548 93.7728 5.01184 98.4882 8.09288C103.203 11.1766 106.36 16.3099 109.098 21.4539C112.506 27.8571 116.152 43.1176 118.7 49.9923L123.418 53.9628C114.681 53.3144 99.0052 44.9126 91.8733 39.7338C86.9704 36.1732 82.1292 32.0419 79.6778 26.2388C77.2263 20.4358 77.8854 12.5644 82.6623 8.39294V8.39294Z" fill="#B2DEE7"/>
<path d="M103.972 49.5128L103.897 43.7098C97.7725 39.9696 90.4665 37.1565 83.5007 38.8819C81.8476 39.2918 80.224 39.9723 78.9755 41.127C76.1758 43.7151 75.9213 48.3876 77.9387 51.624C79.9561 54.8577 83.8221 56.6608 87.6319 56.7948C94.2227 57.0279 104.43 49.3253 103.972 49.5128V49.5128Z" fill="#B2DEE7"/>
<path d="M84.1204 43.2115C82.4674 43.6214 80.8438 44.3019 79.5953 45.4567C78.2263 46.7212 77.4707 48.4868 77.2859 50.3354C76.0293 47.241 76.533 43.3883 78.9764 41.1271C80.2249 39.9724 81.8485 39.2919 83.5015 38.882C90.4674 37.1566 101.366 38.022 110.438 49.5183L103.949 47.6964C97.9422 44.1305 90.8719 41.537 84.1177 43.2088L84.1204 43.2115Z" fill="#BEEDF4"/>
<path d="M135.413 7.8522C130.529 6.04912 124.868 8.5595 121.562 12.5809C118.256 16.6023 116.841 21.824 115.794 26.9225C114.489 33.2694 113.616 39.7021 113.182 46.1669L117.517 52.5862C124.951 49.3042 130.663 43.0751 135.526 36.5621C138.869 32.0852 142.012 27.1636 142.639 21.6124C143.266 16.0611 140.654 9.78387 135.413 7.84952V7.8522Z" fill="#B2DEE7"/>
<path d="M114.663 50.3355C112.115 43.4607 107.783 32.4038 104.375 26.0006C101.637 20.8566 98.4809 15.7234 93.7655 12.6397C89.7977 10.0462 84.4581 9.28802 80.209 11.426C80.8547 10.29 81.6691 9.25855 82.6631 8.3905C87.1159 4.50304 93.7736 5.0094 98.4889 8.09044C103.204 11.1742 106.36 16.3074 109.098 21.4514C112.163 27.2116 115.009 40.2002 117.846 47.4822C118.4 48.9075 120.52 49.1379 119.812 50.4962L117.055 55.7795C115.922 55.6965 114.663 50.3328 114.663 50.3328V50.3355Z" fill="#BEEDF4"/>
<path d="M95.2265 104.8C95.3684 105.523 95.489 106.252 95.5881 106.983C95.5667 106.82 95.5453 106.656 95.5212 106.493C95.9739 109.877 95.9579 113.312 95.5051 116.695C95.5265 116.532 95.548 116.368 95.5721 116.205C95.1032 119.65 94.1816 123.026 92.834 126.23C92.8956 126.083 92.9572 125.936 93.0188 125.791C91.7489 128.794 90.1119 131.632 88.124 134.217C88.2205 134.094 88.3169 133.968 88.4133 133.845C86.479 136.35 84.2231 138.589 81.7235 140.526C81.8467 140.43 81.9726 140.334 82.0959 140.237C79.4274 142.295 76.4991 144.001 73.3966 145.317C73.544 145.255 73.6914 145.194 73.836 145.132C70.6478 146.477 67.2935 147.404 63.8642 147.87C64.0276 147.849 64.191 147.827 64.3545 147.803C62.4308 148.06 60.4884 148.17 58.5461 148.125C57.5816 148.103 56.6572 148.987 56.7028 149.968C56.7483 150.986 57.5119 151.79 58.5461 151.811C63.1274 151.916 67.757 151.19 72.0946 149.721C76.5982 148.197 80.767 145.92 84.5071 142.991C88.1374 140.149 91.2318 136.631 93.6243 132.693C96.0409 128.719 97.7717 124.283 98.6933 119.728C99.6497 115.01 99.7757 110.209 99.0603 105.451C98.9773 104.904 98.8835 104.358 98.7763 103.814C98.5915 102.865 97.4073 102.236 96.5071 102.525C95.497 102.852 95.0202 103.776 95.2184 104.794L95.2265 104.8Z" fill="#231F20"/>
<path d="M140.393 65.3545C143.999 68.7571 148.414 71.1469 153.116 72.6579C155.37 73.3813 157.687 73.8957 160.026 74.2333C162.547 74.595 165.095 74.8146 167.643 74.7932C170.828 74.7664 174.006 74.2949 176.886 72.8776C177.754 72.4516 178.059 71.1495 177.548 70.3538C176.974 69.4644 175.954 69.2339 175.024 69.6921C174.78 69.8126 174.534 69.9252 174.284 70.0323C174.432 69.9707 174.579 69.9091 174.724 69.8475C173.379 70.4101 171.962 70.753 170.52 70.9513C170.684 70.9299 170.847 70.9084 171.01 70.8843C167.702 71.321 164.275 71.1147 160.977 70.6753C161.14 70.6968 161.304 70.7182 161.467 70.7423C157.896 70.2601 154.376 69.3759 151.051 67.9747C151.198 68.0364 151.345 68.098 151.49 68.1596C149.06 67.1254 146.751 65.8153 144.658 64.1998C144.781 64.2962 144.907 64.3927 145.031 64.4892C144.326 63.9399 143.646 63.3585 142.997 62.745C142.295 62.0833 141.076 61.9975 140.39 62.745C139.731 63.463 139.64 64.6472 140.39 65.3545H140.393Z" fill="#231F20"/>
<path d="M135.245 71.0081C137.206 76.8218 138.061 94.2203 127.883 105.545C117.705 116.867 96.4427 133.872 73.6109 112.155C49.5092 89.2264 62.554 65.4006 82.0369 53.9204C100.534 43.0189 114.964 50.5339 114.964 50.5339L135.245 71.0107V71.0081Z" fill="#231F20"/>
<path d="M128.256 105.111C128.213 105.1 128.17 105.092 128.127 105.081C126.035 104.562 123.985 103.833 121.992 102.943C119.195 101.62 116.543 99.9722 114.08 98.0486C112.679 96.8992 111.364 95.6588 110.064 94.3969C105.593 90.0486 101.341 85.4512 97.542 80.5108C96.757 79.4686 95.988 78.4157 95.2486 77.3414C92.9338 73.9763 90.8735 70.4372 89.2473 66.7292C88.339 64.5591 87.5808 62.3354 87.037 60.0742C86.8307 59.2142 86.6592 58.3515 86.5119 57.4861C86.5038 57.4272 86.4958 57.3709 86.4877 57.312C86.4609 57.1217 86.4368 56.9342 86.4127 56.744C86.3618 56.3367 86.319 55.9295 86.2814 55.5196C86.1689 54.2657 86.1287 53.0119 86.1421 51.7634C89.9063 50.0166 93.4536 49.0039 96.6873 48.4788C96.6605 51.5893 97.2339 54.7935 98.2519 57.821C99.7791 62.3595 102.201 66.622 105.097 70.5175C109.354 76.2456 114.421 81.5369 119.98 86.0219C124.323 89.5235 129.175 92.4706 134.37 94.0593C133.092 97.9495 131.131 101.778 128.253 105.111H128.256Z" fill="#FDD615"/>
<path d="M67.58 78.8203C70.0609 84.401 73.4688 89.545 77.2706 94.3862C79.6845 97.4592 82.2913 100.385 85.0187 103.19C88.2899 106.552 91.7032 109.832 95.3656 112.757C98.6771 115.402 102.246 117.706 105.935 119.723C106.447 120.004 106.964 120.278 107.483 120.551C103.757 121.971 99.7594 122.78 95.5666 122.611C92.2685 120.642 89.0991 118.445 86.0716 116.047C84.8767 115.08 83.7032 114.086 82.5592 113.06C78.3771 109.309 74.5512 105.165 71.1272 100.72C70.2297 99.5302 69.359 98.3246 68.5204 97.0976C65.4822 92.6394 62.862 87.9268 60.6973 83.0373C61.1474 78.7721 62.5593 74.7024 64.6892 70.9329C65.4608 73.6067 66.428 76.2349 67.5774 78.823L67.58 78.8203Z" fill="#FDD615"/>
<path d="M102.771 52.7522L102.776 52.7792C102.776 52.7792 102.773 52.7603 102.771 52.7522Z" fill="#FDD615"/>
<path d="M132.05 87.2139C129.076 85.8074 126.287 83.9936 123.678 81.9387C120.999 79.7551 118.464 77.3519 116.056 74.871C113.987 72.7411 112.021 70.5094 110.21 68.1597C108.026 65.2448 106.092 62.145 104.632 58.8443C103.965 57.2341 103.41 55.5864 103.019 53.9093C102.938 53.5637 102.866 53.2154 102.799 52.8671C102.772 52.7278 102.748 52.5911 102.724 52.4518C102.638 51.8544 102.571 51.2569 102.531 50.6594C102.47 49.77 102.47 48.8858 102.507 48.0044C110.145 48.0178 114.963 50.5282 114.963 50.5282L135.244 71.005C136.342 74.2629 137.092 81.1563 135.75 88.5803C134.494 88.2052 133.259 87.7444 132.048 87.2086L132.05 87.2139Z" fill="#FDD615"/>
<path d="M73.7024 112.184C73.8926 112.382 74.0855 112.575 74.2784 112.77C74.0561 112.567 73.8364 112.366 73.614 112.154C70.3133 109.014 67.7145 105.858 65.7266 102.718C68.178 106.04 70.8491 109.21 73.7024 112.184V112.184Z" fill="#FDD615"/>
<path d="M113.111 117.103C107.927 114.697 102.912 111.702 98.3759 108.117C96.8863 106.898 95.461 105.596 94.0517 104.281C89.2185 99.7744 84.6425 94.9546 80.6157 89.7168C79.8361 88.6826 79.0752 87.6324 78.3465 86.5661C76.0317 83.177 73.9982 79.611 72.3693 75.8843C71.6432 74.1509 71.0029 72.388 70.4617 70.601C69.8776 68.6613 69.4222 66.6974 69.0391 64.7282C72.2514 60.9399 76.179 57.6097 80.4737 54.8823C80.7175 57.9928 81.3364 61.1167 82.3036 64.1388C84.0986 69.7383 86.9627 75.0591 90.3438 79.9673C95.4288 87.3511 101.577 94.1696 108.184 100.246C112.723 104.423 118.113 107.742 123.844 109.711C120.985 112.433 117.62 115.177 113.853 117.433C113.607 117.326 113.358 117.216 113.111 117.106V117.103Z" fill="#FDD615"/>
<path d="M146.469 58.3485C146.469 58.3485 149.279 67.313 141.51 74.4155C136.596 78.9057 125.135 78.0618 118.523 69.8368C111.913 61.6117 111.19 51.1469 117.73 46.7183C126.962 40.4678 130.697 45.3546 130.697 45.3546L146.469 58.3458V58.3485Z" fill="#231F20"/>
<path d="M143.97 66.6356C143.668 68.2458 142.524 69.6738 141.015 70.3168C140.021 70.7401 138.848 70.8231 137.873 70.3623C136.897 69.8988 136.187 68.8325 136.313 67.7608C136.463 66.4802 137.648 65.5746 138.103 64.369C138.347 63.718 138.371 63.0027 138.577 62.3382C139.175 60.4253 141.163 60.8674 142.419 61.9069C143.702 62.9705 144.27 65.0388 143.97 66.6356Z" fill="#594F59"/>
<path d="M151.529 11.9321C161.975 13.0413 174.833 22.0111 175.24 35.1417C175.593 46.4772 168.368 61.4028 146.578 60.4383C128.558 59.6426 120.971 47.4524 122.238 35.0024C123.653 21.0895 133.579 10.0245 151.527 11.9321H151.529Z" fill="#FDD615"/>
<path d="M122.146 35.8248C122.173 35.5381 122.197 35.2541 122.232 34.9648C123.907 21.0814 133.573 9.98697 151.521 11.8945C161.967 13.0037 174.824 21.9735 175.231 35.1041C175.36 39.2434 174.537 43.7658 172.381 47.7926L172.333 47.7846C174.604 41.7458 173.854 34.6674 166.819 31.3238C161.444 28.7679 153.329 35.4872 153.329 35.4872C153.329 35.4872 150.749 24.7759 139.197 24.3768C126.425 23.9347 122.149 35.8355 122.149 35.8355V35.8275L122.146 35.8248Z" fill="#231F20"/>
<path d="M123.611 2.46421C125.368 3.12597 126.89 4.29676 128.259 5.58276C131.31 8.4441 133.743 11.9618 135.348 15.8252L135.385 17.347C134.775 18.5311 133.191 19.0991 131.967 18.5713C131.723 18.4668 131.49 18.3195 131.332 18.1078C131.104 17.8024 131.061 17.4005 131.013 17.0228C130.343 11.6645 127.305 6.64638 122.868 3.56803C122.595 3.38049 122.284 3.12597 122.327 2.79911C122.392 2.29007 123.134 2.28739 123.613 2.46689L123.611 2.46421Z" fill="#231F20"/>
<path d="M120.056 2.59014C119.967 4.10386 121.125 5.40326 122.641 5.49167C124.155 5.58008 125.454 4.42268 125.54 2.90628C125.628 1.39255 124.471 0.0931586 122.954 0.00474621C121.441 -0.0836661 120.141 1.07373 120.053 2.59014H120.056Z" fill="#231F20"/>
<path d="M174.899 7.75581C175.398 9.56692 175.347 11.4852 175.111 13.3472C174.591 17.4972 173.179 21.5347 170.998 25.1034L169.79 26.0277C168.475 26.2313 167.081 25.2829 166.789 23.9835C166.73 23.7236 166.712 23.4503 166.792 23.1985C166.907 22.8341 167.205 22.5635 167.483 22.3037C171.422 18.6091 173.694 13.2025 173.573 7.80404C173.565 7.47182 173.586 7.07262 173.876 6.91187C174.323 6.66539 174.763 7.26285 174.899 7.75581Z" fill="#231F20"/>
<path d="M167.867 33.6712C167.623 33.5721 167.355 33.4998 167.095 33.5507C166.835 33.6016 166.592 33.7972 166.554 34.057C166.501 34.4348 166.86 34.7295 167.178 34.9385L167.872 35.3939C168.1 35.544 168.333 35.6967 168.483 35.9244C168.7 36.2486 168.781 37.2399 169.33 37.2051C169.815 37.1756 169.839 36.4656 169.793 36.1307C169.654 35.0698 168.848 34.0731 167.87 33.6712H167.867Z" fill="#231F20"/>
<path d="M139.489 25.9607C139.749 26.0089 140.012 26.0946 140.202 26.2795C140.392 26.4617 140.491 26.7591 140.381 27.0002C140.221 27.3458 139.76 27.3994 139.377 27.4021C139.101 27.4021 138.825 27.4048 138.549 27.4074C138.278 27.4074 137.997 27.4128 137.748 27.52C137.389 27.6754 136.783 28.463 136.341 28.1362C135.95 27.8468 136.317 27.2413 136.537 26.9815C137.231 26.167 138.45 25.7678 139.489 25.9634V25.9607Z" fill="#231F20"/>
<path d="M149.083 52.7694C151.972 55.104 151.701 57.7825 151.685 57.9208C151.668 58.0566 151.548 58.1603 151.413 58.1497C151.28 58.1417 151.184 58.0237 151.201 57.8879C151.206 57.8488 151.591 54.0246 146.272 51.6753C141.207 49.4374 138.513 52.6833 138.486 52.7161C138.399 52.8242 138.245 52.8447 138.142 52.7621C138.04 52.6795 138.027 52.525 138.115 52.4169C138.143 52.3814 141.083 48.8357 146.487 51.2222C147.555 51.6944 148.407 52.2223 149.083 52.7694Z" fill="#231F20"/>
<path d="M169.737 24.6314C170.08 25.3467 170.369 26.1558 170.16 26.9194C169.876 27.9509 168.711 28.5617 167.644 28.476C166.578 28.3876 165.63 27.7446 164.89 26.973C164.148 26.2014 163.567 25.2931 162.875 24.476C161.662 23.0426 160.108 21.9013 158.377 21.1699C157.702 20.8859 156.989 20.6582 156.384 20.2429C155.778 19.8276 155.277 19.1739 155.277 18.4398C155.277 15.1659 161.027 15.5758 162.8 16.9234C165.514 18.981 168.253 21.5262 169.737 24.6287V24.6314Z" fill="#594F59"/>
<path d="M123.208 3.12851C122.838 3.53842 122.166 3.68845 121.713 3.36963C121.563 3.26514 121.448 3.11779 121.356 2.95972C120.834 2.04613 121.429 0.481495 122.621 0.489533C123.837 0.49757 123.8 2.46943 123.208 3.12851V3.12851Z" fill="#594F59"/>
<path d="M163.157 35.7178C163.419 35.6401 163.692 35.5946 163.966 35.6106C164.319 35.6321 164.66 35.7607 164.984 35.9027C165.809 36.2617 166.615 36.7386 167.162 37.4539C167.708 38.1719 167.95 39.1712 167.585 39.9964C167.422 40.3688 167.146 40.685 166.843 40.9582C165.664 42.0192 163.971 42.4773 162.417 42.1585L163.47 41.5691C163.55 41.3655 163.245 41.2503 163.031 41.2208C161.763 41.052 160.796 39.7607 160.866 38.4854C160.933 37.2101 161.932 36.0741 163.159 35.7124L163.157 35.7178Z" fill="#FCAE12"/>
<g opacity="0.18">
<path opacity="0.18" d="M174.495 78.0351C171.588 79.7203 169.298 82.3834 169.137 85.3599C169.016 87.5676 170.048 89.7109 170.297 91.9132C170.768 96.1034 168.4 100.095 166.101 103.819C162.752 109.239 159.406 114.662 156.057 120.082C154.892 121.968 153.708 123.905 153.386 126.016C152.628 130.965 157.089 135.806 162.685 137.488C168.282 139.168 174.597 138.172 179.894 135.953C185.19 133.735 189.681 130.394 194.168 127.152C204.092 119.985 214.575 113.009 226.886 109.271C237.52 106.043 248.978 105.392 260.207 104.194C275.09 102.608 290.709 99.6318 301.359 90.7772C302.318 89.9815 303.269 89.0733 303.483 87.9534C303.821 86.1878 302.23 84.5562 300.493 83.5086C295.001 80.1945 287.738 80.1838 281 80.2133C262.358 80.2963 243.709 79.6882 225.118 78.3941C215.735 77.7404 206.369 76.9125 197.027 75.9079C188.689 75.013 181.871 73.7619 174.492 78.0351H174.495Z" fill="white"/>
</g>
<path d="M136.117 31.3404C136.251 31.1019 136.414 30.8769 136.621 30.7C136.891 30.4696 137.223 30.325 137.556 30.199C138.4 29.8802 139.308 29.6578 140.197 29.7891C141.089 29.9204 141.96 30.4669 142.276 31.3109C142.421 31.694 142.445 32.1119 142.418 32.5192C142.314 34.1026 141.424 35.6136 140.09 36.4709L140.433 35.3136C140.347 35.1126 140.05 35.2412 139.873 35.3725C138.85 36.1361 137.256 35.8896 136.414 34.9278C135.57 33.9659 135.493 32.4576 136.117 31.343V31.3404Z" fill="#FCAE12"/>
<path d="M161.572 38.6515C160.664 39.5357 160.642 40.9878 161.527 41.896C162.411 42.8042 163.863 42.8257 164.771 41.9416C165.679 41.0574 165.701 39.6053 164.817 38.6971C163.932 37.7889 162.48 37.7674 161.572 38.6515V38.6515Z" fill="#231F20"/>
<path d="M163.706 39.782C163.425 40.1249 163.473 40.6313 163.816 40.9126C164.159 41.1939 164.665 41.1457 164.947 40.8028C165.228 40.4598 165.18 39.9535 164.837 39.6722C164.494 39.3909 163.988 39.4391 163.706 39.782Z" fill="white"/>
<path d="M137.492 33.2744C136.801 34.3353 137.101 35.7579 138.162 36.4492C139.223 37.1404 140.645 36.8403 141.337 35.7794C142.028 34.7184 141.728 33.2958 140.667 32.6046C139.606 31.9133 138.183 32.2134 137.492 33.2744Z" fill="#231F20"/>
<path d="M139.823 33.9076C139.622 34.3041 139.783 34.7863 140.179 34.9873C140.576 35.1882 141.058 35.0275 141.259 34.6309C141.46 34.2344 141.299 33.7522 140.903 33.5512C140.506 33.3503 140.024 33.5111 139.823 33.9076Z" fill="white"/>
<path d="M148.464 46.2092C147.944 45.8341 147.424 45.2367 147.62 44.6258C147.762 44.1811 148.263 43.873 148.279 43.4068C148.295 42.9139 147.706 42.5736 147.223 42.6781C146.741 42.7826 146.385 43.1871 146.128 43.6078C145.937 43.9185 145.777 44.2642 145.779 44.6285C145.785 45.1081 146.082 45.5448 146.463 45.8368C146.843 46.1289 147.301 46.2976 147.751 46.4584C148.325 46.6647 148.986 46.9058 149.584 46.7022C149.193 46.6191 148.801 46.453 148.464 46.2092V46.2092Z" fill="#FCAE12"/>
<path d="M174.368 9.81571C172.886 10.1372 171.423 9.19415 171.102 7.71257C170.78 6.23099 171.724 4.76817 173.205 4.44667C174.689 4.12517 176.149 5.06824 176.471 6.54981C176.792 8.03139 175.849 9.49421 174.368 9.81571Z" fill="#231F20"/>
<path d="M172.748 5.64421C172.4 6.07287 172.357 6.76142 172.743 7.15793C172.869 7.28921 173.032 7.3803 173.203 7.44728C174.187 7.81968 175.639 6.99182 175.449 5.81567C175.253 4.61541 173.311 4.95834 172.751 5.64689L172.748 5.64421Z" fill="#594F59"/>
<path d="M120.853 60.7334C121.817 60.7334 122.741 59.8841 122.696 58.8901C122.65 57.8908 121.887 57.0469 120.853 57.0469C119.888 57.0469 118.964 57.8962 119.009 58.8901C119.055 59.8895 119.819 60.7334 120.853 60.7334Z" fill="#231F20"/>
<path d="M118.885 58.8847C118.781 61.9282 119.344 65.0039 120.348 67.8706C121.431 70.9597 122.963 73.8826 124.79 76.5939C126.709 79.4392 128.919 82.0943 131.327 84.535C133.752 86.9918 136.386 89.2342 139.167 91.2784C141.658 93.111 144.289 94.7667 147.059 96.1491C147.376 96.3072 147.694 96.4626 148.016 96.6126C148.474 96.827 148.932 96.9368 149.436 96.7975C149.865 96.6796 150.328 96.3501 150.537 95.9509C150.968 95.1337 150.808 93.8665 149.875 93.4271C147.126 92.1357 144.514 90.5658 142.033 88.819C141.283 88.2912 140.546 87.7446 139.82 87.1847C139.944 87.2811 140.07 87.3776 140.193 87.474C137.101 85.0788 134.221 82.405 131.641 79.466C130.907 78.6301 130.197 77.7701 129.516 76.8886C129.613 77.0119 129.709 77.1378 129.806 77.261C127.654 74.4747 125.774 71.4607 124.402 68.2135C124.463 68.3609 124.525 68.5082 124.587 68.6529C123.673 66.4774 122.995 64.2028 122.682 61.8639C122.703 62.0273 122.725 62.1908 122.749 62.3542C122.599 61.2048 122.537 60.0447 122.577 58.8847C122.609 57.9202 121.704 56.9959 120.734 57.0414C119.705 57.087 118.926 57.8505 118.891 58.8847H118.885Z" fill="#231F20"/>
<g opacity="0.46">
<path opacity="0.46" d="M104.941 65.4032C102.904 65.9256 100.774 65.9363 98.7008 66.2873C96.7128 66.6249 94.7785 67.2759 92.9915 68.2136C90.3873 69.5773 87.8904 71.5974 84.9513 71.5465C81.4121 71.4849 78.4195 67.7447 79.1375 64.2779C79.6439 61.8318 81.5863 59.9537 83.6064 58.4856C89.8569 53.9471 97.1763 52.7334 104.606 54.5311C106.883 55.0803 109.192 55.6189 110.012 58.073C111.237 61.7354 108.204 64.5673 104.938 65.4032H104.941Z" fill="white"/>
</g>
<path d="M67.6619 87.7849C65.9097 88.7789 64.1013 89.6711 62.2473 90.4561C62.3946 90.3945 62.542 90.3328 62.6867 90.2712C59.2198 91.7314 55.603 92.8218 51.9084 93.5344C50.8582 93.7381 49.8026 93.9068 48.7443 94.0515C48.9077 94.0301 49.0712 94.0086 49.2346 93.9845C45.3632 94.4989 41.4382 94.6168 37.5427 94.3275C36.4309 94.2444 35.319 94.1265 34.2152 93.9792C34.3786 94.0006 34.5421 94.022 34.7055 94.0461C30.9922 93.5425 27.3298 92.6744 23.796 91.4286C22.8047 91.0776 21.8214 90.6999 20.8516 90.29C20.9989 90.3516 21.1463 90.4132 21.2909 90.4748C19.437 89.6898 17.6258 88.803 15.8737 87.8091C15.0351 87.3322 13.8188 87.5813 13.3499 88.4708C12.8891 89.3442 13.1141 90.4855 14.0117 90.9946C17.3124 92.8646 20.8248 94.3837 24.4416 95.5304C28.0719 96.6798 31.8147 97.4246 35.5977 97.8372C39.2494 98.2364 42.9386 98.2792 46.5983 97.9631C50.3866 97.6362 54.1535 96.9691 57.8052 95.9055C61.4301 94.8526 64.964 93.4219 68.2968 91.6429C68.7067 91.4232 69.114 91.1982 69.5185 90.9705C70.3571 90.4936 70.7161 89.2772 70.1803 88.4467C69.6337 87.6001 68.554 87.2759 67.6565 87.7849H67.6619Z" fill="#231F20"/>
<path d="M20.5429 90.1344C20.5429 90.1344 20.0205 84.2805 18.271 84.1117C16.5215 83.9429 -1.027 86.3541 0.0473448 87.8277C1.12437 89.3012 17.0118 91.9884 17.0118 91.9884L20.5403 90.1344H20.5429Z" fill="#231F20"/>
<path d="M62.3422 148.336C62.3422 148.336 57.2705 145.392 56.2819 146.935C55.2933 148.478 54.085 167.613 55.0897 167.112C56.0917 166.611 63.5639 151.211 63.5639 151.211L62.3422 148.336V148.336Z" fill="#231F20"/>
<g opacity="0.46">
<path opacity="0.46" d="M92.2241 17.3201C91.407 17.7166 90.7077 18.3543 90.2389 19.1339C89.6869 20.0475 89.4592 21.1165 89.0064 22.0836C88.5537 23.0508 87.7526 23.9751 86.6916 24.0796C85.3333 24.2109 84.2322 22.9597 83.7044 21.7032C82.3728 18.5204 83.273 14.5418 85.845 12.2431C88.4411 9.92293 93.4699 9.29065 96.5027 11.233C97.8021 12.0663 98.3674 13.2183 97.5851 14.6838C96.5242 16.6664 94.0058 16.4574 92.2268 17.3228L92.2241 17.3201Z" fill="white"/>
</g>
<path d="M146.596 92.2937C149.307 92.6607 152.16 91.7739 154.183 89.9333C154.421 89.7163 154.697 89.4725 155.016 89.5127C155.59 89.5877 155.627 90.3995 155.504 90.9648C155.241 92.1758 154.979 93.3868 154.719 94.5977C154.593 95.1845 154.472 95.8221 154.738 96.3579C155.04 96.9741 155.748 97.2555 156.375 97.5314C158.188 98.3271 159.997 99.7632 160.141 101.738C160.313 104.128 157.757 106.046 155.362 105.939C152.967 105.831 150.88 104.261 149.277 102.48C146.212 99.0612 144.273 94.6084 140.61 91.8382C140.918 91.9373 141.227 92.0391 141.535 92.1383L146.593 92.291L146.596 92.2937Z" fill="#231F20"/>
<path d="M169.921 66.121C168.44 65.7459 166.744 65.4941 165.49 66.3701C164.04 67.3829 163.858 69.6092 164.742 71.1417C165.626 72.6742 167.296 73.5932 168.986 74.1076C171.162 74.7666 174.551 74.1906 175.022 71.4873C175.553 68.4626 172.306 66.7265 169.918 66.121H169.921Z" fill="#231F20"/>
</svg>
