<svg width="304" height="168" viewBox="0 0 304 168" fill="none" xmlns="http://www.w3.org/2000/svg">
<path d="M82.6623 8.39319C87.1151 4.50572 93.7728 5.01208 98.4882 8.09312C103.203 11.1768 106.36 16.3101 109.098 21.4541C112.506 27.8573 116.152 43.1178 118.7 49.9925L123.418 53.963C114.681 53.3147 99.0052 44.9128 91.8733 39.734C86.9704 36.1734 82.1292 32.0421 79.6778 26.2391C77.2263 20.436 77.8854 12.5646 82.6623 8.39319Z" fill="#B2DEE7"/>
<path d="M103.973 49.5128L103.898 43.7098C97.7735 39.9696 90.4674 37.1565 83.5016 38.8819C81.8486 39.2918 80.225 39.9723 78.9765 41.127C76.1768 43.7151 75.9223 48.3876 77.9397 51.624C79.9571 54.8577 83.8231 56.6608 87.6329 56.7948C94.2236 57.0279 104.431 49.3253 103.973 49.5128Z" fill="#B2DEE7"/>
<path d="M84.1204 43.2115C82.4674 43.6214 80.8438 44.3019 79.5953 45.4567C78.2263 46.7212 77.4707 48.4868 77.2859 50.3354C76.0293 47.241 76.533 43.3883 78.9764 41.1271C80.2249 39.9724 81.8485 39.2919 83.5015 38.882C90.4674 37.1566 101.366 38.022 110.438 49.5183L103.949 47.6964C97.9422 44.1305 90.8719 41.537 84.1177 43.2088L84.1204 43.2115Z" fill="#BEEDF4"/>
<path d="M135.413 7.8522C130.529 6.04912 124.868 8.5595 121.562 12.5809C118.256 16.6023 116.841 21.824 115.794 26.9225C114.489 33.2694 113.616 39.7021 113.182 46.1669L117.517 52.5862C124.951 49.3042 130.663 43.0751 135.526 36.5621C138.869 32.0852 142.012 27.1636 142.639 21.6124C143.266 16.0611 140.654 9.78387 135.413 7.84952V7.8522Z" fill="#B2DEE7"/>
<path d="M114.663 50.3355C112.115 43.4607 107.783 32.4038 104.375 26.0006C101.637 20.8566 98.4809 15.7234 93.7655 12.6397C89.7977 10.0462 84.4581 9.28802 80.209 11.426C80.8547 10.29 81.6691 9.25855 82.6631 8.3905C87.1159 4.50304 93.7736 5.0094 98.4889 8.09044C103.204 11.1742 106.36 16.3074 109.098 21.4514C112.163 27.2116 115.009 40.2002 117.846 47.4822C118.4 48.9075 120.52 49.1379 119.812 50.4962L117.055 55.7795C115.922 55.6965 114.663 50.3328 114.663 50.3328V50.3355Z" fill="#BEEDF4"/>
<path d="M95.2265 104.8C95.3684 105.523 95.489 106.252 95.5881 106.983C95.5667 106.82 95.5453 106.656 95.5212 106.493C95.9739 109.877 95.9579 113.312 95.5051 116.695C95.5265 116.532 95.548 116.368 95.5721 116.205C95.1032 119.65 94.1816 123.026 92.834 126.23C92.8956 126.083 92.9572 125.936 93.0188 125.791C91.7489 128.794 90.1119 131.632 88.124 134.217C88.2205 134.094 88.3169 133.968 88.4133 133.845C86.479 136.35 84.2231 138.589 81.7235 140.526C81.8467 140.43 81.9726 140.334 82.0959 140.237C79.4274 142.295 76.4991 144.001 73.3966 145.317C73.544 145.255 73.6914 145.194 73.836 145.132C70.6478 146.477 67.2935 147.404 63.8642 147.87C64.0276 147.849 64.191 147.827 64.3545 147.803C62.4308 148.06 60.4884 148.17 58.5461 148.125C57.5816 148.103 56.6572 148.987 56.7028 149.968C56.7483 150.986 57.5119 151.79 58.5461 151.811C63.1274 151.916 67.757 151.19 72.0946 149.721C76.5982 148.197 80.767 145.92 84.5071 142.991C88.1374 140.149 91.2318 136.631 93.6243 132.693C96.0409 128.719 97.7717 124.283 98.6933 119.728C99.6497 115.01 99.7757 110.209 99.0603 105.451C98.9773 104.904 98.8835 104.358 98.7763 103.814C98.5915 102.865 97.4073 102.236 96.5071 102.525C95.497 102.852 95.0202 103.776 95.2184 104.794L95.2265 104.8Z" fill="#231F20"/>
<path d="M140.393 65.3545C143.999 68.7571 148.414 71.1469 153.116 72.6579C155.37 73.3813 157.687 73.8957 160.026 74.2333C162.547 74.595 165.095 74.8146 167.643 74.7932C170.828 74.7664 174.006 74.2949 176.886 72.8776C177.754 72.4516 178.059 71.1495 177.548 70.3538C176.974 69.4644 175.954 69.2339 175.024 69.6921C174.78 69.8126 174.534 69.9252 174.284 70.0323C174.432 69.9707 174.579 69.9091 174.724 69.8475C173.379 70.4101 171.962 70.753 170.52 70.9513C170.684 70.9299 170.847 70.9084 171.01 70.8843C167.702 71.321 164.275 71.1147 160.977 70.6753C161.14 70.6968 161.304 70.7182 161.467 70.7423C157.896 70.2601 154.376 69.3759 151.051 67.9747C151.198 68.0364 151.345 68.098 151.49 68.1596C149.06 67.1254 146.751 65.8153 144.658 64.1998C144.781 64.2962 144.907 64.3927 145.031 64.4892C144.326 63.9399 143.646 63.3585 142.997 62.745C142.295 62.0833 141.076 61.9975 140.39 62.745C139.731 63.463 139.64 64.6472 140.39 65.3545H140.393Z" fill="#231F20"/>
<path d="M135.245 71.0083C137.206 76.8221 138.061 94.2206 127.883 105.545C117.705 116.868 96.4427 133.872 73.6109 112.155C49.5092 89.2266 62.554 65.4008 82.0369 53.9206C100.534 43.0191 114.964 50.5341 114.964 50.5341L135.245 71.011V71.0083Z" fill="#231F20"/>
<path d="M128.255 105.111C128.212 105.1 128.169 105.092 128.126 105.081C126.034 104.562 123.984 103.833 121.991 102.943C119.194 101.62 116.542 99.9722 114.079 98.0486C112.678 96.8992 111.363 95.6588 110.063 94.3969C105.592 90.0486 101.34 85.4512 97.541 80.5108C96.756 79.4686 95.9871 78.4157 95.2476 77.3414C92.9328 73.9763 90.8725 70.4372 89.2463 66.7292C88.3381 64.5591 87.5799 62.3354 87.036 60.0742C86.8297 59.2142 86.6582 58.3515 86.5109 57.4861C86.5028 57.4272 86.4948 57.3709 86.4868 57.312C86.46 57.1217 86.4359 56.9342 86.4117 56.744C86.3608 56.3367 86.318 55.9295 86.2805 55.5196C86.1679 54.2657 86.1278 53.0119 86.1411 51.7634C89.9054 50.0166 93.4526 49.0039 96.6863 48.4788C96.6595 51.5893 97.2329 54.7935 98.251 57.821C99.7781 62.3595 102.2 66.622 105.096 70.5175C109.353 76.2456 114.42 81.5369 119.979 86.0219C124.322 89.5235 129.174 92.4706 134.369 94.0593C133.091 97.9495 131.13 101.778 128.252 105.111H128.255Z" fill="#FDD615"/>
<path d="M67.58 78.8203C70.0609 84.401 73.4688 89.545 77.2706 94.3862C79.6845 97.4592 82.2913 100.385 85.0187 103.19C88.2899 106.552 91.7032 109.832 95.3656 112.757C98.6771 115.402 102.246 117.706 105.935 119.723C106.447 120.004 106.964 120.278 107.483 120.551C103.757 121.971 99.7594 122.78 95.5666 122.611C92.2685 120.642 89.0991 118.445 86.0716 116.047C84.8767 115.08 83.7032 114.086 82.5592 113.06C78.3771 109.309 74.5512 105.165 71.1272 100.72C70.2297 99.5302 69.359 98.3246 68.5204 97.0976C65.4822 92.6394 62.862 87.9268 60.6973 83.0373C61.1474 78.7721 62.5593 74.7024 64.6892 70.9329C65.4608 73.6067 66.428 76.2349 67.5774 78.823L67.58 78.8203Z" fill="#FDD615"/>
<path d="M102.77 52.752L102.775 52.7789C102.775 52.7789 102.772 52.76 102.77 52.752Z" fill="#FDD615"/>
<path d="M132.049 87.2137C129.075 85.8071 126.286 83.9933 123.677 81.9384C120.998 79.7549 118.463 77.3517 116.055 74.8708C113.986 72.7409 112.02 70.5091 110.209 68.1595C108.025 65.2446 106.091 62.1448 104.631 58.844C103.964 57.2339 103.409 55.5862 103.018 53.909C102.937 53.5634 102.865 53.2151 102.798 52.8668C102.771 52.7275 102.747 52.5909 102.723 52.4516C102.637 51.8541 102.57 51.2567 102.53 50.6592C102.469 49.7697 102.469 48.8856 102.506 48.0042C110.144 48.0175 114.962 50.5279 114.962 50.5279L135.243 71.0048C136.341 74.2626 137.091 81.1561 135.749 88.5801C134.493 88.205 133.258 87.7442 132.047 87.2083L132.049 87.2137Z" fill="#FDD615"/>
<path d="M73.7024 112.184C73.8926 112.382 74.0855 112.575 74.2784 112.77C74.0561 112.567 73.8364 112.366 73.614 112.154C70.3133 109.014 67.7145 105.858 65.7266 102.718C68.178 106.04 70.8491 109.21 73.7024 112.184Z" fill="#FDD615"/>
<path d="M113.111 117.103C107.927 114.697 102.912 111.702 98.3759 108.117C96.8863 106.898 95.461 105.596 94.0517 104.28C89.2185 99.7741 84.6425 94.9543 80.6157 89.7165C79.8361 88.6824 79.0752 87.6322 78.3465 86.5658C76.0317 83.1767 73.9982 79.6107 72.3693 75.884C71.6432 74.1506 71.0029 72.3877 70.4617 70.6007C69.8776 68.661 69.4222 66.6972 69.0391 64.728C72.2514 60.9397 76.179 57.6095 80.4737 54.8821C80.7175 57.9926 81.3364 61.1165 82.3036 64.1386C84.0986 69.738 86.9627 75.0588 90.3438 79.9671C95.4288 87.3508 101.577 94.1693 108.184 100.246C112.723 104.422 118.113 107.742 123.844 109.711C120.985 112.433 117.62 115.177 113.853 117.432C113.607 117.325 113.358 117.215 113.111 117.106V117.103Z" fill="#FDD615"/>
<path d="M146.468 58.3485C146.468 58.3485 149.278 67.313 141.509 74.4155C136.595 78.9057 125.134 78.0618 118.522 69.8368C111.912 61.6117 111.189 51.1469 117.729 46.7183C126.961 40.4678 130.696 45.3546 130.696 45.3546L146.468 58.3458V58.3485Z" fill="#231F20"/>
<path d="M143.97 66.6356C143.668 68.2458 142.524 69.6738 141.015 70.3168C140.021 70.7401 138.848 70.8231 137.873 70.3623C136.897 69.8988 136.187 68.8325 136.313 67.7608C136.463 66.4802 137.648 65.5746 138.103 64.369C138.347 63.718 138.371 63.0027 138.577 62.3382C139.175 60.4253 141.163 60.8674 142.419 61.9069C143.702 62.9705 144.27 65.0388 143.97 66.6356Z" fill="#594F59"/>
<path d="M151.528 11.9321C161.974 13.0413 174.832 22.0111 175.239 35.1417C175.593 46.4772 168.367 61.4028 146.577 60.4383C128.557 59.6426 120.97 47.4524 122.237 35.0024C123.652 21.0895 133.578 10.0245 151.526 11.9321H151.528Z" fill="#FDD615"/>
<path d="M122.146 35.8248C122.173 35.5381 122.197 35.2541 122.232 34.9648C123.907 21.0814 133.573 9.98697 151.521 11.8945C161.967 13.0037 174.824 21.9735 175.231 35.1041C175.36 39.2434 174.537 43.7658 172.381 47.7926L172.333 47.7846C174.604 41.7458 173.854 34.6674 166.819 31.3238C161.444 28.7679 153.329 35.4872 153.329 35.4872C153.329 35.4872 150.749 24.7759 139.197 24.3768C126.425 23.9347 122.149 35.8355 122.149 35.8355V35.8275L122.146 35.8248Z" fill="#231F20"/>
<path d="M123.612 2.46421C125.369 3.12597 126.891 4.29676 128.26 5.58276C131.311 8.4441 133.744 11.9618 135.349 15.8252L135.386 17.347C134.776 18.5311 133.192 19.0991 131.968 18.5713C131.724 18.4668 131.491 18.3195 131.333 18.1078C131.105 17.8024 131.062 17.4005 131.014 17.0228C130.344 11.6645 127.306 6.64638 122.869 3.56803C122.596 3.38049 122.285 3.12597 122.328 2.79911C122.393 2.29007 123.135 2.28739 123.614 2.46689L123.612 2.46421Z" fill="#231F20"/>
<path d="M120.056 2.59014C119.967 4.10386 121.125 5.40326 122.641 5.49167C124.155 5.58008 125.454 4.42268 125.54 2.90628C125.628 1.39255 124.471 0.0931586 122.954 0.00474621C121.441 -0.0836661 120.141 1.07373 120.053 2.59014H120.056Z" fill="#231F20"/>
<path d="M174.899 7.75581C175.398 9.56692 175.347 11.4852 175.111 13.3472C174.591 17.4972 173.179 21.5347 170.998 25.1034L169.79 26.0277C168.475 26.2313 167.081 25.2829 166.789 23.9835C166.73 23.7236 166.712 23.4503 166.792 23.1985C166.907 22.8341 167.205 22.5635 167.483 22.3037C171.422 18.6091 173.694 13.2025 173.573 7.80404C173.565 7.47182 173.586 7.07262 173.876 6.91187C174.323 6.66539 174.763 7.26285 174.899 7.75581Z" fill="#231F20"/>
<path d="M167.867 33.6712C167.623 33.5721 167.355 33.4998 167.095 33.5507C166.835 33.6016 166.592 33.7972 166.554 34.057C166.501 34.4348 166.86 34.7295 167.178 34.9385L167.872 35.3939C168.1 35.544 168.333 35.6967 168.483 35.9244C168.7 36.2486 168.781 37.2399 169.33 37.2051C169.815 37.1756 169.839 36.4656 169.793 36.1307C169.654 35.0698 168.848 34.0731 167.87 33.6712H167.867Z" fill="#231F20"/>
<path d="M139.49 25.9607C139.75 26.0089 140.013 26.0946 140.203 26.2795C140.393 26.4617 140.492 26.7591 140.382 27.0002C140.222 27.3458 139.761 27.3994 139.378 27.4021C139.102 27.4021 138.826 27.4048 138.55 27.4074C138.279 27.4074 137.998 27.4128 137.749 27.52C137.39 27.6754 136.784 28.463 136.342 28.1362C135.951 27.8468 136.318 27.2413 136.538 26.9815C137.232 26.167 138.451 25.7678 139.49 25.9634V25.9607Z" fill="#231F20"/>
<path d="M149.314 54.8953C154.756 55.1123 157.046 51.8973 157.162 51.7285C157.274 51.5624 157.242 51.332 157.084 51.2141C156.928 51.0935 156.709 51.1311 156.596 51.2972C156.564 51.3454 153.293 55.9348 145.156 53.3842C137.408 50.9569 137.574 44.7734 137.577 44.7118C137.585 44.5082 137.435 44.3367 137.242 44.3287C137.049 44.3206 136.886 44.4787 136.878 44.6823C136.875 44.7493 136.69 51.5008 144.955 54.0915C146.59 54.6032 148.039 54.8444 149.314 54.8953Z" fill="#231F20"/>
<path d="M138.103 43.2444C137.334 42.8961 136.407 43.0381 135.788 43.6168C135.571 43.8205 135.898 44.1473 136.115 43.9437C136.573 43.5124 137.297 43.3837 137.87 43.6436C137.982 43.6945 138.119 43.6758 138.186 43.5606C138.245 43.4614 138.218 43.298 138.103 43.2444Z" fill="#231F20"/>
<path d="M158.368 51.662C158.285 50.7886 157.567 50.0732 156.693 49.9955C156.573 49.9848 156.458 50.1081 156.463 50.2259C156.468 50.3599 156.565 50.4456 156.693 50.4563C156.707 50.4563 156.72 50.4563 156.734 50.459C156.71 50.4563 156.707 50.4537 156.723 50.459C156.747 50.4617 156.771 50.4671 156.793 50.4724C156.833 50.4805 156.873 50.4912 156.91 50.5019C156.951 50.5126 156.988 50.526 157.026 50.5394C157.039 50.5448 157.05 50.5501 157.063 50.5555C157.042 50.5474 157.039 50.5448 157.055 50.5528C157.074 50.5608 157.093 50.5689 157.111 50.5796C157.186 50.6171 157.261 50.66 157.331 50.7109C157.336 50.7162 157.393 50.7564 157.374 50.7403C157.355 50.7243 157.401 50.7618 157.406 50.7671C157.441 50.7966 157.473 50.8261 157.505 50.8582C157.535 50.8877 157.562 50.9172 157.588 50.9466C157.602 50.9627 157.615 50.9788 157.629 50.9949C157.645 51.0163 157.645 51.0163 157.629 50.9949C157.634 51.0029 157.639 51.0109 157.647 51.019C157.698 51.0886 157.741 51.161 157.781 51.236C157.789 51.2547 157.8 51.2735 157.808 51.2896C157.813 51.303 157.819 51.3137 157.824 51.3271C157.816 51.3056 157.813 51.303 157.821 51.319C157.835 51.3619 157.851 51.4021 157.864 51.445C157.875 51.4851 157.886 51.5226 157.894 51.5628C157.899 51.5816 157.902 51.603 157.904 51.6218C157.91 51.6486 157.91 51.6486 157.904 51.6218C157.904 51.6352 157.907 51.6486 157.91 51.662C157.921 51.7825 158.009 51.8977 158.14 51.8924C158.255 51.887 158.384 51.7906 158.371 51.662H158.368Z" fill="#231F20"/>
<path d="M169.737 24.6316C170.08 25.347 170.369 26.1561 170.16 26.9196C169.876 27.9511 168.711 28.562 167.644 28.4762C166.578 28.3878 165.63 27.7448 164.89 26.9732C164.148 26.2016 163.567 25.2934 162.875 24.4762C161.662 23.0429 160.108 21.9016 158.377 21.1701C157.702 20.8862 156.989 20.6584 156.384 20.2432C155.778 19.8279 155.277 19.1742 155.277 18.4401C155.277 15.1661 161.027 15.5761 162.8 16.9237C165.514 18.9813 168.253 21.5265 169.737 24.6289V24.6316Z" fill="#594F59"/>
<path d="M123.208 3.12851C122.838 3.53842 122.166 3.68845 121.713 3.36963C121.563 3.26514 121.448 3.11779 121.356 2.95972C120.834 2.04613 121.429 0.481495 122.621 0.489533C123.837 0.49757 123.8 2.46943 123.208 3.12851Z" fill="#594F59"/>
<path d="M163.157 35.718C163.42 35.6403 163.693 35.5948 163.967 35.6109C164.32 35.6323 164.661 35.7609 164.985 35.9029C165.81 36.2619 166.616 36.7388 167.163 37.4541C167.709 38.1722 167.951 39.1715 167.586 39.9967C167.423 40.3691 167.147 40.6852 166.844 40.9585C165.665 42.0194 163.972 42.4776 162.418 42.1588L163.471 41.5693C163.551 41.3657 163.246 41.2505 163.032 41.221C161.764 41.0523 160.797 39.7609 160.867 38.4856C160.934 37.2103 161.933 36.0744 163.16 35.7127L163.157 35.718Z" fill="#FCAE12"/>
<g opacity="0.18">
<path opacity="0.18" d="M174.494 78.0354C171.587 79.7206 169.297 82.3836 169.136 85.3602C169.015 87.5678 170.047 89.7111 170.296 91.9134C170.767 96.1036 168.399 100.096 166.1 103.82C162.751 109.24 159.405 114.662 156.056 120.082C154.891 121.968 153.707 123.905 153.385 126.016C152.627 130.965 157.088 135.806 162.684 137.489C168.281 139.168 174.596 138.172 179.893 135.953C185.189 133.735 189.68 130.394 194.167 127.152C204.091 119.986 214.574 113.009 226.885 109.272C237.519 106.043 248.978 105.392 260.206 104.195C275.089 102.609 290.708 99.6321 301.358 90.7775C302.317 89.9817 303.268 89.0735 303.482 87.9536C303.82 86.188 302.229 84.5564 300.492 83.5089C295 80.1948 287.737 80.184 280.999 80.2135C262.357 80.2966 243.708 79.6884 225.117 78.3944C215.734 77.7407 206.368 76.9128 197.026 75.9081C188.688 75.0133 181.87 73.7621 174.491 78.0354H174.494Z" fill="white"/>
</g>
<path d="M136.118 31.3404C136.252 31.1019 136.415 30.8769 136.622 30.7C136.892 30.4696 137.224 30.325 137.557 30.199C138.401 29.8802 139.309 29.6578 140.198 29.7891C141.09 29.9204 141.961 30.4669 142.277 31.3109C142.422 31.694 142.446 32.1119 142.419 32.5192C142.315 34.1026 141.425 35.6136 140.091 36.4709L140.434 35.3136C140.348 35.1126 140.051 35.2412 139.874 35.3725C138.851 36.1361 137.257 35.8896 136.415 34.9278C135.571 33.9659 135.494 32.4576 136.118 31.343V31.3404Z" fill="#FCAE12"/>
<path d="M161.574 38.6518C160.666 39.5359 160.644 40.988 161.529 41.8963C162.413 42.8045 163.865 42.8259 164.773 41.9418C165.681 41.0577 165.703 39.6056 164.819 38.6973C163.934 37.7891 162.482 37.7677 161.574 38.6518Z" fill="#231F20"/>
<path d="M163.708 39.7823C163.427 40.1252 163.475 40.6316 163.818 40.9129C164.161 41.1942 164.667 41.146 164.949 40.803C165.23 40.4601 165.182 39.9537 164.839 39.6724C164.496 39.3911 163.99 39.4393 163.708 39.7823Z" fill="white"/>
<path d="M137.493 33.2744C136.802 34.3353 137.102 35.7579 138.163 36.4492C139.224 37.1404 140.646 36.8403 141.338 35.7794C142.029 34.7184 141.729 33.2958 140.668 32.6046C139.607 31.9133 138.184 32.2134 137.493 33.2744Z" fill="#231F20"/>
<path d="M139.823 33.9076C139.622 34.3041 139.783 34.7863 140.179 34.9873C140.576 35.1882 141.058 35.0275 141.259 34.6309C141.46 34.2344 141.299 33.7522 140.903 33.5512C140.506 33.3503 140.024 33.5111 139.823 33.9076Z" fill="white"/>
<path d="M148.464 46.2092C147.944 45.8341 147.424 45.2367 147.62 44.6258C147.762 44.1811 148.263 43.873 148.279 43.4068C148.295 42.9139 147.706 42.5736 147.223 42.6781C146.741 42.7826 146.385 43.1871 146.128 43.6078C145.937 43.9185 145.777 44.2642 145.779 44.6285C145.785 45.1081 146.082 45.5448 146.463 45.8368C146.843 46.1289 147.301 46.2976 147.751 46.4584C148.325 46.6647 148.986 46.9058 149.584 46.7022C149.193 46.6191 148.801 46.453 148.464 46.2092Z" fill="#FCAE12"/>
<path d="M174.368 9.81571C172.886 10.1372 171.423 9.19415 171.102 7.71257C170.78 6.23099 171.724 4.76817 173.205 4.44667C174.689 4.12517 176.149 5.06824 176.471 6.54981C176.792 8.03139 175.849 9.49421 174.368 9.81571Z" fill="#231F20"/>
<path d="M172.747 5.64421C172.399 6.07287 172.356 6.76142 172.742 7.15793C172.868 7.28921 173.031 7.3803 173.202 7.44728C174.186 7.81968 175.638 6.99182 175.448 5.81567C175.252 4.61541 173.31 4.95834 172.75 5.64689L172.747 5.64421Z" fill="#594F59"/>
<path d="M120.853 60.7334C121.817 60.7334 122.741 59.8841 122.696 58.8901C122.65 57.8908 121.887 57.0469 120.853 57.0469C119.888 57.0469 118.964 57.8962 119.009 58.8901C119.055 59.8895 119.819 60.7334 120.853 60.7334Z" fill="#231F20"/>
<path d="M118.885 58.8847C118.781 61.9282 119.344 65.0039 120.348 67.8706C121.431 70.9597 122.963 73.8826 124.79 76.5939C126.709 79.4392 128.919 82.0942 131.327 84.535C133.752 86.9918 136.386 89.2342 139.167 91.2784C141.658 93.111 144.289 94.7667 147.059 96.1491C147.376 96.3072 147.694 96.4626 148.016 96.6126C148.474 96.827 148.932 96.9368 149.436 96.7975C149.865 96.6796 150.328 96.3501 150.537 95.9509C150.968 95.1337 150.808 93.8665 149.875 93.4271C147.126 92.1357 144.514 90.5658 142.033 88.819C141.283 88.2912 140.546 87.7446 139.82 87.1847C139.944 87.2811 140.07 87.3776 140.193 87.474C137.101 85.0788 134.221 82.405 131.641 79.466C130.907 78.6301 130.197 77.7701 129.516 76.8886C129.613 77.0119 129.709 77.1378 129.806 77.261C127.654 74.4747 125.774 71.4607 124.402 68.2135C124.463 68.3609 124.525 68.5082 124.587 68.6529C123.673 66.4774 122.995 64.2028 122.682 61.8639C122.703 62.0273 122.725 62.1908 122.749 62.3542C122.599 61.2048 122.537 60.0447 122.577 58.8847C122.609 57.9202 121.704 56.9959 120.734 57.0414C119.705 57.087 118.926 57.8505 118.891 58.8847H118.885Z" fill="#231F20"/>
<g opacity="0.46">
<path opacity="0.46" d="M104.942 65.4032C102.905 65.9256 100.775 65.9363 98.7017 66.2873C96.7138 66.6249 94.7795 67.2759 92.9925 68.2136C90.3883 69.5773 87.8913 71.5974 84.9523 71.5465C81.4131 71.4849 78.4205 67.7447 79.1385 64.2779C79.6449 61.8318 81.5873 59.9537 83.6074 58.4856C89.8578 53.9471 97.1773 52.7334 104.607 54.5311C106.884 55.0803 109.193 55.6189 110.013 58.073C111.238 61.7354 108.205 64.5673 104.939 65.4032H104.942Z" fill="white"/>
</g>
<path d="M67.6619 87.7849C65.9097 88.7789 64.1013 89.6711 62.2473 90.4561C62.3946 90.3945 62.542 90.3328 62.6867 90.2712C59.2198 91.7314 55.603 92.8218 51.9084 93.5344C50.8582 93.7381 49.8026 93.9068 48.7443 94.0515C48.9077 94.0301 49.0712 94.0086 49.2346 93.9845C45.3632 94.4989 41.4382 94.6168 37.5427 94.3275C36.4309 94.2444 35.319 94.1265 34.2152 93.9792C34.3786 94.0006 34.5421 94.022 34.7055 94.0461C30.9922 93.5425 27.3298 92.6744 23.796 91.4286C22.8047 91.0776 21.8214 90.6999 20.8516 90.29C20.9989 90.3516 21.1463 90.4132 21.2909 90.4748C19.437 89.6898 17.6258 88.803 15.8737 87.8091C15.0351 87.3322 13.8188 87.5813 13.3499 88.4708C12.8891 89.3442 13.1141 90.4855 14.0117 90.9946C17.3124 92.8646 20.8248 94.3837 24.4416 95.5304C28.0719 96.6798 31.8147 97.4246 35.5977 97.8372C39.2494 98.2364 42.9386 98.2792 46.5983 97.9631C50.3866 97.6362 54.1535 96.9691 57.8052 95.9055C61.4301 94.8526 64.964 93.4219 68.2968 91.6429C68.7067 91.4232 69.114 91.1982 69.5185 90.9705C70.3571 90.4936 70.7161 89.2772 70.1803 88.4467C69.6337 87.6001 68.554 87.2759 67.6565 87.7849H67.6619Z" fill="#231F20"/>
<path d="M20.5429 90.1344C20.5429 90.1344 20.0205 84.2805 18.271 84.1117C16.5215 83.9429 -1.027 86.3541 0.0473448 87.8277C1.12437 89.3012 17.0118 91.9884 17.0118 91.9884L20.5403 90.1344H20.5429Z" fill="#231F20"/>
<path d="M62.3432 148.336C62.3432 148.336 57.2715 145.392 56.2829 146.935C55.2943 148.478 54.086 167.613 55.0907 167.112C56.0927 166.611 63.5649 151.211 63.5649 151.211L62.3432 148.336Z" fill="#231F20"/>
<g opacity="0.46">
<path opacity="0.46" d="M92.2231 17.3203C91.406 17.7169 90.7067 18.3545 90.2379 19.1341C89.686 20.0477 89.4582 21.1167 89.0055 22.0839C88.5527 23.0511 87.7516 23.9754 86.6907 24.0799C85.3323 24.2111 84.2312 22.96 83.7034 21.7034C82.3719 18.5206 83.2721 14.542 85.8441 12.2433C88.4402 9.92317 93.4689 9.29089 96.5018 11.2333C97.8011 12.0665 98.3665 13.2185 97.5841 14.684C96.5232 16.6666 94.0048 16.4576 92.2258 17.323L92.2231 17.3203Z" fill="white"/>
</g>
<path d="M146.595 92.2937C149.306 92.6607 152.159 91.7739 154.182 89.9333C154.42 89.7163 154.696 89.4725 155.015 89.5127C155.589 89.5877 155.626 90.3995 155.503 90.9648C155.24 92.1758 154.978 93.3868 154.718 94.5977C154.592 95.1845 154.471 95.8221 154.737 96.3579C155.039 96.9741 155.747 97.2555 156.374 97.5314C158.187 98.3271 159.996 99.7632 160.14 101.738C160.312 104.128 157.756 106.046 155.361 105.939C152.966 105.831 150.879 104.261 149.276 102.48C146.211 99.0612 144.272 94.6084 140.609 91.8382C140.917 91.9373 141.226 92.0391 141.534 92.1383L146.592 92.291L146.595 92.2937Z" fill="#231F20"/>
<path d="M169.922 66.121C168.441 65.7459 166.745 65.4941 165.491 66.3701C164.041 67.3829 163.859 69.6092 164.743 71.1417C165.627 72.6742 167.297 73.5932 168.987 74.1076C171.163 74.7666 174.552 74.1906 175.023 71.4873C175.554 68.4626 172.307 66.7265 169.919 66.121H169.922Z" fill="#231F20"/>
</svg>
