<svg width="305" height="168" viewBox="0 0 305 168" fill="none" xmlns="http://www.w3.org/2000/svg">
<path d="M221.484 9.2196C217.031 5.33214 210.374 5.8385 205.658 8.91954C200.943 12.0033 197.787 17.1365 195.049 22.2805C191.641 28.6837 187.995 43.9442 185.447 50.8189L180.729 54.7895C189.465 54.1411 205.141 45.7393 212.273 40.5604C217.176 36.9998 222.017 32.8686 224.469 27.0655C226.92 21.2624 226.261 13.3911 221.484 9.2196Z" fill="#B2DEE7"/>
<path d="M200.175 50.3395L200.25 44.5364C206.375 40.7963 213.681 37.9832 220.647 39.7086C222.3 40.1185 223.923 40.799 225.172 41.9537C227.972 44.5418 228.226 49.2142 226.209 52.4507C224.191 55.6844 220.325 57.4875 216.516 57.6214C209.925 57.8545 199.717 50.1519 200.175 50.3395Z" fill="#B2DEE7"/>
<path d="M220.026 44.0382C221.679 44.4481 223.303 45.1286 224.551 46.2833C225.92 47.5479 226.676 49.3134 226.861 51.1621C228.117 48.0676 227.613 44.215 225.17 41.9538C223.922 40.7991 222.298 40.1186 220.645 39.7086C213.679 37.9833 202.78 38.8486 193.709 50.3449L200.198 48.5231C206.204 44.9571 213.275 42.3637 220.029 44.0355L220.026 44.0382Z" fill="#BEEDF4"/>
<path d="M168.733 8.67886C173.617 6.87578 179.278 9.38616 182.584 13.4076C185.891 17.429 187.305 22.6507 188.353 27.7491C189.657 34.0961 190.531 40.5287 190.965 46.9935L186.63 53.4128C179.195 50.1308 173.483 43.9018 168.621 37.3888C165.277 32.9119 162.134 27.9903 161.507 22.439C160.881 16.8878 163.493 10.6105 168.733 8.67618V8.67886Z" fill="#B2DEE7"/>
<path d="M189.483 51.1621C192.031 44.2874 196.364 33.2305 199.771 26.8273C202.51 21.6833 205.666 16.55 210.381 13.4663C214.349 10.8729 219.688 10.1147 223.938 12.2527C223.292 11.1167 222.477 10.0852 221.483 9.21716C217.031 5.3297 210.373 5.83606 205.658 8.9171C200.942 12.0008 197.786 17.1341 195.048 22.2781C191.983 28.0383 189.138 41.0269 186.301 48.3088C185.746 49.7341 183.627 49.9645 184.334 51.3229L187.091 56.6062C188.224 56.5231 189.483 51.1594 189.483 51.1594V51.1621Z" fill="#BEEDF4"/>
<path d="M208.92 105.626C208.778 106.35 208.657 107.079 208.558 107.81C208.58 107.647 208.601 107.483 208.625 107.32C208.173 110.703 208.189 114.138 208.641 117.522C208.62 117.359 208.599 117.195 208.574 117.032C209.043 120.477 209.965 123.853 211.313 127.057C211.251 126.91 211.189 126.762 211.128 126.618C212.398 129.621 214.035 132.458 216.022 135.044C215.926 134.92 215.83 134.795 215.733 134.671C217.667 137.176 219.923 139.416 222.423 141.353C222.3 141.257 222.174 141.16 222.051 141.064C224.719 143.121 227.647 144.828 230.75 146.143C230.602 146.082 230.455 146.02 230.31 145.959C233.499 147.304 236.853 148.231 240.282 148.697C240.119 148.675 239.955 148.654 239.792 148.63C241.716 148.887 243.658 148.997 245.6 148.951C246.565 148.93 247.489 149.814 247.444 150.794C247.398 151.813 246.635 152.616 245.6 152.638C241.019 152.742 236.389 152.016 232.052 150.548C227.548 149.024 223.379 146.746 219.639 143.818C216.009 140.975 212.915 137.458 210.522 133.519C208.106 129.546 206.375 125.109 205.453 120.555C204.497 115.837 204.371 111.036 205.086 106.278C205.169 105.731 205.263 105.184 205.37 104.641C205.555 103.692 206.739 103.063 207.639 103.352C208.649 103.679 209.126 104.603 208.928 105.621L208.92 105.626Z" fill="#231F20"/>
<path d="M163.753 66.1812C160.147 69.5837 155.732 71.9735 151.03 73.4846C148.777 74.2079 146.459 74.7224 144.121 75.0599C141.599 75.4216 139.052 75.6413 136.504 75.6199C133.318 75.5931 130.141 75.1215 127.261 73.7043C126.393 73.2783 126.087 71.9762 126.599 71.1805C127.172 70.291 128.193 70.0606 129.123 70.5187C129.366 70.6393 129.613 70.7518 129.862 70.859C129.715 70.7974 129.567 70.7358 129.423 70.6741C130.768 71.2368 132.185 71.5797 133.626 71.778C133.463 71.7565 133.299 71.7351 133.136 71.711C136.445 72.1477 139.871 71.9414 143.169 71.502C143.006 71.5234 142.843 71.5449 142.679 71.569C146.251 71.0867 149.771 70.2026 153.096 68.8014C152.948 68.863 152.801 68.9246 152.656 68.9863C155.086 67.9521 157.396 66.642 159.488 65.0265C159.365 65.1229 159.239 65.2194 159.116 65.3158C159.82 64.7666 160.501 64.1852 161.149 63.5717C161.851 62.9099 163.07 62.8242 163.756 63.5717C164.415 64.2897 164.506 65.4739 163.756 66.1812H163.753Z" fill="#231F20"/>
<path d="M168.901 71.8347C166.94 77.6485 166.086 95.047 176.264 106.372C186.442 117.694 207.704 134.699 230.536 112.981C254.637 90.053 241.592 66.2272 222.11 54.747C203.613 43.8455 189.183 51.3606 189.183 51.3606L168.901 71.8374V71.8347Z" fill="#231F20"/>
<path d="M175.89 105.938C175.933 105.927 175.975 105.919 176.018 105.908C178.111 105.388 180.16 104.66 182.154 103.77C184.951 102.447 187.603 100.799 190.065 98.8753C191.466 97.7259 192.782 96.4855 194.081 95.2236C198.553 90.8753 202.804 86.2779 206.604 81.3375C207.389 80.2953 208.157 79.2424 208.897 78.168C211.212 74.803 213.272 71.2638 214.898 67.5559C215.806 65.3857 216.565 63.162 217.109 60.9008C217.315 60.0408 217.486 59.1781 217.634 58.3128C217.642 58.2538 217.65 58.1976 217.658 58.1386C217.685 57.9484 217.709 57.7609 217.733 57.5706C217.784 57.1634 217.827 56.7562 217.864 56.3463C217.977 55.0924 218.017 53.8386 218.003 52.5901C214.239 50.8433 210.692 49.8305 207.458 49.3054C207.485 52.4159 206.912 55.6202 205.894 58.6477C204.366 63.1862 201.944 67.4487 199.048 71.3442C194.791 77.0723 189.725 82.3636 184.166 86.8485C179.823 90.3502 174.971 93.2973 169.776 94.886C171.054 98.7761 173.015 102.605 175.892 105.938H175.89Z" fill="#FDD615"/>
<path d="M236.566 79.647C234.086 85.2277 230.678 90.3717 226.876 95.2129C224.462 98.2859 221.855 101.212 219.128 104.017C215.857 107.379 212.443 110.658 208.781 113.584C205.469 116.228 201.901 118.532 198.212 120.55C197.7 120.831 197.183 121.104 196.663 121.378C200.39 122.798 204.387 123.607 208.58 123.438C211.878 121.469 215.047 119.272 218.075 116.874C219.27 115.907 220.443 114.913 221.587 113.887C225.769 110.136 229.595 105.991 233.019 101.546C233.917 100.357 234.787 99.1513 235.626 97.9242C238.664 93.4661 241.284 88.7534 243.449 83.864C242.999 79.5987 241.587 75.5291 239.457 71.7595C238.686 74.4333 237.718 77.0616 236.569 79.6497L236.566 79.647Z" fill="#FDD615"/>
<path d="M201.377 53.5789L201.372 53.6058C201.372 53.6058 201.374 53.5869 201.377 53.5789Z" fill="#FDD615"/>
<path d="M172.095 88.0406C175.069 86.634 177.858 84.8202 180.468 82.7653C183.147 80.5818 185.681 78.1786 188.09 75.6977C190.158 73.5678 192.125 71.336 193.936 68.9864C196.119 66.0715 198.054 62.9717 199.514 59.6709C200.181 58.0608 200.736 56.4131 201.127 54.7359C201.207 54.3903 201.279 54.042 201.346 53.6937C201.373 53.5544 201.397 53.4178 201.421 53.2785C201.507 52.681 201.574 52.0836 201.614 51.4861C201.676 50.5966 201.676 49.7125 201.638 48.8311C194 48.8445 189.183 51.3548 189.183 51.3548L168.902 71.8317C167.803 75.0895 167.053 81.983 168.395 89.407C169.652 89.0319 170.887 88.5711 172.098 88.0352L172.095 88.0406Z" fill="#FDD615"/>
<path d="M230.444 113.01C230.254 113.209 230.061 113.402 229.868 113.597C230.09 113.394 230.31 113.193 230.532 112.981C233.833 109.841 236.432 106.685 238.42 103.545C235.968 106.867 233.297 110.037 230.444 113.01Z" fill="#FDD615"/>
<path d="M191.035 117.93C196.219 115.524 201.235 112.529 205.771 108.944C207.26 107.725 208.686 106.423 210.095 105.107C214.928 100.601 219.504 95.7812 223.531 90.5434C224.31 89.5093 225.071 88.4591 225.8 87.3928C228.115 84.0036 230.148 80.4377 231.777 76.7109C232.503 74.9775 233.144 73.2146 233.685 71.4276C234.269 69.4879 234.724 67.5241 235.107 65.5549C231.895 61.7666 227.967 58.4364 223.673 55.709C223.429 58.8195 222.81 61.9434 221.843 64.9655C220.048 70.5649 217.184 75.8858 213.803 80.794C208.718 88.1777 202.569 94.9962 195.962 101.073C191.424 105.249 186.033 108.569 180.302 110.538C183.161 113.26 186.526 116.004 190.293 118.259C190.54 118.152 190.789 118.042 191.035 117.933V117.93Z" fill="#FDD615"/>
<path d="M157.679 59.1752C157.679 59.1752 154.868 68.1397 162.638 75.2421C167.551 79.7324 179.013 78.8885 185.625 70.6634C192.234 62.4384 192.958 51.9736 186.418 47.5449C177.186 41.2945 173.451 46.1812 173.451 46.1812L157.679 59.1725V59.1752Z" fill="#231F20"/>
<path d="M160.176 67.4623C160.479 69.0724 161.623 70.5004 163.131 71.1434C164.125 71.5667 165.299 71.6498 166.274 71.189C167.249 70.7255 167.959 69.6592 167.833 68.5875C167.683 67.3069 166.499 66.4013 166.044 65.1957C165.8 64.5446 165.776 63.8293 165.569 63.1649C164.972 61.252 162.984 61.694 161.727 62.7335C160.444 63.7972 159.876 65.8655 160.176 67.4623Z" fill="#594F59"/>
<path d="M152.618 12.7588C142.172 13.8679 129.315 22.8378 128.908 35.9683C128.554 47.3039 135.78 62.2295 157.569 61.265C175.589 60.4693 183.177 48.2791 181.909 35.829C180.495 21.9161 170.569 10.8512 152.621 12.7588H152.618Z" fill="#FDD615"/>
<path d="M182 36.6515C181.973 36.3648 181.949 36.0808 181.914 35.7915C180.24 21.908 170.573 10.8136 152.626 12.7212C142.18 13.8304 129.322 22.8002 128.915 35.9308C128.786 40.0701 129.609 44.5925 131.766 48.6193L131.814 48.6112C129.542 42.5724 130.292 35.4941 137.328 32.1505C142.702 29.5946 150.817 36.3139 150.817 36.3139C150.817 36.3139 153.397 25.6026 164.95 25.2034C177.721 24.7613 181.997 36.6622 181.997 36.6622V36.6541L182 36.6515Z" fill="#231F20"/>
<path d="M180.537 3.29087C178.779 3.95263 177.258 5.12342 175.889 6.40942C172.837 9.27076 170.404 12.7885 168.8 16.6519L168.762 18.1736C169.373 19.3578 170.956 19.9258 172.181 19.398C172.424 19.2935 172.657 19.1462 172.816 18.9345C173.043 18.6291 173.086 18.2272 173.134 17.8494C173.804 12.4911 176.842 7.47304 181.279 4.39469C181.552 4.20715 181.863 3.95263 181.82 3.62577C181.756 3.11673 181.014 3.11405 180.534 3.29355L180.537 3.29087Z" fill="#231F20"/>
<path d="M184.091 3.4168C184.179 4.93052 183.022 6.22992 181.506 6.31833C179.992 6.40674 178.692 5.24934 178.607 3.73294C178.518 2.21921 179.676 0.919819 181.192 0.831406C182.706 0.742994 184.005 1.90039 184.094 3.4168H184.091Z" fill="#231F20"/>
<path d="M129.247 8.58247C128.749 10.3936 128.8 12.3119 129.036 14.1739C129.555 18.3239 130.967 22.3614 133.148 25.93L134.356 26.8544C135.672 27.058 137.065 26.1095 137.357 24.8102C137.416 24.5503 137.435 24.277 137.354 24.0252C137.239 23.6608 136.942 23.3902 136.663 23.1303C132.725 19.4358 130.453 14.0292 130.573 8.6307C130.582 8.29848 130.56 7.89928 130.271 7.73854C129.823 7.49205 129.384 8.08951 129.247 8.58247Z" fill="#231F20"/>
<path d="M136.28 34.4979C136.523 34.3988 136.791 34.3264 137.051 34.3773C137.311 34.4282 137.555 34.6238 137.592 34.8837C137.646 35.2615 137.287 35.5562 136.968 35.7651L136.274 36.2206C136.046 36.3706 135.813 36.5233 135.663 36.7511C135.446 37.0753 135.366 38.0665 134.817 38.0317C134.332 38.0022 134.308 37.2923 134.353 36.9574C134.493 35.8964 135.299 34.8998 136.277 34.4979H136.28Z" fill="#231F20"/>
<path d="M164.656 26.7874C164.396 26.8356 164.134 26.9213 163.944 27.1062C163.753 27.2884 163.654 27.5857 163.764 27.8269C163.925 28.1725 164.386 28.2261 164.769 28.2287C165.045 28.2287 165.321 28.2314 165.597 28.2341C165.867 28.2341 166.149 28.2395 166.398 28.3466C166.757 28.502 167.362 29.2897 167.804 28.9628C168.195 28.6735 167.828 28.068 167.609 27.8081C166.915 26.9936 165.696 26.5945 164.656 26.79V26.7874Z" fill="#231F20"/>
<path d="M154.832 55.7219C149.391 55.9389 147.1 52.724 146.985 52.5552C146.872 52.3891 146.905 52.1587 147.063 52.0408C147.218 51.9202 147.438 51.9577 147.55 52.1238C147.582 52.172 150.854 56.7615 158.99 54.2109C166.738 51.7836 166.572 45.6001 166.57 45.5384C166.562 45.3348 166.712 45.1634 166.904 45.1553C167.097 45.1473 167.261 45.3054 167.269 45.509C167.272 45.576 167.456 52.3274 159.191 54.9182C157.557 55.4299 156.107 55.671 154.832 55.7219Z" fill="#231F20"/>
<path d="M166.044 44.0709C166.812 43.7226 167.739 43.8646 168.358 44.4433C168.575 44.6469 168.248 44.9737 168.031 44.7701C167.573 44.3388 166.85 44.2102 166.277 44.47C166.164 44.5209 166.027 44.5022 165.96 44.387C165.902 44.2879 165.928 44.1244 166.044 44.0709Z" fill="#231F20"/>
<path d="M145.779 52.4884C145.862 51.615 146.58 50.8996 147.453 50.8219C147.574 50.8112 147.689 50.9345 147.683 51.0523C147.678 51.1863 147.582 51.272 147.453 51.2828C147.44 51.2828 147.426 51.2828 147.413 51.2854C147.437 51.2828 147.44 51.2801 147.424 51.2854C147.399 51.2881 147.375 51.2935 147.354 51.2988C147.314 51.3069 147.274 51.3176 147.236 51.3283C147.196 51.339 147.158 51.3524 147.121 51.3658C147.107 51.3712 147.097 51.3765 147.083 51.3819C147.105 51.3738 147.107 51.3712 147.091 51.3792C147.073 51.3872 147.054 51.3953 147.035 51.406C146.96 51.4435 146.885 51.4864 146.815 51.5373C146.81 51.5426 146.754 51.5828 146.772 51.5667C146.791 51.5507 146.746 51.5882 146.74 51.5935C146.706 51.623 146.673 51.6525 146.641 51.6846C146.612 51.7141 146.585 51.7436 146.558 51.773C146.545 51.7891 146.531 51.8052 146.518 51.8213C146.502 51.8427 146.502 51.8427 146.518 51.8213C146.513 51.8293 146.507 51.8373 146.499 51.8454C146.448 51.915 146.405 51.9874 146.365 52.0624C146.357 52.0811 146.347 52.0999 146.338 52.116C146.333 52.1294 146.328 52.1401 146.322 52.1535C146.33 52.1321 146.333 52.1294 146.325 52.1454C146.312 52.1883 146.296 52.2285 146.282 52.2714C146.272 52.3116 146.261 52.3491 146.253 52.3892C146.247 52.408 146.245 52.4294 146.242 52.4482C146.237 52.475 146.237 52.475 146.242 52.4482C146.242 52.4616 146.239 52.475 146.237 52.4884C146.226 52.6089 146.138 52.7241 146.006 52.7188C145.891 52.7134 145.762 52.617 145.776 52.4884H145.779Z" fill="#231F20"/>
<path d="M134.41 25.458C134.067 26.1734 133.777 26.9825 133.986 27.746C134.27 28.7775 135.436 29.3884 136.502 29.3026C137.568 29.2142 138.517 28.5712 139.256 27.7996C139.998 27.028 140.58 26.1198 141.271 25.3027C142.485 23.8693 144.039 22.728 145.769 21.9966C146.444 21.7126 147.157 21.4848 147.763 21.0696C148.368 20.6543 148.869 20.0006 148.869 19.2665C148.869 15.9926 143.12 16.4025 141.346 17.7501C138.632 19.8077 135.894 22.3529 134.41 25.4554V25.458Z" fill="#594F59"/>
<path d="M180.939 3.95517C181.308 4.36508 181.981 4.51511 182.434 4.19629C182.584 4.0918 182.699 3.94445 182.79 3.78638C183.312 2.87279 182.718 1.30816 181.525 1.31619C180.309 1.32423 180.347 3.29609 180.939 3.95517Z" fill="#594F59"/>
<path d="M140.989 36.5445C140.726 36.4668 140.453 36.4212 140.18 36.4373C139.826 36.4587 139.486 36.5873 139.162 36.7293C138.337 37.0883 137.53 37.5652 136.984 38.2806C136.437 38.9986 136.196 39.9979 136.56 40.8231C136.724 41.1955 137 41.5116 137.302 41.7849C138.481 42.8458 140.175 43.304 141.728 42.9852L140.676 42.3958C140.595 42.1921 140.901 42.0769 141.115 42.0475C142.382 41.8787 143.349 40.5873 143.28 39.312C143.213 38.0368 142.213 36.9008 140.986 36.5391L140.989 36.5445Z" fill="#FCAE12"/>
<g opacity="0.18">
<path opacity="0.18" d="M129.65 78.8618C132.557 80.547 134.848 83.2101 135.009 86.1866C135.129 88.3942 134.098 90.5376 133.849 92.7398C133.377 96.93 135.745 100.922 138.044 104.646C141.393 110.066 144.739 115.489 148.088 120.909C149.254 122.795 150.438 124.732 150.76 126.843C151.518 131.791 147.057 136.633 141.46 138.315C135.863 139.995 129.549 138.998 124.252 136.78C118.955 134.562 114.465 131.221 109.977 127.979C100.054 120.812 89.5701 113.836 77.2594 110.098C66.6258 106.87 55.167 106.219 43.9386 105.021C29.0559 103.435 13.4364 100.458 2.78673 91.6039C1.82758 90.8082 0.876465 89.8999 0.662125 88.78C0.324554 87.0145 1.91599 85.3829 3.65208 84.3353C9.14436 81.0212 16.4076 81.0105 23.1457 81.0399C41.7873 81.123 60.4369 80.5148 79.0276 79.2208C88.41 78.5671 97.7764 77.7392 107.119 76.7345C115.456 75.8397 122.275 74.5885 129.653 78.8618H129.65Z" fill="white"/>
</g>
<path d="M168.029 32.167C167.895 31.9286 167.731 31.7035 167.525 31.5267C167.254 31.2963 166.922 31.1516 166.59 31.0257C165.746 30.7069 164.838 30.4845 163.948 30.6158C163.056 30.7471 162.185 31.2936 161.869 32.1375C161.725 32.5207 161.7 32.9386 161.727 33.3458C161.832 34.9292 162.721 36.4403 164.055 37.2976L163.712 36.1402C163.798 35.9393 164.096 36.0679 164.272 36.1992C165.296 36.9627 166.89 36.7162 167.731 35.7544C168.575 34.7926 168.653 33.2842 168.029 32.1697V32.167Z" fill="#FCAE12"/>
<path d="M142.574 39.4782C143.483 40.3623 143.504 41.8144 142.62 42.7227C141.736 43.6309 140.284 43.6523 139.375 42.7682C138.467 41.8841 138.446 40.432 139.33 39.5238C140.214 38.6155 141.666 38.5941 142.574 39.4782Z" fill="#231F20"/>
<path d="M140.44 40.6087C140.721 40.9516 140.673 41.458 140.33 41.7393C139.987 42.0206 139.481 41.9724 139.2 41.6294C138.918 41.2865 138.967 40.7801 139.31 40.4988C139.652 40.2175 140.159 40.2657 140.44 40.6087Z" fill="white"/>
<path d="M166.653 34.101C167.345 35.162 167.045 36.5846 165.984 37.2758C164.923 37.9671 163.5 37.667 162.809 36.606C162.118 35.5451 162.418 34.1225 163.479 33.4312C164.54 32.74 165.962 33.0401 166.653 34.101Z" fill="#231F20"/>
<path d="M164.324 34.7342C164.524 35.1307 164.364 35.613 163.967 35.8139C163.571 36.0149 163.088 35.8541 162.887 35.4576C162.687 35.0611 162.847 34.5788 163.244 34.3779C163.64 34.177 164.123 34.3377 164.324 34.7342Z" fill="white"/>
<path d="M155.683 47.0359C156.202 46.6608 156.722 46.0634 156.527 45.4525C156.385 45.0078 155.884 44.6997 155.867 44.2335C155.851 43.7405 156.441 43.4003 156.923 43.5048C157.405 43.6092 157.762 44.0138 158.019 44.4344C158.209 44.7452 158.37 45.0908 158.367 45.4552C158.362 45.9348 158.064 46.3715 157.684 46.6635C157.304 46.9555 156.845 47.1243 156.395 47.2851C155.822 47.4913 155.16 47.7325 154.563 47.5289C154.954 47.4458 155.345 47.2797 155.683 47.0359Z" fill="#FCAE12"/>
<path d="M129.779 10.6424C131.26 10.9639 132.723 10.0208 133.045 8.53923C133.366 7.05765 132.423 5.59483 130.941 5.27333C129.457 4.95183 127.997 5.8949 127.676 7.37647C127.354 8.85805 128.297 10.3209 129.779 10.6424Z" fill="#231F20"/>
<path d="M131.399 6.47087C131.748 6.89953 131.791 7.58808 131.405 7.98459C131.279 8.11587 131.115 8.20696 130.944 8.27394C129.961 8.64635 128.509 7.81848 128.699 6.64233C128.894 5.44207 130.837 5.785 131.397 6.47355L131.399 6.47087Z" fill="#594F59"/>
<path d="M183.294 61.5601C182.329 61.5601 181.405 60.7108 181.451 59.7168C181.496 58.7175 182.26 57.8735 183.294 57.8735C184.258 57.8735 185.183 58.7228 185.137 59.7168C185.092 60.7161 184.328 61.5601 183.294 61.5601Z" fill="#231F20"/>
<path d="M185.261 59.7113C185.366 62.7549 184.803 65.8305 183.798 68.6972C182.716 71.7863 181.183 74.7093 179.356 77.4206C177.438 80.2659 175.228 82.9209 172.819 85.3616C170.394 87.8184 167.761 90.0609 164.98 92.1051C162.488 93.9376 159.857 95.5933 157.087 96.9758C156.771 97.1339 156.452 97.2893 156.131 97.4393C155.672 97.6536 155.214 97.7635 154.711 97.6242C154.282 97.5063 153.818 97.1767 153.609 96.7775C153.178 95.9604 153.339 94.6931 154.271 94.2538C157.02 92.9624 159.632 91.3924 162.113 89.6456C162.863 89.1178 163.6 88.5713 164.326 88.0113C164.203 88.1078 164.077 88.2042 163.954 88.3007C167.045 85.9055 169.926 83.2317 172.506 80.2927C173.24 79.4568 173.95 78.5967 174.63 77.7153C174.534 77.8385 174.437 77.9645 174.341 78.0877C176.492 75.3014 178.373 72.2873 179.745 69.0402C179.683 69.1875 179.621 69.3349 179.56 69.4796C180.473 67.3041 181.151 65.0295 181.465 62.6906C181.443 62.854 181.422 63.0174 181.398 63.1808C181.548 62.0315 181.609 60.8714 181.569 59.7113C181.537 58.7468 182.443 57.8225 183.412 57.8681C184.441 57.9136 185.221 58.6772 185.256 59.7113H185.261Z" fill="#231F20"/>
<g opacity="0.46">
<path opacity="0.46" d="M199.205 66.2298C201.241 66.7523 203.371 66.763 205.445 67.1139C207.433 67.4515 209.367 68.1026 211.154 69.0403C213.758 70.404 216.255 72.424 219.194 72.3731C222.733 72.3115 225.726 68.5714 225.008 65.1046C224.502 62.6585 222.559 60.7804 220.539 59.3122C214.289 54.7737 206.969 53.5601 199.54 55.3578C197.263 55.907 194.953 56.4455 194.133 58.8996C192.909 62.562 195.942 65.3939 199.208 66.2298H199.205Z" fill="white"/>
</g>
<path d="M236.485 88.6116C238.237 89.6056 240.045 90.4977 241.899 91.2827C241.752 91.2211 241.604 91.1595 241.46 91.0979C244.927 92.558 248.544 93.6484 252.238 94.3611C253.288 94.5647 254.344 94.7335 255.402 94.8782C255.239 94.8567 255.075 94.8353 254.912 94.8112C258.783 95.3256 262.708 95.4435 266.604 95.1541C267.716 95.0711 268.827 94.9532 269.931 94.8058C269.768 94.8273 269.604 94.8487 269.441 94.8728C273.154 94.3691 276.817 93.5011 280.351 92.2553C281.342 91.9043 282.325 91.5265 283.295 91.1166C283.148 91.1782 283 91.2399 282.856 91.3015C284.71 90.5165 286.521 89.6297 288.273 88.6357C289.111 88.1588 290.328 88.408 290.797 89.2975C291.257 90.1709 291.032 91.3122 290.135 91.8212C286.834 93.6913 283.322 95.2104 279.705 96.3571C276.075 97.5064 272.332 98.2512 268.549 98.6638C264.897 99.063 261.208 99.1059 257.548 98.7898C253.76 98.4629 249.993 97.7958 246.341 96.7321C242.716 95.6792 239.183 94.2486 235.85 92.4696C235.44 92.2499 235.033 92.0249 234.628 91.7971C233.789 91.3202 233.43 90.1039 233.966 89.2734C234.513 88.4267 235.592 88.1026 236.49 88.6116H236.485Z" fill="#231F20"/>
<path d="M283.604 90.9611C283.604 90.9611 284.126 85.1071 285.875 84.9383C287.625 84.7696 305.173 87.1808 304.099 88.6543C303.022 90.1279 287.135 92.8151 287.135 92.8151L283.606 90.9611H283.604Z" fill="#231F20"/>
<path d="M241.803 149.163C241.803 149.163 246.875 146.219 247.864 147.762C248.852 149.305 250.061 168.44 249.056 167.939C248.054 167.438 240.582 152.038 240.582 152.038L241.803 149.163Z" fill="#231F20"/>
<g opacity="0.46">
<path opacity="0.46" d="M211.921 18.1468C212.739 18.5433 213.438 19.1809 213.907 19.9605C214.459 20.8741 214.686 21.9431 215.139 22.9103C215.592 23.8775 216.393 24.8018 217.454 24.9063C218.812 25.0376 219.913 23.7864 220.441 22.5299C221.773 19.347 220.872 15.3685 218.3 13.0697C215.704 10.7496 210.676 10.1173 207.643 12.0597C206.343 12.8929 205.778 14.045 206.56 15.5105C207.621 17.493 210.14 17.2841 211.919 18.1494L211.921 18.1468Z" fill="white"/>
</g>
<path d="M157.552 93.1203C154.841 93.4874 151.987 92.6006 149.964 90.76C149.726 90.543 149.45 90.2992 149.131 90.3393C148.558 90.4144 148.52 91.2261 148.644 91.7914C148.906 93.0024 149.169 94.2134 149.429 95.4244C149.555 96.0111 149.675 96.6488 149.41 97.1846C149.107 97.8008 148.4 98.0821 147.773 98.3581C145.959 99.1538 144.151 100.59 144.006 102.564C143.835 104.954 146.39 106.872 148.786 106.765C151.181 106.658 153.268 105.088 154.87 103.306C157.935 99.8879 159.875 95.4351 163.537 92.6649C163.229 92.764 162.921 92.8658 162.613 92.9649L157.555 93.1176L157.552 93.1203Z" fill="#231F20"/>
<path d="M134.224 66.9476C135.706 66.5726 137.402 66.3207 138.656 67.1968C140.105 68.2095 140.287 70.4359 139.403 71.9684C138.519 73.5009 136.85 74.4198 135.159 74.9342C132.984 75.5933 129.595 75.0173 129.123 72.314C128.593 69.2892 131.84 67.5531 134.227 66.9476H134.224Z" fill="#231F20"/>
</svg>
