<svg width="304" height="168" viewBox="0 0 304 168" fill="none" xmlns="http://www.w3.org/2000/svg">
<path d="M220.867 8.39294C216.414 4.50548 209.756 5.01184 205.041 8.09288C200.326 11.1766 197.17 16.3099 194.432 21.4539C191.024 27.8571 187.377 43.1176 184.83 49.9923L180.112 53.9628C188.848 53.3144 204.524 44.9126 211.656 39.7338C216.559 36.1732 221.4 32.0419 223.852 26.2388C226.303 20.4358 225.644 12.5644 220.867 8.39294Z" fill="#B2DEE7"/>
<path d="M199.558 49.5128L199.633 43.7098C205.758 39.9696 213.064 37.1565 220.03 38.8819C221.683 39.2918 223.306 39.9723 224.555 41.127C227.354 43.7151 227.609 48.3876 225.592 51.624C223.574 54.8577 219.708 56.6608 215.898 56.7948C209.308 57.0279 199.1 49.3253 199.558 49.5128Z" fill="#B2DEE7"/>
<path d="M219.409 43.2115C221.062 43.6214 222.685 44.3019 223.934 45.4567C225.303 46.7212 226.059 48.4868 226.243 50.3354C227.5 47.241 226.996 43.3883 224.553 41.1271C223.304 39.9724 221.681 39.2919 220.028 38.882C213.062 37.1566 202.163 38.022 193.091 49.5183L199.58 47.6964C205.587 44.1305 212.657 41.537 219.412 43.2088L219.409 43.2115Z" fill="#BEEDF4"/>
<path d="M168.116 7.8522C173 6.04912 178.661 8.5595 181.967 12.5809C185.273 16.6023 186.688 21.824 187.735 26.9225C189.04 33.2694 189.914 39.7021 190.348 46.1669L186.013 52.5862C178.578 49.3042 172.866 43.0751 168.003 36.5621C164.66 32.0852 161.517 27.1636 160.89 21.6124C160.263 16.0611 162.876 9.78387 168.116 7.84952V7.8522Z" fill="#B2DEE7"/>
<path d="M188.866 50.3355C191.414 43.4607 195.746 32.4038 199.154 26.0006C201.892 20.8566 205.048 15.7234 209.764 12.6397C213.732 10.0462 219.071 9.28802 223.32 11.426C222.675 10.29 221.86 9.25855 220.866 8.3905C216.413 4.50304 209.756 5.0094 205.04 8.09044C200.325 11.1742 197.169 16.3074 194.431 21.4514C191.366 27.2116 188.521 40.2002 185.683 47.4822C185.129 48.9075 183.01 49.1379 183.717 50.4962L186.474 55.7795C187.607 55.6965 188.866 50.3328 188.866 50.3328V50.3355Z" fill="#BEEDF4"/>
<path d="M208.303 104.8C208.161 105.523 208.04 106.252 207.941 106.983C207.963 106.82 207.984 106.656 208.008 106.493C207.555 109.877 207.571 113.312 208.024 116.695C208.003 116.532 207.981 116.368 207.957 116.205C208.426 119.65 209.348 123.026 210.695 126.23C210.634 126.083 210.572 125.936 210.51 125.791C211.78 128.794 213.417 131.632 215.405 134.217C215.309 134.094 215.212 133.968 215.116 133.845C217.05 136.35 219.306 138.589 221.806 140.526C221.683 140.43 221.557 140.334 221.433 140.237C224.102 142.295 227.03 144.001 230.133 145.317C229.985 145.255 229.838 145.194 229.693 145.132C232.881 146.477 236.236 147.404 239.665 147.87C239.502 147.849 239.338 147.827 239.175 147.803C241.098 148.06 243.041 148.17 244.983 148.125C245.948 148.103 246.872 148.987 246.827 149.968C246.781 150.986 246.017 151.79 244.983 151.811C240.402 151.916 235.772 151.19 231.435 149.721C226.931 148.197 222.762 145.92 219.022 142.991C215.392 140.149 212.297 136.631 209.905 132.693C207.488 128.719 205.758 124.283 204.836 119.728C203.88 115.01 203.754 110.209 204.469 105.451C204.552 104.904 204.646 104.358 204.753 103.814C204.938 102.865 206.122 102.236 207.022 102.525C208.032 102.852 208.509 103.776 208.311 104.794L208.303 104.8Z" fill="#231F20"/>
<path d="M163.136 65.3545C159.53 68.7571 155.115 71.1469 150.413 72.6579C148.16 73.3813 145.842 73.8957 143.503 74.2333C140.982 74.595 138.434 74.8146 135.887 74.7932C132.701 74.7664 129.524 74.2949 126.643 72.8776C125.775 72.4516 125.47 71.1495 125.982 70.3538C126.555 69.4644 127.576 69.2339 128.505 69.6921C128.749 69.8126 128.996 69.9252 129.245 70.0323C129.098 69.9707 128.95 69.9091 128.805 69.8475C130.15 70.4101 131.568 70.753 133.009 70.9513C132.846 70.9299 132.682 70.9084 132.519 70.8843C135.828 71.321 139.254 71.1147 142.552 70.6753C142.389 70.6968 142.225 70.7182 142.062 70.7423C145.633 70.2601 149.154 69.3759 152.479 67.9747C152.331 68.0364 152.184 68.098 152.039 68.1596C154.469 67.1254 156.779 65.8153 158.871 64.1998C158.748 64.2962 158.622 64.3927 158.499 64.4892C159.203 63.9399 159.884 63.3585 160.532 62.745C161.234 62.0833 162.453 61.9975 163.139 62.745C163.798 63.463 163.889 64.6472 163.139 65.3545H163.136Z" fill="#231F20"/>
<path d="M168.284 71.0081C166.323 76.8218 165.468 94.2203 175.647 105.545C185.825 116.867 207.087 133.872 229.918 112.155C254.02 89.2264 240.975 65.4006 221.492 53.9204C202.995 43.0189 188.566 50.5339 188.566 50.5339L168.284 71.0107V71.0081Z" fill="#231F20"/>
<path d="M175.272 105.111C175.315 105.1 175.358 105.092 175.401 105.081C177.493 104.562 179.543 103.833 181.536 102.943C184.333 101.62 186.986 99.9722 189.448 98.0486C190.849 96.8992 192.165 95.6588 193.464 94.3969C197.935 90.0486 202.187 85.4512 205.986 80.5108C206.771 79.4686 207.54 78.4157 208.28 77.3414C210.595 73.9763 212.655 70.4372 214.281 66.7292C215.189 64.5591 215.947 62.3354 216.491 60.0742C216.698 59.2142 216.869 58.3515 217.016 57.4861C217.025 57.4272 217.033 57.3709 217.041 57.312C217.067 57.1217 217.091 56.9342 217.116 56.744C217.167 56.3367 217.209 55.9295 217.247 55.5196C217.359 54.2657 217.4 53.0119 217.386 51.7634C213.622 50.0166 210.075 49.0039 206.841 48.4788C206.868 51.5893 206.294 54.7935 205.276 57.821C203.749 62.3595 201.327 66.622 198.431 70.5175C194.174 76.2456 189.108 81.5369 183.548 86.0219C179.205 89.5235 174.353 92.4706 169.159 94.0593C170.437 97.9495 172.398 101.778 175.275 105.111H175.272Z" fill="#FDD615"/>
<path d="M235.949 78.8203C233.468 84.401 230.06 89.545 226.259 94.3862C223.845 97.4592 221.238 100.385 218.511 103.19C215.239 106.552 211.826 109.832 208.164 112.757C204.852 115.402 201.284 117.706 197.594 119.723C197.083 120.004 196.566 120.278 196.046 120.551C199.773 121.971 203.77 122.78 207.963 122.611C211.261 120.642 214.43 118.445 217.458 116.047C218.653 115.08 219.826 114.086 220.97 113.06C225.152 109.309 228.978 105.165 232.402 100.72C233.3 99.5302 234.17 98.3246 235.009 97.0976C238.047 92.6394 240.667 87.9268 242.832 83.0373C242.382 78.7721 240.97 74.7024 238.84 70.9329C238.068 73.6067 237.101 76.2349 235.952 78.823L235.949 78.8203Z" fill="#FDD615"/>
<path d="M200.76 52.7522L200.754 52.7792C200.754 52.7792 200.757 52.7603 200.76 52.7522Z" fill="#FDD615"/>
<path d="M171.478 87.2139C174.452 85.8074 177.241 83.9936 179.85 81.9387C182.53 79.7551 185.064 77.3519 187.473 74.871C189.541 72.7411 191.508 70.5094 193.319 68.1597C195.502 65.2448 197.436 62.145 198.897 58.8443C199.564 57.2341 200.118 55.5864 200.509 53.9093C200.59 53.5637 200.662 53.2154 200.729 52.8671C200.756 52.7278 200.78 52.5911 200.804 52.4518C200.89 51.8544 200.957 51.2569 200.997 50.6594C201.059 49.77 201.059 48.8858 201.021 48.0044C193.383 48.0178 188.566 50.5282 188.566 50.5282L168.285 71.005C167.186 74.2629 166.436 81.1563 167.778 88.5803C169.035 88.2052 170.27 87.7444 171.481 87.2086L171.478 87.2139Z" fill="#FDD615"/>
<path d="M229.827 112.184C229.637 112.382 229.444 112.575 229.251 112.77C229.473 112.567 229.693 112.366 229.915 112.154C233.216 109.014 235.815 105.858 237.803 102.718C235.351 106.04 232.68 109.21 229.827 112.184Z" fill="#FDD615"/>
<path d="M190.418 117.103C195.602 114.697 200.618 111.702 205.153 108.117C206.643 106.898 208.068 105.596 209.478 104.281C214.311 99.7744 218.887 94.9546 222.914 89.7168C223.693 88.6826 224.454 87.6324 225.183 86.5661C227.498 83.177 229.531 79.611 231.16 75.8843C231.886 74.1509 232.526 72.388 233.068 70.601C233.652 68.6613 234.107 66.6974 234.49 64.7282C231.278 60.9399 227.35 57.6097 223.056 54.8823C222.812 57.9928 222.193 61.1167 221.226 64.1388C219.431 69.7383 216.567 75.0591 213.186 79.9673C208.1 87.3511 201.952 94.1696 195.345 100.246C190.806 104.423 185.416 107.742 179.685 109.711C182.544 112.433 185.909 115.177 189.676 117.433C189.922 117.326 190.172 117.216 190.418 117.106V117.103Z" fill="#FDD615"/>
<path d="M157.061 58.3485C157.061 58.3485 154.251 67.313 162.02 74.4155C166.934 78.9057 178.396 78.0618 185.008 69.8368C191.617 61.6117 192.341 51.1469 185.801 46.7183C176.568 40.4678 172.834 45.3546 172.834 45.3546L157.061 58.3458V58.3485Z" fill="#231F20"/>
<path d="M159.559 66.6356C159.862 68.2458 161.006 69.6738 162.514 70.3168C163.508 70.7401 164.682 70.8231 165.657 70.3623C166.632 69.8988 167.342 68.8325 167.216 67.7608C167.066 66.4802 165.882 65.5746 165.426 64.369C165.183 63.718 165.158 63.0027 164.952 62.3382C164.355 60.4253 162.367 60.8674 161.11 61.9069C159.827 62.9705 159.259 65.0388 159.559 66.6356Z" fill="#594F59"/>
<path d="M152.001 11.9321C141.555 13.0413 128.698 22.0111 128.29 35.1417C127.937 46.4772 135.162 61.4028 156.952 60.4383C174.972 59.6426 182.56 47.4524 181.292 35.0024C179.878 21.0895 169.951 10.0245 152.004 11.9321H152.001Z" fill="#FDD615"/>
<path d="M181.383 35.8248C181.356 35.5381 181.332 35.2541 181.297 34.9648C179.623 21.0814 169.956 9.98697 152.008 11.8945C141.562 13.0037 128.705 21.9735 128.298 35.1041C128.169 39.2434 128.992 43.7658 131.149 47.7926L131.197 47.7846C128.925 41.7458 129.675 34.6674 136.71 31.3238C142.085 28.7679 150.2 35.4872 150.2 35.4872C150.2 35.4872 152.78 24.7759 164.333 24.3768C177.104 23.9347 181.38 35.8355 181.38 35.8355V35.8275L181.383 35.8248Z" fill="#231F20"/>
<path d="M179.92 2.46421C178.162 3.12597 176.64 4.29676 175.271 5.58276C172.22 8.4441 169.787 11.9618 168.182 15.8252L168.145 17.347C168.756 18.5311 170.339 19.0991 171.563 18.5713C171.807 18.4668 172.04 18.3195 172.198 18.1078C172.426 17.8024 172.469 17.4005 172.517 17.0228C173.187 11.6645 176.225 6.64638 180.662 3.56803C180.935 3.38049 181.246 3.12597 181.203 2.79911C181.139 2.29007 180.397 2.28739 179.917 2.46689L179.92 2.46421Z" fill="#231F20"/>
<path d="M183.474 2.59014C183.562 4.10386 182.405 5.40326 180.888 5.49167C179.375 5.58008 178.075 4.42268 177.99 2.90628C177.901 1.39255 179.059 0.0931586 180.575 0.00474621C182.089 -0.0836661 183.388 1.07373 183.476 2.59014H183.474Z" fill="#231F20"/>
<path d="M128.63 7.75581C128.132 9.56692 128.183 11.4852 128.418 13.3472C128.938 17.4972 130.35 21.5347 132.531 25.1034L133.739 26.0277C135.055 26.2313 136.448 25.2829 136.74 23.9835C136.799 23.7236 136.818 23.4503 136.737 23.1985C136.622 22.8341 136.325 22.5635 136.046 22.3037C132.108 18.6091 129.836 13.2025 129.956 7.80404C129.964 7.47182 129.943 7.07262 129.654 6.91187C129.206 6.66539 128.767 7.26285 128.63 7.75581Z" fill="#231F20"/>
<path d="M135.662 33.6712C135.906 33.5721 136.174 33.4998 136.434 33.5507C136.694 33.6016 136.938 33.7972 136.975 34.057C137.029 34.4348 136.67 34.7295 136.351 34.9385L135.657 35.3939C135.429 35.544 135.196 35.6967 135.046 35.9244C134.829 36.2486 134.749 37.2399 134.199 37.2051C133.715 37.1756 133.69 36.4656 133.736 36.1307C133.875 35.0698 134.682 34.0731 135.66 33.6712H135.662Z" fill="#231F20"/>
<path d="M164.039 25.9607C163.779 26.0089 163.517 26.0946 163.326 26.2795C163.136 26.4617 163.037 26.7591 163.147 27.0002C163.308 27.3458 163.769 27.3994 164.152 27.4021C164.428 27.4021 164.704 27.4048 164.979 27.4074C165.25 27.4074 165.531 27.4128 165.781 27.52C166.14 27.6754 166.745 28.463 167.187 28.1362C167.578 27.8468 167.211 27.2413 166.992 26.9815C166.298 26.167 165.079 25.7678 164.039 25.9634V25.9607Z" fill="#231F20"/>
<path d="M154.446 52.7694C151.558 55.104 151.828 57.7825 151.845 57.9208C151.862 58.0566 151.982 58.1603 152.116 58.1497C152.25 58.1417 152.346 58.0237 152.329 57.8879C152.323 57.8488 151.938 54.0246 157.258 51.6753C162.322 49.4374 165.017 52.6833 165.043 52.7161C165.13 52.8242 165.284 52.8447 165.387 52.7621C165.489 52.6795 165.502 52.525 165.415 52.4169C165.386 52.3814 162.446 48.8357 157.043 51.2222C155.974 51.6944 155.123 52.2223 154.446 52.7694Z" fill="#231F20"/>
<path d="M133.793 24.6314C133.45 25.3467 133.16 26.1558 133.369 26.9194C133.653 27.9509 134.819 28.5617 135.885 28.476C136.951 28.3876 137.9 27.7446 138.639 26.973C139.381 26.2014 139.963 25.2931 140.654 24.476C141.868 23.0426 143.421 21.9013 145.152 21.1699C145.827 20.8859 146.54 20.6582 147.145 20.2429C147.751 19.8276 148.252 19.1739 148.252 18.4398C148.252 15.1659 142.502 15.5758 140.729 16.9234C138.015 18.981 135.277 21.5262 133.793 24.6287V24.6314Z" fill="#594F59"/>
<path d="M180.321 3.12851C180.691 3.53842 181.364 3.68845 181.816 3.36963C181.966 3.26514 182.082 3.11779 182.173 2.95972C182.695 2.04613 182.1 0.481495 180.908 0.489533C179.692 0.49757 179.729 2.46943 180.321 3.12851Z" fill="#594F59"/>
<path d="M140.372 35.7178C140.109 35.6401 139.836 35.5946 139.563 35.6106C139.209 35.6321 138.869 35.7607 138.545 35.9027C137.719 36.2617 136.913 36.7386 136.366 37.4539C135.82 38.1719 135.579 39.1712 135.943 39.9964C136.107 40.3688 136.383 40.685 136.685 40.9582C137.864 42.0192 139.557 42.4773 141.111 42.1585L140.058 41.5691C139.978 41.3655 140.283 41.2503 140.498 41.2208C141.765 41.052 142.732 39.7607 142.662 38.4854C142.595 37.2101 141.596 36.0741 140.369 35.7124L140.372 35.7178Z" fill="#FCAE12"/>
<g opacity="0.18">
<path opacity="0.18" d="M129.033 78.0351C131.94 79.7203 134.231 82.3834 134.392 85.3599C134.512 87.5676 133.481 89.7109 133.231 91.9132C132.76 96.1034 135.128 100.095 137.427 103.819C140.776 109.239 144.122 114.662 147.471 120.082C148.637 121.968 149.821 123.905 150.142 126.016C150.901 130.965 146.44 135.806 140.843 137.488C135.246 139.168 128.931 138.172 123.635 135.953C118.338 133.735 113.848 130.394 109.36 127.152C99.4365 119.985 88.9529 113.009 76.6422 109.271C66.0086 106.043 54.5498 105.392 43.3215 104.194C28.4387 102.608 12.8192 99.6318 2.16954 90.7772C1.21039 89.9815 0.259277 89.0733 0.0449371 87.9534C-0.292633 86.1878 1.2988 84.5562 3.0349 83.5086C8.52718 80.1945 15.7904 80.1838 22.5285 80.2133C41.1701 80.2963 59.8197 79.6882 78.4104 78.3941C87.7929 77.7404 97.1592 76.9125 106.501 75.9079C114.839 75.013 121.657 73.7619 129.036 78.0351H129.033Z" fill="white"/>
</g>
<path d="M167.411 31.3404C167.277 31.1019 167.114 30.8769 166.908 30.7C166.637 30.4696 166.305 30.325 165.973 30.199C165.129 29.8802 164.221 29.6578 163.331 29.7891C162.439 29.9204 161.568 30.4669 161.252 31.3109C161.107 31.694 161.083 32.1119 161.11 32.5192C161.214 34.1026 162.104 35.6136 163.438 36.4709L163.095 35.3136C163.181 35.1126 163.478 35.2412 163.655 35.3725C164.679 36.1361 166.273 35.8896 167.114 34.9278C167.958 33.9659 168.036 32.4576 167.411 31.343V31.3404Z" fill="#FCAE12"/>
<path d="M141.957 38.6515C142.865 39.5357 142.887 40.9878 142.003 41.896C141.119 42.8042 139.667 42.8257 138.758 41.9416C137.85 41.0574 137.829 39.6053 138.713 38.6971C139.597 37.7889 141.049 37.7674 141.957 38.6515Z" fill="#231F20"/>
<path d="M139.823 39.782C140.104 40.1249 140.056 40.6313 139.713 40.9126C139.37 41.1939 138.864 41.1457 138.582 40.8028C138.301 40.4598 138.349 39.9535 138.692 39.6722C139.035 39.3909 139.542 39.4391 139.823 39.782Z" fill="white"/>
<path d="M166.036 33.2744C166.728 34.3353 166.427 35.7579 165.367 36.4492C164.306 37.1404 162.883 36.8403 162.192 35.7794C161.5 34.7184 161.801 33.2958 162.861 32.6046C163.922 31.9133 165.345 32.2134 166.036 33.2744Z" fill="#231F20"/>
<path d="M163.706 33.9076C163.907 34.3041 163.747 34.7863 163.35 34.9873C162.953 35.1882 162.471 35.0275 162.27 34.6309C162.069 34.2344 162.23 33.7522 162.627 33.5512C163.023 33.3503 163.505 33.5111 163.706 33.9076Z" fill="white"/>
<path d="M155.065 46.2092C155.585 45.8341 156.105 45.2367 155.909 44.6258C155.767 44.1811 155.266 43.873 155.25 43.4068C155.234 42.9139 155.824 42.5736 156.306 42.6781C156.788 42.7826 157.144 43.1871 157.402 43.6078C157.592 43.9185 157.753 44.2642 157.75 44.6285C157.745 45.1081 157.447 45.5448 157.067 45.8368C156.686 46.1289 156.228 46.2976 155.778 46.4584C155.205 46.6647 154.543 46.9058 153.946 46.7022C154.337 46.6191 154.728 46.453 155.065 46.2092Z" fill="#FCAE12"/>
<path d="M129.161 9.81571C130.643 10.1372 132.106 9.19415 132.427 7.71257C132.749 6.23099 131.806 4.76817 130.324 4.44667C128.84 4.12517 127.38 5.06824 127.058 6.54981C126.737 8.03139 127.68 9.49421 129.161 9.81571Z" fill="#231F20"/>
<path d="M130.782 5.64421C131.131 6.07287 131.173 6.76142 130.788 7.15793C130.662 7.28921 130.498 7.3803 130.327 7.44728C129.344 7.81968 127.891 6.99182 128.082 5.81567C128.277 4.61541 130.22 4.95834 130.78 5.64689L130.782 5.64421Z" fill="#594F59"/>
<path d="M182.677 60.7334C181.712 60.7334 180.788 59.8841 180.833 58.8901C180.879 57.8908 181.642 57.0469 182.677 57.0469C183.641 57.0469 184.565 57.8962 184.52 58.8901C184.474 59.8895 183.711 60.7334 182.677 60.7334Z" fill="#231F20"/>
<path d="M184.644 58.8847C184.748 61.9282 184.186 65.0039 183.181 67.8706C182.099 70.9597 180.566 73.8826 178.739 76.5939C176.821 79.4392 174.61 82.0942 172.202 84.535C169.777 86.9918 167.144 89.2342 164.363 91.2784C161.871 93.111 159.24 94.7667 156.47 96.1491C156.154 96.3072 155.835 96.4626 155.513 96.6126C155.055 96.827 154.597 96.9368 154.093 96.7975C153.665 96.6796 153.201 96.3501 152.992 95.9509C152.561 95.1337 152.722 93.8665 153.654 93.4271C156.403 92.1357 159.015 90.5658 161.496 88.819C162.246 88.2912 162.983 87.7446 163.709 87.1847C163.586 87.2811 163.46 87.3776 163.336 87.474C166.428 85.0788 169.308 82.405 171.888 79.466C172.622 78.6301 173.332 77.7701 174.013 76.8886C173.917 77.0119 173.82 77.1378 173.724 77.261C175.875 74.4747 177.756 71.4607 179.127 68.2135C179.066 68.3609 179.004 68.5082 178.943 68.6529C179.856 66.4774 180.534 64.2028 180.847 61.8639C180.826 62.0273 180.805 62.1908 180.781 62.3542C180.931 61.2048 180.992 60.0447 180.952 58.8847C180.92 57.9202 181.825 56.9959 182.795 57.0414C183.824 57.087 184.604 57.8505 184.639 58.8847H184.644Z" fill="#231F20"/>
<g opacity="0.46">
<path opacity="0.46" d="M198.588 65.4032C200.624 65.9256 202.754 65.9363 204.828 66.2873C206.815 66.6249 208.75 67.2759 210.537 68.2136C213.141 69.5773 215.638 71.5974 218.577 71.5465C222.116 71.4849 225.109 67.7447 224.391 64.2779C223.884 61.8318 221.942 59.9537 219.922 58.4856C213.671 53.9471 206.352 52.7334 198.923 54.5311C196.645 55.0803 194.336 55.6189 193.516 58.073C192.292 61.7354 195.325 64.5673 198.59 65.4032H198.588Z" fill="white"/>
</g>
<path d="M235.867 87.7849C237.62 88.7789 239.428 89.6711 241.282 90.4561C241.135 90.3945 240.987 90.3328 240.843 90.2712C244.309 91.7314 247.926 92.8218 251.621 93.5344C252.671 93.7381 253.727 93.9068 254.785 94.0515C254.622 94.0301 254.458 94.0086 254.295 93.9845C258.166 94.4989 262.091 94.6168 265.987 94.3275C267.098 94.2444 268.21 94.1265 269.314 93.9792C269.151 94.0006 268.987 94.022 268.824 94.0461C272.537 93.5425 276.2 92.6744 279.733 91.4286C280.725 91.0776 281.708 90.6999 282.678 90.29C282.53 90.3516 282.383 90.4132 282.238 90.4748C284.092 89.6898 285.903 88.803 287.656 87.8091C288.494 87.3322 289.711 87.5813 290.179 88.4708C290.64 89.3442 290.415 90.4855 289.518 90.9946C286.217 92.8646 282.705 94.3837 279.088 95.5304C275.457 96.6798 271.715 97.4246 267.932 97.8372C264.28 98.2364 260.591 98.2792 256.931 97.9631C253.143 97.6362 249.376 96.9691 245.724 95.9055C242.099 94.8526 238.565 93.4219 235.232 91.6429C234.823 91.4232 234.415 91.1982 234.011 90.9705C233.172 90.4936 232.813 89.2772 233.349 88.4467C233.896 87.6001 234.975 87.2759 235.873 87.7849H235.867Z" fill="#231F20"/>
<path d="M282.986 90.1344C282.986 90.1344 283.509 84.2805 285.258 84.1117C287.008 83.9429 304.556 86.3541 303.482 87.8277C302.405 89.3012 286.517 91.9884 286.517 91.9884L282.989 90.1344H282.986Z" fill="#231F20"/>
<path d="M241.186 148.336C241.186 148.336 246.258 145.392 247.246 146.935C248.235 148.478 249.443 167.613 248.439 167.112C247.437 166.611 239.964 151.211 239.964 151.211L241.186 148.336Z" fill="#231F20"/>
<g opacity="0.46">
<path opacity="0.46" d="M211.304 17.3201C212.121 17.7166 212.821 18.3543 213.289 19.1339C213.841 20.0475 214.069 21.1165 214.522 22.0836C214.975 23.0508 215.776 23.9751 216.837 24.0796C218.195 24.2109 219.296 22.9597 219.824 21.7032C221.155 18.5204 220.255 14.5418 217.683 12.2431C215.087 9.92293 210.058 9.29065 207.026 11.233C205.726 12.0663 205.161 13.2183 205.943 14.6838C207.004 16.6664 209.523 16.4574 211.302 17.3228L211.304 17.3201Z" fill="white"/>
</g>
<path d="M156.935 92.2937C154.223 92.6607 151.37 91.7739 149.347 89.9333C149.109 89.7163 148.833 89.4725 148.514 89.5127C147.941 89.5877 147.903 90.3995 148.026 90.9648C148.289 92.1758 148.552 93.3868 148.811 94.5977C148.937 95.1845 149.058 95.8221 148.793 96.3579C148.49 96.9741 147.783 97.2555 147.156 97.5314C145.342 98.3271 143.534 99.7632 143.389 101.738C143.217 104.128 145.773 106.046 148.168 105.939C150.564 105.831 152.651 104.261 154.253 102.48C157.318 99.0612 159.258 94.6084 162.92 91.8382C162.612 91.9373 162.304 92.0391 161.996 92.1383L156.937 92.291L156.935 92.2937Z" fill="#231F20"/>
<path d="M133.607 66.121C135.089 65.7459 136.785 65.4941 138.039 66.3701C139.488 67.3829 139.67 69.6092 138.786 71.1417C137.902 72.6742 136.233 73.5932 134.542 74.1076C132.367 74.7666 128.978 74.1906 128.506 71.4873C127.976 68.4626 131.223 66.7265 133.61 66.121H133.607Z" fill="#231F20"/>
</svg>
